<svg width="170" height="63" fill="none" xmlns="http://www.w3.org/2000/svg"><rect y="7" width="170" height="56" rx="4" fill="#101D41"/><path d="m85 0 6.928 7.5H78.072L85 0Z" fill="#101D41"/><path d="m28.096 36.82-.84 2.78a.766.766 0 0 1-.32.42.696.696 0 0 1-.44.18.854.854 0 0 1-.6-.22.75.75 0 0 1-.24-.58c0-.12.014-.22.04-.3l3.9-12.34c.214-.707.56-1.06 1.04-1.06s.834.353 1.06 1.06l3.9 12.34c.027.08.04.18.04.3a.75.75 0 0 1-.24.58.854.854 0 0 1-.6.22c-.16 0-.32-.06-.48-.18a.796.796 0 0 1-.3-.42l-.86-2.78h-5.06Zm2.54-8.34-2.06 6.78h4.12l-2.06-6.78Zm13.737 4.24c0 1.053-.467 1.76-1.4 2.12 1.066.387 1.6 1.16 1.6 2.32 0 .867-.287 1.56-.86 2.08-.56.507-1.38.76-2.46.76h-2.88a.803.803 0 0 1-.56-.22.803.803 0 0 1-.22-.56v-8.54c0-.213.073-.393.22-.54.16-.16.346-.24.56-.24h2.68c1.08 0 1.9.26 2.46.78.573.507.86 1.187.86 2.04Zm-3.16 5.94c1.213 0 1.82-.52 1.82-1.56s-.68-1.56-2.04-1.56h-1.84v3.12h2.06Zm-2.06-7.42v2.98h1.9c1.187 0 1.78-.473 1.78-1.42 0-1.04-.607-1.56-1.82-1.56h-1.86Zm11.02.14v8c0 .227-.08.413-.24.56a.734.734 0 0 1-.54.22.803.803 0 0 1-.56-.22.758.758 0 0 1-.22-.56v-8h-2.08a.748.748 0 0 1-.52-.2.774.774 0 0 1-.2-.54c0-.213.066-.387.2-.52a.71.71 0 0 1 .52-.22h5.72c.2 0 .366.073.5.22a.67.67 0 0 1 .22.52.734.734 0 0 1-.22.54c-.134.133-.3.2-.5.2h-2.08Zm10.567 7.78c-.654.667-1.574 1-2.76 1-1.187 0-2.107-.333-2.76-1-.654-.667-.98-1.52-.98-2.56v-3.34c0-1.04.326-1.893.98-2.56.653-.667 1.573-1 2.76-1 1.187 0 2.107.333 2.76 1 .653.667.98 1.52.98 2.56v3.34c0 1.04-.327 1.893-.98 2.56Zm-4.38-1c.373.373.913.56 1.62.56.707 0 1.247-.187 1.62-.56.373-.373.56-.893.56-1.56v-3.36c0-.667-.187-1.18-.56-1.54-.373-.373-.913-.56-1.62-.56-.707 0-1.247.187-1.62.56-.373.36-.56.873-.56 1.54v3.36c0 .667.187 1.187.56 1.56Zm10.98-6.78v8c0 .227-.08.413-.24.56a.734.734 0 0 1-.54.22.802.802 0 0 1-.56-.22.758.758 0 0 1-.22-.56v-8H63.7a.748.748 0 0 1-.52-.2.773.773 0 0 1-.2-.54c0-.213.067-.387.2-.52a.71.71 0 0 1 .52-.22h5.72c.2 0 .367.073.5.22a.67.67 0 0 1 .22.52.735.735 0 0 1-.22.54c-.133.133-.3.2-.5.2h-2.08Zm8.624 8.76c-.72 0-1.46-.127-2.22-.38v3.78a.734.734 0 0 1-.22.54c-.133.147-.32.22-.56.22a.784.784 0 0 1-.58-.22.774.774 0 0 1-.2-.54V32.62c0-.613-.106-1.08-.32-1.4a.763.763 0 0 1-.14-.4c0-.2.074-.367.22-.5a.7.7 0 0 1 .48-.2c.294 0 .554.16.78.48 1.094-.587 2.067-.88 2.92-.88 1.027 0 1.814.347 2.36 1.04.547.68.82 1.593.82 2.74v2.6c0 1.28-.26 2.273-.78 2.98-.506.707-1.36 1.06-2.56 1.06Zm-2.22-7.52v5.74c.6.28 1.274.42 2.02.42.72 0 1.227-.207 1.52-.62.307-.427.46-1.113.46-2.06v-2.6c0-1.587-.646-2.38-1.94-2.38-.706 0-1.426.227-2.16.68.067.333.1.607.1.82Zm12.891 1.76v-1.14c0-1.427-.713-2.14-2.14-2.14-.493 0-1 .14-1.52.42-.32.107-.493.16-.52.16-.346 0-.533-.22-.56-.66-.04-.427.22-.747.78-.96.574-.227 1.247-.34 2.02-.34 1.227 0 2.114.34 2.66 1.02.56.667.84 1.673.84 3.02v4.4c0 .4.12.6.36.6h.06a.33.33 0 0 1 .1-.02c.187 0 .327.067.42.2.107.133.16.293.16.48 0 .453-.3.68-.9.68-.68 0-1.18-.333-1.5-1a3.928 3.928 0 0 1-2.74 1.06c-1 0-1.76-.267-2.28-.8-.52-.547-.78-1.287-.78-2.22v-.08c0-1.973 1.174-2.96 3.52-2.96.707 0 1.38.093 2.02.28Zm-2.04 1.04c-.76 0-1.28.147-1.56.44-.266.293-.4.7-.4 1.22v.08c0 1.067.587 1.6 1.76 1.6.814 0 1.56-.293 2.24-.88v-2.16c-.666-.2-1.346-.3-2.04-.3Zm8.269 3.96c0 .227-.08.413-.24.56a.734.734 0 0 1-.54.22.802.802 0 0 1-.56-.22.758.758 0 0 1-.22-.56v-8.82c0-.213.073-.393.22-.54.16-.16.346-.24.56-.24.213 0 .393.08.54.24.16.147.24.327.24.54v3.56h4.24v-3.56c0-.213.073-.393.22-.54.16-.16.346-.24.56-.24.213 0 .393.08.54.24.16.147.24.327.24.54v8.82c0 .227-.08.413-.24.56a.734.734 0 0 1-.54.22.802.802 0 0 1-.56-.22.758.758 0 0 1-.22-.56v-3.94h-4.24v3.94Zm8.153-2.9v-3.02c0-1.093.3-1.98.9-2.66.6-.68 1.494-1.02 2.68-1.02.627 0 1.247.1 1.86.3.614.2.92.507.92.92a.652.652 0 0 1-.2.48.654.654 0 0 1-.48.2c-.093 0-.2-.02-.32-.06-.613-.307-1.153-.46-1.62-.46-1.453 0-2.18.767-2.18 2.3v3.02c0 1.533.727 2.3 2.18 2.3.467 0 1.007-.153 1.62-.46.12-.04.227-.06.32-.06.187 0 .347.067.48.2.134.133.2.293.2.48 0 .413-.306.72-.92.92-.613.2-1.233.3-1.86.3-1.186 0-2.08-.34-2.68-1.02-.6-.68-.9-1.567-.9-2.66Zm9.913 2.9c0 .227-.08.413-.24.56a.735.735 0 0 1-.54.22.803.803 0 0 1-.56-.22.757.757 0 0 1-.22-.56v-8.7c0-.213.073-.393.22-.54.16-.16.347-.24.56-.24h5.6c.213 0 .393.08.54.24.16.147.24.327.24.54v8.7c0 .227-.08.413-.24.56a.735.735 0 0 1-.54.22.803.803 0 0 1-.56-.22.757.757 0 0 1-.22-.56v-8.16h-4.04v8.16Zm14.458-.22c-.653.667-1.573 1-2.76 1-1.186 0-2.106-.333-2.76-1-.653-.667-.98-1.52-.98-2.56v-3.34c0-1.04.327-1.893.98-2.56.654-.667 1.574-1 2.76-1 1.187 0 2.107.333 2.76 1 .654.667.98 1.52.98 2.56v3.34c0 1.04-.326 1.893-.98 2.56Zm-4.38-1c.374.373.914.56 1.62.56.707 0 1.247-.187 1.62-.56.374-.373.56-.893.56-1.56v-3.36c0-.667-.186-1.18-.56-1.54-.373-.373-.913-.56-1.62-.56-.706 0-1.246.187-1.62.56-.373.36-.56.873-.56 1.54v3.36c0 .667.187 1.187.56 1.56Zm11.597 1.98c-.72 0-1.46-.127-2.22-.38v3.78a.733.733 0 0 1-.22.54c-.133.147-.32.22-.56.22a.785.785 0 0 1-.58-.22.775.775 0 0 1-.2-.54V32.62c0-.613-.107-1.08-.32-1.4a.766.766 0 0 1-.14-.4c0-.2.073-.367.22-.5a.701.701 0 0 1 .48-.2c.293 0 .553.16.78.48 1.093-.587 2.067-.88 2.92-.88 1.027 0 1.813.347 2.36 1.04.547.68.82 1.593.82 2.74v2.6c0 1.28-.26 2.273-.78 2.98-.507.707-1.36 1.06-2.56 1.06Zm-2.22-7.52v5.74c.6.28 1.273.42 2.02.42.72 0 1.227-.207 1.52-.62.307-.427.46-1.113.46-2.06v-2.6c0-1.587-.647-2.38-1.94-2.38-.707 0-1.427.227-2.16.68.067.333.1.607.1.82Zm11.155-1.24v8c0 .227-.08.413-.24.56a.735.735 0 0 1-.54.22.801.801 0 0 1-.56-.22.757.757 0 0 1-.22-.56v-8h-2.08a.746.746 0 0 1-.52-.2.77.77 0 0 1-.2-.54.7.7 0 0 1 .2-.52.71.71 0 0 1 .52-.22h5.72c.2 0 .366.073.5.22.146.133.22.307.22.52a.737.737 0 0 1-.22.54.68.68 0 0 1-.5.2h-2.08Z" fill="#fff"/></svg>