<svg width="146" height="63" fill="none" xmlns="http://www.w3.org/2000/svg"><rect y="7" width="146" height="56" rx="4" fill="#101D41"/><path d="m73 0 5.95 7.5h-11.9L73 0Z" fill="#101D41"/><path d="M22.852 36.82h5.06l.86 2.78c.1.36.48.6.78.6.48 0 .84-.32.84-.8 0-.08-.02-.24-.04-.3l-3.9-12.34c-.2-.62-.46-1.06-1.06-1.06-.58 0-.86.46-1.04 1.06l-3.9 12.34c-.02.06-.04.22-.04.3 0 .48.38.8.84.8.28 0 .64-.24.76-.6l.84-2.78Zm2.54-8.34 2.06 6.78h-4.12l2.06-6.78Zm13.737 4.24c0-1.64-1.08-2.82-3.32-2.82h-2.68c-.44 0-.78.36-.78.78v8.54c0 .42.34.78.78.78h2.88c2.22 0 3.32-1.16 3.32-2.84 0-1.12-.48-1.92-1.6-2.32.98-.38 1.4-1.1 1.4-2.12Zm-1.34 4.38c0 1.08-.62 1.56-1.82 1.56h-2.06v-3.12h1.84c1.72 0 2.04.8 2.04 1.56Zm-3.88-5.86h1.86c1.18 0 1.82.48 1.82 1.56 0 .7-.28 1.42-1.78 1.42h-1.9v-2.98Zm8.675 8.96c.32 0 .62-.18.8-.46l4.42-7.1v6.74c0 .44.34.82.78.82s.78-.38.78-.82v-8.74c0-.5-.34-.88-.84-.88-.34 0-.66.18-.82.48l-4.44 7.08v-6.74c0-.44-.36-.82-.8-.82-.44 0-.76.38-.76.82v8.74c0 .48.36.88.88.88Zm14.705-5.82a7.25 7.25 0 0 0-2.02-.28c-2.36 0-3.52 1-3.52 2.96v.08c0 1.8 1 3.02 3.06 3.02 1.08 0 1.98-.36 2.74-1.06.3.62.84 1 1.5 1 .44 0 .9-.18.9-.68 0-.34-.2-.68-.58-.68-.08 0-.1.02-.16.02-.24 0-.36-.2-.36-.6v-4.4c0-2.64-1-4.04-3.5-4.04-1.38 0-2.88.38-2.8 1.3.02.3.18.66.56.66.22 0 .46-.14.52-.16.44-.24.82-.42 1.52-.42 1.44 0 2.14.68 2.14 2.14v1.14Zm-2.04 1.04c.6 0 1.38.1 2.04.3v2.16c-.7.6-1.38.88-2.24.88-1.34 0-1.76-.66-1.76-1.6v-.08c0-.9.32-1.66 1.96-1.66Zm8.269 3.96v-8.16h4.04v8.16c0 .44.34.78.78.78s.78-.34.78-.78v-8.7c0-.42-.34-.78-.78-.78h-5.6c-.44 0-.78.36-.78.78v8.7c0 .44.34.78.78.78s.78-.34.78-.78Zm11.698-.6c-1.44 0-2.18-.72-2.18-1.84v-1.18c.7.12 1.44.18 2.04.18 2.38 0 3.38-1.12 3.38-2.96 0-1.98-1.1-3.26-3.32-3.26-2.38 0-3.66 1.46-3.66 3.38v3.74c0 1.88 1.3 3.32 3.56 3.32 1.08 0 3.24-.32 3.24-1.3 0-.36-.3-.7-.7-.7-.14 0-.24.04-.28.06-.7.32-1.24.56-2.08.56Zm1.7-5.8c0 .82-.26 1.64-1.78 1.64-.4 0-1.36-.04-2.1-.14v-1.52c0-1.12.76-1.82 2.06-1.82 1.16 0 1.82.54 1.82 1.84Zm7.632 7.16c2.54 0 3.34-1.66 3.34-4.04v-2.6c0-2.24-1.08-3.78-3.18-3.78-1.04 0-2.02.4-2.92.88-.2-.28-.46-.48-.78-.48-.34 0-.7.28-.7.7 0 .18.06.28.14.4.24.36.32.74.32 1.4v10.92c0 .42.28.76.78.76s.78-.34.78-.76v-3.78c.72.24 1.54.38 2.22.38Zm-2.22-7.52c0-.24-.04-.52-.1-.82.68-.42 1.48-.68 2.16-.68 1.32 0 1.94.82 1.94 2.38v2.6c0 1.86-.52 2.68-1.98 2.68-.5 0-1.38-.12-2.02-.42v-5.74Zm11.091 6.16c-1.44 0-2.18-.72-2.18-1.84v-1.18c.7.12 1.44.18 2.04.18 2.38 0 3.38-1.12 3.38-2.96 0-1.98-1.1-3.26-3.32-3.26-2.38 0-3.66 1.46-3.66 3.38v3.74c0 1.88 1.3 3.32 3.56 3.32 1.08 0 3.24-.32 3.24-1.3 0-.36-.3-.7-.7-.7-.14 0-.24.04-.28.06-.7.32-1.24.56-2.08.56Zm1.7-5.8c0 .82-.26 1.64-1.78 1.64-.4 0-1.36-.04-2.1-.14v-1.52c0-1.12.76-1.82 2.06-1.82 1.16 0 1.82.54 1.82 1.84Zm11.625 6.4v-8.7c0-.42-.34-.78-.78-.78h-4.6c-.3 0-.7.2-.76.78l-.52 6.18c-.1 1.22-.42 1.8-1.14 1.8-.14 0-.14-.02-.26-.02-.36 0-.74.22-.74.76 0 .68.6.7 1.22.7 1.58 0 2.24-1.34 2.4-3.36l.44-5.52h3.18v8.16c0 .44.34.78.78.78s.78-.34.78-.78Zm6.109-.6c-1.44 0-2.18-.72-2.18-1.84v-1.18c.7.12 1.44.18 2.04.18 2.38 0 3.38-1.12 3.38-2.96 0-1.98-1.1-3.26-3.32-3.26-2.38 0-3.66 1.46-3.66 3.38v3.74c0 1.88 1.3 3.32 3.56 3.32 1.08 0 3.24-.32 3.24-1.3 0-.36-.3-.7-.7-.7-.14 0-.24.04-.28.06-.7.32-1.24.56-2.08.56Zm1.7-5.8c0 .82-.26 1.64-1.78 1.64-.4 0-1.36-.04-2.1-.14v-1.52c0-1.12.76-1.82 2.06-1.82 1.16 0 1.82.54 1.82 1.84Zm7.172-1.6h2.08c.4 0 .72-.32.72-.74s-.32-.74-.72-.74h-5.72c-.4 0-.72.32-.72.74s.32.74.72.74h2.08v8c0 .44.34.78.78.78s.78-.34.78-.78v-8Z" fill="#fff"/></svg>