<svg width="130" height="63" fill="none" xmlns="http://www.w3.org/2000/svg"><rect y="7" width="130" height="56" rx="4" fill="#101D41"/><path d="m65 0 5.298 7.5H59.702L65 0Z" fill="#101D41"/><path d="M23.447 31.9v-4.44h2.64c1.8 0 2.4 1 2.4 2.06 0 1.62-1.44 2.38-2.74 2.38h-2.3Zm2.36 1.56c1.76 0 3.06.9 3.06 2.56 0 1.44-.98 2.42-2.98 2.42h-2.44v-4.98h2.36Zm.3 6.54c2.7 0 4.36-1.74 4.36-4 0-2.24-1.62-2.84-2.96-3.26 1.48-.62 2.58-1.48 2.58-3.2 0-1.86-1.3-3.64-3.9-3.64h-3.38a.96.96 0 0 0-.96.96v12.18c0 .52.42.96.96.96h3.3Zm9.76-1.22c-1.44 0-2.18-.72-2.18-1.84v-1.18c.7.12 1.44.18 2.04.18 2.38 0 3.38-1.12 3.38-2.96 0-1.98-1.1-3.26-3.32-3.26-2.38 0-3.66 1.46-3.66 3.38v3.74c0 1.88 1.3 3.32 3.56 3.32 1.08 0 3.24-.32 3.24-1.3 0-.36-.3-.7-.7-.7-.14 0-.24.04-.28.06-.7.32-1.24.56-2.08.56Zm1.7-5.8c0 .82-.26 1.64-1.78 1.64-.4 0-1.36-.04-2.1-.14v-1.52c0-1.12.76-1.82 2.06-1.82 1.16 0 1.82.54 1.82 1.84Zm11.625 6.4v-8.7c0-.42-.34-.78-.78-.78h-4.6c-.3 0-.7.2-.76.78l-.52 6.18c-.1 1.22-.42 1.8-1.14 1.8-.14 0-.14-.02-.26-.02-.36 0-.74.22-.74.76 0 .68.6.7 1.22.7 1.58 0 2.24-1.34 2.4-3.36l.44-5.52h3.18v8.16c0 .44.34.78.78.78s.78-.34.78-.78Zm6.109.78c2.44 0 3.74-1.56 3.74-3.56v-3.34c0-2-1.3-3.56-3.74-3.56-2.44 0-3.74 1.56-3.74 3.56v3.34c0 2 1.3 3.56 3.74 3.56Zm0-1.44c-1.44 0-2.18-.8-2.18-2.12v-3.36c0-1.3.74-2.1 2.18-2.1 1.44 0 2.18.8 2.18 2.1v3.36c0 1.32-.74 2.12-2.18 2.12Zm5.556-2.24c0 2.06 1.08 3.68 3.58 3.68.94 0 2.78-.28 2.78-1.22 0-.36-.3-.68-.68-.68-.1 0-.2.02-.32.06-.48.24-.92.46-1.62.46-1.56 0-2.18-.84-2.18-2.3v-3.02c0-1.46.62-2.3 2.18-2.3.7 0 1.14.22 1.62.46.12.04.22.06.32.06.38 0 .68-.32.68-.68 0-.94-1.84-1.22-2.78-1.22-2.5 0-3.58 1.62-3.58 3.68v3.02Zm9.234 3.72c.32 0 .62-.18.8-.46l4.42-7.1v6.74c0 .44.34.82.78.82s.78-.38.78-.82v-8.74c0-.5-.34-.88-.84-.88-.34 0-.66.18-.82.48l-4.44 7.08v-6.74c0-.44-.36-.82-.8-.82-.44 0-.76.38-.76.82v8.74c0 .48.36.88.88.88Zm11.285-.82v-8.16h4.04v8.16c0 .44.34.78.78.78s.78-.34.78-.78v-8.7c0-.42-.34-.78-.78-.78h-5.6c-.44 0-.78.36-.78.78v8.7c0 .44.34.78.78.78s.78-.34.78-.78Zm11.698-.6c-1.44 0-2.18-.72-2.18-1.84v-1.18c.7.12 1.44.18 2.04.18 2.38 0 3.38-1.12 3.38-2.96 0-1.98-1.1-3.26-3.32-3.26-2.38 0-3.66 1.46-3.66 3.38v3.74c0 1.88 1.3 3.32 3.56 3.32 1.08 0 3.24-.32 3.24-1.3 0-.36-.3-.7-.7-.7-.14 0-.24.04-.28.06-.7.32-1.24.56-2.08.56Zm1.7-5.8c0 .82-.26 1.64-1.78 1.64-.4 0-1.36-.04-2.1-.14v-1.52c0-1.12.76-1.82 2.06-1.82 1.16 0 1.82.54 1.82 1.84Zm10.512-3.08h-4.6c-.3 0-.7.2-.76.78l-.18 4.06c-.1 1.92-.42 3.32-1.04 3.94h-.38c-.44 0-.78.34-.78.78v2.56c0 .44.34.78.78.78s.78-.34.78-.78V40h6.72v2.02c0 .44.34.78.78.78s.78-.34.78-.78v-2.56c0-.44-.34-.78-.78-.78h-.54v-8c0-.42-.34-.78-.78-.78Zm-4.08 4.84.14-3.52h3.16v7.46h-4.2c.56-.92.84-2.28.9-3.94Z" fill="#fff"/></svg>