<svg width="188" height="50" fill="none" xmlns="http://www.w3.org/2000/svg"><path d="M93.996 12.644 53.899 50 39.264 2.11l54.732 10.534Z" fill="#FF8D30"/><ellipse cx="94.727" cy="33.897" rx="4.353" ry="4.252" fill="#88BFEB"/><ellipse cx="111.867" cy="21.531" rx="15.174" ry="14.821" fill="#EB9898"/><path fill="#72A73E" d="m102.938 23.303 52.793-19.082 9.949 26.26-52.793 19.083z"/><ellipse cx="110.041" cy="40.644" rx="2.551" ry="2.491" fill="#FFBD30"/><ellipse rx="22.779" ry="9.039" transform="matrix(.97092 .2394 -.25022 .96819 159.093 33.393)" fill="#8EC7F5"/><ellipse cx="176.368" cy="12.21" rx="2.594" ry="2.534" fill="#FFBD30"/><ellipse cx="184.46" cy="9.2" rx="2.594" ry="2.534" fill="#FFBD30"/><path d="M4.026 42.082h6.013v2.952a1 1 0 0 1-1 1H5.026a1 1 0 0 1-1-1v-2.952ZM41.209 42.082h6.013v2.952a1 1 0 0 1-1 1H42.21a1 1 0 0 1-1-1v-2.952Z" fill="#1D2959"/><path fill-rule="evenodd" clip-rule="evenodd" d="M28.82 3.498c-1.173-.458-2.454-.825-3.384-.807-.875.017-2.073.388-3.167.833-.612.25-1.216.525-1.799.836l-.004.003a1.44 1.44 0 0 1-1.938-.55 1.39 1.39 0 0 1 .559-1.906 24.37 24.37 0 0 1 2.09-.974C22.32.467 23.937.03 25.38.001c1.535-.03 3.267.412 4.492.89a21.37 21.37 0 0 1 2.24 1.01h.002c.692.369.95 1.22.576 1.901-.373.678-1.25.926-1.937.565a21.707 21.707 0 0 0-1.932-.869Z" fill="#8A4A38"/><path fill-rule="evenodd" clip-rule="evenodd" d="M19.268 1.726c-.64 0-1.158.519-1.158 1.158v.707c0 .533.432.965.965.965h.026v3.651h1.01V4.53h-.248a1.415 1.415 0 0 0-.273-2.804h-.322ZM31.943 1.726c.64 0 1.158.519 1.158 1.158v.707a.965.965 0 0 1-.965.965h-.026v3.651H31.1V4.53h.248a1.415 1.415 0 0 1 .272-2.804h.323Z" fill="#F6EF3E"/><path d="M0 16.762a9 9 0 0 1 9-9h33.253a9 9 0 0 1 9 9v25.32H0v-25.32Z" fill="#8A4A38"/><ellipse cx="8.053" cy="33.247" rx="5.021" ry="4.906" fill="#EF9A9A"/><ellipse rx="4.809" ry="9.257" transform="matrix(.7051 -.7091 .72546 .68826 39.477 33.416)" fill="#93C6EB"/><path fill="#C2DEA3" d="M19.754 21.316 31.119 9.5l6.732 6.179-11.364 11.815z"/><rect width="8.335" height="6.246" rx="1" transform="matrix(.73793 .67488 -.69199 .7219 10.585 13.261)" fill="#C49A6C"/><path fill="#F57B20" d="M10.04 23.05h7.068v20H10.04z"/><path d="M10.04 6.47h7.068v17.294c0 1.942-1.593 3.516-3.534 3.516-1.942 0-3.534-1.574-3.534-3.516V6.47Z" fill="#F6A725"/><path fill="#F6EF3E" d="M9.06 21.479h9.035v1.964H9.06z"/><path fill="#F57B20" d="M34.152 23.05h7.068v20h-7.068z"/><path d="M34.152 6.47h7.068v17.294c0 1.942-1.592 3.516-3.534 3.516-1.942 0-3.534-1.574-3.534-3.516V6.47Z" fill="#F6A725"/><path fill="#F6EF3E" d="M33.172 21.479h9.035v1.964h-9.035z"/></svg>