<svg width="111" height="21" fill="none" xmlns="http://www.w3.org/2000/svg"><g filter="url(#a)" fill="#192144"><path d="M107.789 8.057C108.596 7.55 109 6.767 109 5.71c0-1.382-.581-2.467-1.743-3.257-1.13-.803-2.462-1.205-3.996-1.205a7 7 0 0 0-4.116 1.311c-1.227.86-1.84 2.009-1.84 3.447 0 .536.169.98.508 1.332.339.338.823.508 1.453.508.613 0 1.081-.17 1.404-.508.339-.352.509-.796.509-1.332-.033-.409.105-.825.411-1.248.307-.437.864-.655 1.671-.655.678.014 1.162.183 1.453.507.307.324.444.649.412.973 0 .226-.081.451-.242.677a2.252 2.252 0 0 1-.509.528 11.6 11.6 0 0 1-.799.55c-.371.24-.63.409-.775.508-.839.606-1.259 1.41-1.259 2.41 0 .494.177.91.533 1.248.371.324.863.486 1.477.486.613 0 1.097-.162 1.453-.486.371-.338.557-.754.557-1.248 0-.211.04-.408.121-.592.08-.183.209-.352.387-.507.194-.155.355-.282.484-.38a9.88 9.88 0 0 1 .63-.382c.291-.155.492-.267.605-.338ZM87.098 12.51l4.289-5.25c.44-.635 1.037-.987 1.79-1.06.755-.086 1.414.094 1.98.54.566.447.833 1.045.801 1.794v7.519c0 .475-.188.878-.565 1.21-.362.317-.802.475-1.32.475a2.02 2.02 0 0 1-1.343-.475 1.58 1.58 0 0 1-.542-1.21v-4.667l-4.289 5.25c-.44.634-1.037.987-1.79 1.059-.755.086-1.414-.094-1.98-.54-.566-.447-.833-1.045-.801-1.794V7.864c0-.475.18-.878.542-1.21a1.968 1.968 0 0 1 1.343-.497c.518 0 .958.166 1.32.497.376.332.565.735.565 1.21v4.645Z"/><path fill-rule="evenodd" clip-rule="evenodd" d="M67.817 15.98V7.821c0-.47-.199-.872-.595-1.21a1.93 1.93 0 0 0-1.356-.527 1.9 1.9 0 0 0-1.332.528c-.38.337-.57.74-.57 1.209v-.198c-.191-.44-.572-.813-1.142-1.121-.571-.323-1.221-.484-1.95-.484-1.428 0-2.744.52-3.95 1.561-1.172 1.04-1.76 2.47-1.76 4.287 0 1.862.58 3.306 1.737 4.332 1.158 1.026 2.482 1.539 3.972 1.539.73 0 1.372-.132 1.927-.396.555-.278.96-.608 1.213-.99.095.397.317.726.666.99.349.25.745.374 1.19.374.522 0 .974-.169 1.355-.506.396-.337.595-.747.595-1.23Zm-6.084-1.5c1.3 0 2.354-1.128 2.354-2.52 0-1.393-1.054-2.521-2.354-2.521s-2.353 1.128-2.353 2.52c0 1.393 1.053 2.521 2.353 2.521Z"/><path d="M50.15 10.311V7.953c0-.479.197-.885.59-1.219.392-.348.85-.523 1.373-.523.524 0 .982.175 1.375.523.392.334.589.74.589 1.22v8.078c0 .479-.197.885-.59 1.219-.376.334-.834.5-1.373.5a2.09 2.09 0 0 1-1.4-.5c-.375-.334-.564-.74-.564-1.22V13.64h-4.245v2.393c0 .479-.196.885-.589 1.219-.376.334-.834.5-1.374.5a2.09 2.09 0 0 1-1.398-.5c-.377-.334-.565-.74-.565-1.22V7.954c0-.479.196-.885.59-1.219.392-.348.85-.523 1.373-.523.524 0 .982.175 1.374.523.393.334.59.74.59 1.22v2.357h4.244ZM40.01 6.211c.384 0 .714.145.988.433.275.29.412.954.412 1.359 0 .404-.137.822-.412 1.11-.274.289-.604.39-.989.39h-3.29v6.57c0 1.243-1.105 1.679-2.212 1.679-1.029 0-2.01-.551-2.01-1.667l.034-9.874h7.478ZM16.537 1.248v14.668c0 .484-.266.894-.634 1.231-.353.337-.907.506-1.413.506s-1.237-.169-1.605-.506a1.639 1.639 0 0 1-.53-1.231V4.559h-5.92v11.357c0 .484-.183.894-.551 1.231-.353.337-1.071.506-1.577.506s-1.17-.169-1.537-.506a1.639 1.639 0 0 1-.53-1.231V1.248h14.297ZM29.64 15.953c-1.198 1.112-2.8 1.668-4.807 1.668-2.007 0-3.6-.556-4.78-1.668-1.215-1.129-1.822-2.54-1.822-4.233 0-1.71.607-3.12 1.822-4.232 1.18-1.112 2.773-1.668 4.78-1.668s3.61.556 4.807 1.668c1.197 1.128 1.795 2.54 1.795 4.232 0 1.693-.598 3.104-1.795 4.233Zm-3.117-5.976a2.049 2.049 0 0 0-1.241-.622 2.57 2.57 0 0 0-1.373.125 2.479 2.479 0 0 0-1.083.846c-.282.398-.405.863-.37 1.394 0 .697.22 1.278.66 1.743.458.448 1.03.672 1.717.672.704 0 1.277-.216 1.717-.647.44-.448.66-1.037.66-1.768 0-.697-.229-1.278-.687-1.743ZM73.438 6.157c2.25 0 8.249.033 8.249.033s.004 7.252.004 9.786c0 .487-.202.907-.607 1.26-.387.335-.736.503-1.325.503s-.889.044-1.294-.292c-.386-.352-.742-.984-.742-1.47V9.43h-2.732c0 4.693 0 5.724-1.746 7.402-.644.604-1.472.907-2.485.907-.607 0-.964-.144-1.35-.48-.386-.352-.686-.915-.686-1.435 0-1.12.237-1.566.844-2.297 1.743 0 1.667-.417 1.558-3.593V7.92c.018-.487.11-1.763.11-1.763h2.202ZM105.841 15.27c0 1.363-1.167 2.468-2.607 2.468-1.44 0-2.607-1.105-2.607-2.467 0-1.363 1.167-2.468 2.607-2.468 1.44 0 2.607 1.105 2.607 2.468Z"/></g><defs><filter id="a" x=".241" y=".248" width="110.759" height="20.504" filterUnits="userSpaceOnUse" color-interpolation-filters="sRGB"><feFlood flood-opacity="0" result="BackgroundImageFix"/><feColorMatrix in="SourceAlpha" values="0 0 0 0 0 0 0 0 0 0 0 0 0 0 0 0 0 0 127 0" result="hardAlpha"/><feOffset dy="1"/><feGaussianBlur stdDeviation="1"/><feColorMatrix values="0 0 0 0 0 0 0 0 0 0 0 0 0 0 0 0 0 0 0.3 0"/><feBlend in2="BackgroundImageFix" result="effect1_dropShadow_13536_2603"/><feBlend in="SourceGraphic" in2="effect1_dropShadow_13536_2603" result="shape"/></filter></defs></svg>