<svg width="18" height="18" fill="none" xmlns="http://www.w3.org/2000/svg"><g opacity=".5" fill="#192144"><path d="M12.96 1.8a3.247 3.247 0 0 1 3.24 3.24v7.92a3.247 3.247 0 0 1-3.24 3.24H5.04a3.247 3.247 0 0 1-3.233-3.24V5.04A3.247 3.247 0 0 1 5.04 1.8h7.92Zm0-1.08H5.04A4.32 4.32 0 0 0 .72 5.04v7.92a4.32 4.32 0 0 0 4.32 4.32h7.92a4.32 4.32 0 0 0 4.32-4.32V5.04A4.32 4.32 0 0 0 12.96.72Z"/><path d="M9.007 5.817a3.19 3.19 0 1 1-2.949 1.968 3.182 3.182 0 0 1 2.949-1.968Zm0-1.08a4.27 4.27 0 1 0 3.94 2.637 4.263 4.263 0 0 0-3.94-2.637ZM13.428 5.56a.965.965 0 1 0 0-1.93.965.965 0 0 0 0 1.93Z"/></g></svg>