<svg xmlns="http://www.w3.org/2000/svg" xmlns:xlink="http://www.w3.org/1999/xlink"><symbol id="add-country"><g fill="none"><path stroke="#C2C4C9" stroke-width="2" d="M7 0v14M0 7h14"/></g></symbol><symbol id="bottom-email-icon"><g fill="none"><path fill-rule="evenodd" clip-rule="evenodd" d="M16.14 10.466 11.808 6.5l4.33-3.966-.59-.631L9.25 7.672l-6.299-5.77-.59.632L6.69 6.5l-4.33 3.966.59.631 4.38-4.011L9.25 8.844l1.92-1.758 4.379 4.011.59-.63ZM1.575.25C.766.25.111.949.111 1.808v9.384c0 .86.65 1.558 1.465 1.558h15.348c.81 0 1.465-.699 1.465-1.558V1.808c0-.86-.65-1.558-1.465-1.558H1.576Z" fill="#FFD74B"/></g></symbol><symbol id="bottom-phone-icon"><g fill="none"><path fill-rule="evenodd" clip-rule="evenodd" d="M9.5 1.086c-2.796 0-5.6.473-6.617 1.415-.844.781-1.125 2.162-1.22 3.036 0 0-.013.087-.013.124 0 .343.294.618.654.618.043 0 1.616-.12 2.565-.195.022-.003.045-.006.068-.012.353-.01.638-.281.638-.618l.003-1.217c0-.377.324-.68.723-.68H12.7c.399 0 .723.303.723.68l.003 1.217c0 .337.285.608.638.618.022.006.045.009.069.012.948.074 2.521.195 2.564.195.36 0 .654-.275.654-.618 0-.037-.013-.124-.013-.124-.095-.874-.376-2.255-1.22-3.036-1.017-.942-3.82-1.415-6.617-1.415Zm0 8.032c-.723 0-1.308.552-1.308 1.235S8.777 11.59 9.5 11.59c.723 0 1.308-.553 1.308-1.236 0-.683-.585-1.235-1.308-1.235Zm-.981-2.78v-.773c0-.426-.367-.772-.818-.772-.451 0-.818.346-.818.772v.772L2.471 10.79a1.504 1.504 0 0 0-.494 1.106v1.238c0 .683.586 1.236 1.308 1.236h.328v.772c0 .427.366.772.817.772.452 0 .818-.345.818-.772v-.772h8.504v.772c0 .427.366.772.818.772.451 0 .817-.345.817-.772v-.772h.327c.723 0 1.309-.553 1.309-1.236v-1.238c0-.433-.19-.825-.494-1.106l-4.412-4.452v-.772c0-.426-.367-.772-.818-.772-.451 0-.818.346-.818.772v.772H8.52ZM9.5 7.881c1.446 0 2.617 1.106 2.617 2.471 0 1.366-1.171 2.471-2.617 2.471s-2.617-1.105-2.617-2.47c0-1.366 1.171-2.472 2.617-2.472Z" fill="#FFD74B"/></g></symbol><symbol id="calendar-arrow"><g fill="none"><path d="M8.812.4a1.064 1.064 0 0 0-.345-.26.958.958 0 0 0-.814 0c-.13.06-.246.149-.345.26L.248 8.373a.972.972 0 0 0-.183.31 1.063 1.063 0 0 0 0 .732.972.972 0 0 0 .183.31l7.06 7.972a.978.978 0 0 0 1.504 0c.416-.47.071-.964-.345-1.434l-3.718-4.178-2.62-3.067 6.692-7.714s.407-.442-.01-.902Z" fill="#000"/></g></symbol><symbol id="heart-icon"><g fill="none"><path fill-rule="evenodd" clip-rule="evenodd" d="m10 7.124 1.117-2.348c.278-.582.76-1.418 1.44-2.095.67-.665 1.473-1.118 2.443-1.118 2.095 0 3.75 1.74 3.75 3.834 0 1.59-.692 2.712-2.335 4.424-.421.439-.901.912-1.432 1.435-1.386 1.365-3.108 3.064-4.983 5.336-1.875-2.272-3.598-3.97-4.982-5.336a74.167 74.167 0 0 1-1.433-1.435C1.942 8.11 1.25 6.987 1.25 5.397c0-2.093 1.655-3.834 3.75-3.834.97 0 1.772.453 2.442 1.118.682.677 1.163 1.513 1.44 2.095L10 7.124Zm.49 10.887a.645.645 0 0 1-.22.176.615.615 0 0 1-.76-.176c-2.001-2.497-3.813-4.283-5.304-5.752C1.625 9.713 0 8.113 0 5.397 0 2.554 2.237.25 5 .25c2 0 3.399 1.379 4.255 2.636.325.48.572.94.745 1.303.216-.454.465-.89.745-1.303C11.601 1.627 13 .25 15 .25c2.762 0 5 2.304 5 5.147 0 2.716-1.625 4.316-4.206 6.862-1.492 1.47-3.303 3.256-5.304 5.75v.002Z" fill="#192144"/></g></symbol><symbol id="minus-icon"><g fill="none"><path stroke="#CCC" stroke-width="2" d="M0 1h14"/></g></symbol><symbol id="plus-icon"><g fill="none"><path stroke="#CCC" stroke-width="2" d="M0 6.7h14M6.7 14V0"/></g></symbol><symbol id="route-button-icon"><g fill="none"><path d="m10.07 6.075-9.913 5.63V.444l9.913 5.63Z" fill="#1d2e5b"/></g></symbol></svg>