<svg width="17" height="17" fill="none" xmlns="http://www.w3.org/2000/svg"><path d="M11.905 8.257a.34.34 0 0 0 .341.337.34.34 0 0 0 .341-.337c0-1.894-1.556-3.433-3.471-3.433a.34.34 0 0 0-.342.338c0 .189.154.337.342.337 1.54 0 2.789 1.239 2.789 2.758ZM9.115.7a.34.34 0 0 0-.34.337.34.34 0 0 0 .34.338c3.841 0 6.965 3.088 6.965 6.882 0 .185.15.337.341.337a.34.34 0 0 0 .341-.337C16.762 4.089 13.332.7 9.116.7Zm3.336 11.114-.447.24c-.755.408-1.342 1.527-2.273.684L7.301 10.3 5.2 8.257c-1.055-1.334.126-1.65.54-2.4l.242-.439c.273-.5.372-1.06.29-1.62a2.557 2.557 0 0 0-.744-1.475 2.636 2.636 0 0 0-1.868-.762c-.706 0-1.372.27-1.87.762l-.174.176c-.922.911-1.028 2.48-.3 4.424C2 8.78 3.383 10.791 5.2 12.587c2.769 2.737 5.851 4.313 8.063 4.313.874 0 1.615-.246 2.14-.766l.178-.176c.495-.489.772-1.144.775-1.85a2.636 2.636 0 0 0-.775-1.845 2.683 2.683 0 0 0-3.13-.45Z" fill="#161C35"/></svg>