<svg width="110" height="63" fill="none" xmlns="http://www.w3.org/2000/svg"><rect y="7" width="110" height="56" rx="4" fill="#101D41"/><path d="m55 0 4.483 7.5h-8.966L55 0Z" fill="#101D41"/><path d="M32.423 39.38v-12.7c0-.42-.38-.8-.8-.8h-7.06c-.44 0-.8.38-.8.8v12.7c0 .44.36.82.8.82.44 0 .8-.38.8-.82V27.44h5.46v11.94c0 .44.38.82.8.82.44 0 .8-.38.8-.82Zm6.102-.6c-1.44 0-2.18-.72-2.18-1.84v-1.18c.7.12 1.44.18 2.04.18 2.38 0 3.38-1.12 3.38-2.96 0-1.98-1.1-3.26-3.32-3.26-2.38 0-3.66 1.46-3.66 3.38v3.74c0 1.88 1.3 3.32 3.56 3.32 1.08 0 3.24-.32 3.24-1.3 0-.36-.3-.7-.7-.7-.14 0-.24.04-.28.06-.7.32-1.24.56-2.08.56Zm1.7-5.8c0 .82-.26 1.64-1.78 1.64-.4 0-1.36-.04-2.1-.14v-1.52c0-1.12.76-1.82 2.06-1.82 1.16 0 1.82.54 1.82 1.84Zm14.933-2.42c0-.44-.34-.78-.78-.78s-.78.34-.78.78v8.12h-3.24v-8.12a.781.781 0 0 0-1.56 0v8.12h-3.24v-8.12c0-.44-.34-.78-.78-.78s-.78.34-.78.78v8.66c0 .42.34.78.78.78h9.6c.44 0 .78-.36.78-.78v-8.66Zm4.501 8.82v-3.94h.96l2.86 4.34c.16.26.38.38.64.38.4 0 .72-.26.74-.66a.93.93 0 0 0-.12-.46L62 34.98l2.74-4.06a.93.93 0 0 0 .12-.46c-.02-.4-.34-.66-.74-.66-.26 0-.48.12-.64.38l-2.6 3.94h-1.22v-3.56a.781.781 0 0 0-1.56 0v8.82c0 .44.34.78.78.78s.78-.34.78-.78Zm10.136.78c2.44 0 3.74-1.56 3.74-3.56v-3.34c0-2-1.3-3.56-3.74-3.56-2.44 0-3.74 1.56-3.74 3.56v3.34c0 2 1.3 3.56 3.74 3.56Zm0-1.44c-1.44 0-2.18-.8-2.18-2.12v-3.36c0-1.3.74-2.1 2.18-2.1 1.44 0 2.18.8 2.18 2.1v3.36c0 1.32-.74 2.12-2.18 2.12Zm10.861-.38c.32 0 .6-.18.76-.48l2.6-4.7v6.22c0 .42.34.78.78.78.4 0 .76-.36.76-.78v-8.76a.82.82 0 0 0-.84-.84c-.38 0-.62.2-.8.52l-3.28 5.98-3.28-5.98c-.18-.32-.42-.52-.8-.52a.82.82 0 0 0-.84.84v8.76c0 .42.34.78.76.78s.78-.36.78-.78v-6.22l2.6 4.7c.16.3.44.48.76.48h.04Z" fill="#fff"/></svg>