<svg width="46" height="45" viewBox="0 0 46 45" fill="none" xmlns="http://www.w3.org/2000/svg">
<path d="M22.5841 1.5C25.3419 1.5 28.0726 2.04318 30.6205 3.09853C33.1683 4.15388 35.4833 5.70073 37.4333 7.65076C39.3834 9.60079 40.9302 11.9158 41.9856 14.4636C43.0409 17.0115 43.5841 19.7422 43.5841 22.5" stroke="#FF8D30" stroke-width="3" stroke-linecap="round"/>
<path d="M21.1804 29.488C21.1804 28.648 20.4604 28 19.5244 28H14.1724C15.4684 26.224 17.5804 24.736 19.1884 23.056C20.2924 21.904 21.0844 20.56 21.0844 18.52C21.0844 15.808 19.0444 13.648 15.5404 13.648C13.5964 13.648 10.1644 14.392 10.1644 16.144C10.1644 17.032 10.9804 17.608 11.7964 17.608C12.4924 17.608 12.9724 17.176 13.5004 16.96C14.0764 16.72 14.7004 16.576 15.5164 16.576C17.0044 16.576 17.7724 17.536 17.7724 18.76C17.7724 20.536 15.8524 21.904 14.5324 23.104C12.8284 24.64 11.0764 26.176 10.1164 28.288C9.94835 28.648 9.92435 29.08 9.92435 29.416C9.92435 30.304 10.6204 31 11.6284 31H19.5244C20.4604 31 21.1804 30.328 21.1804 29.488ZM33.9973 25.36C33.9973 21.976 31.6933 19.96 28.4053 19.96C27.8773 19.96 27.3253 20.008 26.8453 20.152L26.9893 17.032H31.4773C32.3413 17.032 33.3013 16.648 33.3013 15.568C33.3013 14.464 32.3413 14.056 31.4773 14.056H25.6933C24.8053 14.056 23.8933 14.656 23.8693 15.664L23.6293 22.288C23.6053 23.248 24.3493 23.92 25.3093 23.92C26.0773 23.92 27.0373 23.176 27.0373 23.176C27.4453 22.96 27.8293 22.864 28.3573 22.864C29.6533 22.864 30.6613 23.68 30.6613 25.456C30.6613 26.872 30.0133 28.288 27.8773 28.288C26.2693 28.288 25.5973 27.4 24.6613 27.4C23.7493 27.4 23.0533 28.096 23.0533 28.888C23.0533 30.88 27.3013 31.192 28.4293 31.192C32.3653 31.192 33.9973 28.144 33.9973 25.36Z" fill="#1D2E5B"/>
</svg>
