<svg width="46" height="47" viewBox="0 0 46 47" fill="none" xmlns="http://www.w3.org/2000/svg">
<path d="M21.9283 1.60522C27.6304 1.60522 33.099 3.8704 37.131 7.90243C41.1631 11.9345 43.4283 17.4031 43.4283 23.1052C43.4283 28.8074 41.1631 34.276 37.1311 38.308C33.099 42.34 27.6304 44.6052 21.9283 44.6052" stroke="#FF8D30" stroke-width="3" stroke-linecap="round"/>
<path d="M22.3805 26.9652C22.3805 28.5332 21.9085 29.9012 20.9645 31.0692C20.0205 32.2212 18.6365 32.7972 16.8125 32.7972C16.4285 32.7972 15.9805 32.7652 15.4685 32.7012C14.9565 32.6532 14.3725 32.5572 13.7165 32.4132C13.0765 32.2532 12.5325 32.0132 12.0845 31.6932C11.6525 31.3572 11.4365 30.9572 11.4365 30.4932C11.4365 30.0932 11.5885 29.7492 11.8925 29.4612C12.2125 29.1572 12.5965 29.0052 13.0445 29.0052C13.3005 29.0052 13.7485 29.1572 14.3885 29.4612C15.0445 29.7492 15.6685 29.8932 16.2605 29.8932C17.2525 29.8932 17.9645 29.6292 18.3965 29.1012C18.8285 28.5572 19.0445 27.8772 19.0445 27.0612C19.0445 26.2132 18.8285 25.5732 18.3965 25.1412C17.9805 24.6932 17.4285 24.4692 16.7405 24.4692C16.2605 24.4692 15.8205 24.5732 15.4205 24.7812C14.7805 25.2772 14.2045 25.5252 13.6925 25.5252C13.2125 25.5252 12.8045 25.3732 12.4685 25.0692C12.1485 24.7652 11.9965 24.3732 12.0125 23.8932L12.2525 17.2692C12.2685 16.7892 12.4525 16.4052 12.8045 16.1172C13.1725 15.8132 13.5965 15.6612 14.0765 15.6612H19.8605C20.3565 15.6612 20.7805 15.7892 21.1325 16.0452C21.5005 16.2852 21.6845 16.6612 21.6845 17.1732C21.6845 17.6692 21.5005 18.0372 21.1325 18.2772C20.7805 18.5172 20.3565 18.6372 19.8605 18.6372H15.3725L15.2285 21.7572C15.6605 21.6292 16.1805 21.5652 16.7885 21.5652C18.4525 21.5652 19.7965 22.0532 20.8205 23.0292C21.8605 23.9892 22.3805 25.3012 22.3805 26.9652ZM32.0774 20.7972C32.0774 19.0532 31.3414 18.1812 29.8694 18.1812C28.3974 18.1812 27.6614 19.0532 27.6614 20.7972V27.5652C27.6614 28.2692 27.8534 28.8292 28.2374 29.2452C28.6214 29.6612 29.1654 29.8692 29.8694 29.8692C30.5734 29.8692 31.1174 29.6612 31.5014 29.2452C31.8854 28.8292 32.0774 28.2692 32.0774 27.5652V20.7972ZM25.7174 16.8612C26.6454 15.7892 28.0294 15.2532 29.8694 15.2532C31.7094 15.2532 33.0934 15.7892 34.0214 16.8612C34.9494 17.9172 35.4134 19.2852 35.4134 20.9652V27.5652C35.4134 29.0852 34.9174 30.3412 33.9254 31.3332C32.9494 32.3252 31.5974 32.8212 29.8694 32.8212C28.1414 32.8212 26.7814 32.3252 25.7894 31.3332C24.8134 30.3412 24.3254 29.0852 24.3254 27.5652V20.9652C24.3254 19.2852 24.7894 17.9172 25.7174 16.8612Z" fill="#1d2e5b"/>
</svg>
