<svg width="46" height="45" viewBox="0 0 46 45" fill="none" xmlns="http://www.w3.org/2000/svg">
<path d="M23.5144 1.50818C27.9498 1.63199 32.232 3.15753 35.7466 5.86592C39.2613 8.57431 41.8277 12.3264 43.0778 16.5838C44.3278 20.8412 44.1972 25.3851 42.7047 29.5637C41.2122 33.7423 38.4345 37.3407 34.7702 39.8428C31.1058 42.3449 26.743 43.6219 22.3078 43.4908C17.8726 43.3597 13.593 41.8271 10.0828 39.113C6.57259 36.3988 4.01232 32.6425 2.76927 28.3831C1.52623 24.1236 1.6643 19.5799 3.16367 15.4038" stroke="#FF8D30" stroke-width="3" stroke-linecap="round"/>
<path d="M22.9324 25.7971C22.9324 27.3011 22.3644 28.5411 21.2284 29.5171C20.1084 30.4931 18.6684 30.9811 16.9084 30.9811C15.1644 30.9811 13.7164 30.5011 12.5644 29.5411C11.4284 28.5811 10.8604 27.3651 10.8604 25.8931C10.8604 24.2131 11.6524 22.8611 13.2364 21.8371C12.0524 20.9411 11.4604 19.7731 11.4604 18.3331C11.4604 16.9091 11.9804 15.7731 13.0204 14.9251C14.0604 14.0771 15.3484 13.6531 16.8844 13.6531C18.4204 13.6531 19.7084 14.0851 20.7484 14.9491C21.7884 15.7971 22.3084 16.8931 22.3084 18.2371C22.3084 19.6131 21.7164 20.7571 20.5324 21.6691C22.1324 22.7251 22.9324 24.1011 22.9324 25.7971ZM19.0204 18.3091C19.0204 17.7971 18.8124 17.3731 18.3964 17.0371C17.9964 16.7011 17.5004 16.5331 16.9084 16.5331C16.3004 16.5331 15.7884 16.7011 15.3724 17.0371C14.9724 17.3731 14.7724 17.7971 14.7724 18.3091C14.7724 18.8371 14.9804 19.2851 15.3964 19.6531C15.8124 20.0051 16.3324 20.2451 16.9564 20.3731C17.5644 20.2291 18.0604 19.9731 18.4444 19.6051C18.8284 19.2371 19.0204 18.8051 19.0204 18.3091ZM19.5964 25.7971C19.5964 25.1571 19.3324 24.6291 18.8044 24.2131C18.2924 23.7811 17.6364 23.4771 16.8364 23.3011C16.0524 23.4611 15.4124 23.7651 14.9164 24.2131C14.4364 24.6451 14.1964 25.1731 14.1964 25.7971C14.1964 26.4371 14.4524 26.9731 14.9644 27.4051C15.4924 27.8371 16.1404 28.0531 16.9084 28.0531C17.6764 28.0531 18.3164 27.8371 18.8284 27.4051C19.3404 26.9571 19.5964 26.4211 19.5964 25.7971ZM32.0773 18.9571C32.0773 17.2131 31.3413 16.3411 29.8693 16.3411C28.3973 16.3411 27.6613 17.2131 27.6613 18.9571V25.7251C27.6613 26.4291 27.8533 26.9891 28.2373 27.4051C28.6213 27.8211 29.1653 28.0291 29.8693 28.0291C30.5733 28.0291 31.1173 27.8211 31.5013 27.4051C31.8853 26.9891 32.0773 26.4291 32.0773 25.7251V18.9571ZM25.7173 15.0211C26.6453 13.9491 28.0293 13.4131 29.8693 13.4131C31.7093 13.4131 33.0933 13.9491 34.0213 15.0211C34.9493 16.0771 35.4133 17.4451 35.4133 19.1251V25.7251C35.4133 27.2451 34.9173 28.5011 33.9253 29.4931C32.9493 30.4851 31.5973 30.9811 29.8693 30.9811C28.1413 30.9811 26.7813 30.4851 25.7893 29.4931C24.8133 28.5011 24.3253 27.2451 24.3253 25.7251V19.1251C24.3253 17.4451 24.7893 16.0771 25.7173 15.0211Z" fill="#1D2E5B"/>
</svg>
