<svg width="64" height="64" viewBox="0 0 64 64" fill="none" xmlns="http://www.w3.org/2000/svg">
<path d="M27.436 2.3492C19.7903 3.52607 12.8947 7.61087 8.18897 13.7508C3.48324 19.8906 1.33115 27.611 2.18203 35.2998C3.03291 42.9886 6.82098 50.0516 12.7553 55.014C18.6897 59.9764 26.3116 62.4546 34.0296 61.9313C41.7477 61.4079 48.9652 57.9234 54.1753 52.2053C59.3854 46.4872 62.1854 38.9775 61.9905 31.2442C61.7956 23.5109 58.621 16.1518 53.1295 10.7034C47.6379 5.25497 40.254 2.13844 32.5194 2.0045" stroke="#FF8D30" stroke-width="3" stroke-linecap="round"/>
<path d="M25.9042 31.312C24.7762 31.288 24.0802 30.856 23.2882 30.856C22.2802 30.856 21.7042 31.6 21.8002 32.344C21.9922 34.024 25.2082 34.216 26.1922 34.216C30.2722 34.216 32.2162 30.952 32.2162 25.12C32.2162 20.344 30.9202 16.864 26.4802 16.864C22.6162 16.864 20.7442 19.48 20.7442 22.6C20.7442 26.248 23.2642 28.072 26.1922 28.072C27.0802 28.072 27.8722 27.904 28.7842 27.352C28.6162 29.608 28.1842 31.36 25.9042 31.312ZM28.8562 24.256C28.3042 24.76 27.3682 25.072 26.4322 25.072C24.9682 25.072 24.0802 24.28 24.0802 22.576C24.0802 21.184 24.6562 19.912 26.3602 19.912C28.4242 19.912 28.8562 21.856 28.8562 23.968V24.256ZM38.8652 31.312C37.7372 31.288 37.0412 30.856 36.2492 30.856C35.2412 30.856 34.6652 31.6 34.7612 32.344C34.9532 34.024 38.1692 34.216 39.1532 34.216C43.2332 34.216 45.1772 30.952 45.1772 25.12C45.1772 20.344 43.8812 16.864 39.4412 16.864C35.5772 16.864 33.7052 19.48 33.7052 22.6C33.7052 26.248 36.2252 28.072 39.1532 28.072C40.0412 28.072 40.8332 27.904 41.7452 27.352C41.5772 29.608 41.1452 31.36 38.8652 31.312ZM41.8172 24.256C41.2652 24.76 40.3292 25.072 39.3932 25.072C37.9292 25.072 37.0412 24.28 37.0412 22.576C37.0412 21.184 37.6172 19.912 39.3212 19.912C41.3852 19.912 41.8172 21.856 41.8172 23.968V24.256Z" fill="#1D2E5B"/>
<line opacity="0.1" x1="17" y1="38.5" x2="48" y2="38.5" stroke="black"/>
<path opacity="0.4" d="M21.0362 50.684C21.0362 51.944 21.5682 52.112 21.9182 52.112C22.1982 52.112 22.4222 51.888 22.4222 51.608C22.4222 51.496 22.3662 51.398 22.3242 51.342C22.1562 51.174 22.1282 50.992 22.1282 50.684V42.396C22.1282 42.088 21.8902 41.85 21.5822 41.85C21.2742 41.85 21.0362 42.102 21.0362 42.396V50.684ZM26.4338 51.146C25.4258 51.146 24.9078 50.642 24.9078 49.858V49.032C25.3978 49.116 25.9158 49.158 26.3358 49.158C28.0018 49.158 28.7018 48.374 28.7018 47.086C28.7018 45.7 27.9318 44.804 26.3778 44.804C24.7118 44.804 23.8158 45.826 23.8158 47.17V49.788C23.8158 51.104 24.7258 52.112 26.3078 52.112C27.0638 52.112 28.5758 51.888 28.5758 51.202C28.5758 50.95 28.3658 50.712 28.0858 50.712C27.9878 50.712 27.9178 50.74 27.8898 50.754C27.3998 50.978 27.0218 51.146 26.4338 51.146ZM27.6238 47.086C27.6238 47.66 27.4418 48.234 26.3778 48.234C26.0978 48.234 25.4258 48.206 24.9078 48.136V47.072C24.9078 46.288 25.4398 45.798 26.3498 45.798C27.1618 45.798 27.6238 46.176 27.6238 47.086ZM34.9258 45.532C35.0238 45.168 34.7438 44.846 34.4078 44.846C34.1978 44.846 33.9878 45 33.9178 45.21L32.3078 50.488L30.6698 45.21C30.5858 44.972 30.3898 44.846 30.1798 44.846C29.8578 44.846 29.5358 45.154 29.6478 45.49L31.5938 51.468C31.7478 51.916 31.9298 52.112 32.3078 52.112C32.6718 52.112 32.8678 51.916 33.0218 51.454L34.9258 45.532ZM38.4787 51.146C37.4707 51.146 36.9527 50.642 36.9527 49.858V49.032C37.4427 49.116 37.9607 49.158 38.3807 49.158C40.0467 49.158 40.7467 48.374 40.7467 47.086C40.7467 45.7 39.9767 44.804 38.4227 44.804C36.7567 44.804 35.8607 45.826 35.8607 47.17V49.788C35.8607 51.104 36.7707 52.112 38.3527 52.112C39.1087 52.112 40.6207 51.888 40.6207 51.202C40.6207 50.95 40.4107 50.712 40.1307 50.712C40.0327 50.712 39.9627 50.74 39.9347 50.754C39.4447 50.978 39.0667 51.146 38.4787 51.146ZM39.6687 47.086C39.6687 47.66 39.4867 48.234 38.4227 48.234C38.1427 48.234 37.4707 48.206 36.9527 48.136V47.072C36.9527 46.288 37.4847 45.798 38.3947 45.798C39.2067 45.798 39.6687 46.176 39.6687 47.086ZM42.1593 50.684C42.1593 51.944 42.6913 52.112 43.0413 52.112C43.3213 52.112 43.5453 51.888 43.5453 51.608C43.5453 51.496 43.4893 51.398 43.4473 51.342C43.2793 51.174 43.2513 50.992 43.2513 50.684V42.396C43.2513 42.088 43.0133 41.85 42.7053 41.85C42.3973 41.85 42.1593 42.102 42.1593 42.396V50.684Z" fill="black"/>
</svg>
