<svg width="46" height="45" viewBox="0 0 46 45" fill="none" xmlns="http://www.w3.org/2000/svg">
<path d="M23.5454 1.52201C28.9393 1.76918 34.0308 4.08455 37.7624 7.98727C41.494 11.89 43.5789 17.0801 43.5841 22.4797C43.5893 27.8793 41.5145 33.0735 37.7904 36.9834C34.0664 40.8933 28.9794 43.2185 23.5859 43.4761C18.1924 43.7337 12.907 41.9038 8.82729 38.3666C4.74759 34.8294 2.18716 29.8566 1.67778 24.4811C1.16839 19.1056 2.74919 13.7404 6.09186 9.49979C9.43454 5.25923 14.2822 2.46918 19.6281 1.7091" stroke="#FF8D30" stroke-width="3" stroke-linecap="round"/>
<path d="M14.9884 28.312C16.0284 28.328 16.7404 28.008 17.1244 27.352C17.5244 26.68 17.7724 25.68 17.8684 24.352C17.0684 24.832 16.2044 25.072 15.2764 25.072C13.7244 25.072 12.4284 24.6 11.3884 23.656C10.3484 22.696 9.82837 21.344 9.82837 19.6C9.82837 17.952 10.3244 16.584 11.3164 15.496C12.3084 14.408 13.7244 13.864 15.5644 13.864C16.6364 13.864 17.5564 14.064 18.3244 14.464C19.0924 14.864 19.6844 15.448 20.1004 16.216C20.5324 16.984 20.8364 17.848 21.0124 18.808C21.2044 19.768 21.3004 20.872 21.3004 22.12C21.3004 25.08 20.7964 27.336 19.7884 28.888C18.7964 30.44 17.2924 31.216 15.2764 31.216C14.9404 31.216 14.5724 31.192 14.1724 31.144C13.7884 31.112 13.3324 31.04 12.8044 30.928C12.2924 30.8 11.8524 30.6 11.4844 30.328C11.1324 30.056 10.9324 29.728 10.8844 29.344C10.8364 28.96 10.9484 28.616 11.2204 28.312C11.5084 28.008 11.8924 27.856 12.3724 27.856C12.6124 27.856 13.0044 27.928 13.5484 28.072C14.1084 28.216 14.5884 28.296 14.9884 28.312ZM17.9404 21.256V20.968C17.9404 18.264 17.1084 16.912 15.4444 16.912C14.6444 16.912 14.0604 17.168 13.6924 17.68C13.3404 18.176 13.1644 18.808 13.1644 19.576C13.1644 21.24 13.9484 22.072 15.5164 22.072C16.5404 22.072 17.3484 21.8 17.9404 21.256ZM27.9493 28.312C28.9893 28.328 29.7013 28.008 30.0853 27.352C30.4853 26.68 30.7333 25.68 30.8293 24.352C30.0293 24.832 29.1653 25.072 28.2373 25.072C26.6853 25.072 25.3893 24.6 24.3493 23.656C23.3093 22.696 22.7893 21.344 22.7893 19.6C22.7893 17.952 23.2853 16.584 24.2773 15.496C25.2693 14.408 26.6853 13.864 28.5253 13.864C29.5973 13.864 30.5173 14.064 31.2853 14.464C32.0533 14.864 32.6453 15.448 33.0613 16.216C33.4933 16.984 33.7973 17.848 33.9733 18.808C34.1653 19.768 34.2613 20.872 34.2613 22.12C34.2613 25.08 33.7573 27.336 32.7493 28.888C31.7573 30.44 30.2533 31.216 28.2373 31.216C27.9013 31.216 27.5333 31.192 27.1333 31.144C26.7493 31.112 26.2933 31.04 25.7653 30.928C25.2533 30.8 24.8133 30.6 24.4453 30.328C24.0933 30.056 23.8933 29.728 23.8453 29.344C23.7973 28.96 23.9093 28.616 24.1813 28.312C24.4693 28.008 24.8533 27.856 25.3333 27.856C25.5733 27.856 25.9653 27.928 26.5093 28.072C27.0693 28.216 27.5493 28.296 27.9493 28.312ZM30.9013 21.256V20.968C30.9013 18.264 30.0693 16.912 28.4053 16.912C27.6053 16.912 27.0213 17.168 26.6533 17.68C26.3013 18.176 26.1253 18.808 26.1253 19.576C26.1253 21.24 26.9093 22.072 28.4773 22.072C29.5013 22.072 30.3093 21.8 30.9013 21.256Z" fill="#1D2E5B"/>
</svg>
