<svg width="15" height="16" viewBox="0 0 15 16" fill="none" xmlns="http://www.w3.org/2000/svg">
<g clip-path="url(#clip0_86_5101)">
<path d="M11.5954 0.801848C11.1024 0.93453 10.6072 1.06784 10.4197 1.41701L8.96432 4.48876L1.30834 6.54938L0.988319 7.52886L6.82389 8.04362L5.80369 10.6995L3.58188 11.2975L3.01422 12.3437L4.61054 12.5087L4.78348 13.3555C4.86183 13.6554 5.14624 13.8524 5.39156 13.7864L6.13216 13.5871L6.97101 15.148L7.53867 14.1019L7.01984 11.5615L8.64813 9.33652L11.6454 15.0819L12.2709 14.319L10.4836 5.56782L12.2444 2.71256C12.4343 2.36276 12.3191 1.79911 12.2035 1.23282C12.1462 0.952315 11.8407 0.735819 11.5954 0.801848Z" fill="#1D2E5B"/>
</g>
<defs>
<clipPath id="clip0_86_5101">
<rect width="14" height="16" fill="white" transform="translate(0.249969)"/>
</clipPath>
</defs>
</svg>
