<svg width="15" height="17" viewBox="0 0 15 17" fill="none" xmlns="http://www.w3.org/2000/svg">
<path opacity="0.15" d="M11.208 14.875C10.6941 14.875 10.1918 14.6958 9.76449 14.3602C9.3372 14.0245 9.00417 13.5475 8.80751 12.9893C8.61085 12.4311 8.5594 11.8169 8.65965 11.2244C8.75991 10.6318 9.00737 10.0875 9.37075 9.66032C9.73413 9.23312 10.1971 8.94219 10.7011 8.82432C11.2051 8.70646 11.7276 8.76695 12.2024 8.99815C12.6771 9.22935 13.0829 9.62088 13.3684 10.1232C13.6539 10.6256 13.8063 11.2162 13.8063 11.8203C13.8056 12.6302 13.5316 13.4067 13.0445 13.9793C12.5574 14.552 11.8969 14.8741 11.208 14.875ZM11.208 9.82813C10.8729 9.82813 10.5453 9.94497 10.2666 10.1639C9.98792 10.3828 9.77073 10.6939 9.64247 11.0579C9.51422 11.422 9.48066 11.8225 9.54604 12.209C9.61143 12.5954 9.77282 12.9504 10.0098 13.229C10.2468 13.5076 10.5487 13.6974 10.8774 13.7742C11.2061 13.8511 11.5469 13.8116 11.8565 13.6609C12.1661 13.5101 12.4308 13.2547 12.617 12.9271C12.8032 12.5995 12.9026 12.2143 12.9026 11.8203C12.9021 11.2921 12.7234 10.7858 12.4057 10.4123C12.088 10.0388 11.6573 9.82874 11.208 9.82813Z" fill="#1d2e5b"/>
<path opacity="0.15" d="M3.75204 14.875C3.23814 14.875 2.73579 14.6958 2.3085 14.3602C1.88121 14.0245 1.54818 13.5475 1.35152 12.9893C1.15486 12.4311 1.1034 11.8169 1.20366 11.2244C1.30392 10.6318 1.55138 10.0875 1.91476 9.66032C2.27814 9.23312 2.74111 8.94219 3.24513 8.82432C3.74915 8.70646 4.27159 8.76695 4.74636 8.99815C5.22114 9.22935 5.62694 9.62088 5.91245 10.1232C6.19795 10.6256 6.35034 11.2162 6.35034 11.8203C6.34959 12.6302 6.0756 13.4067 5.58849 13.9793C5.10137 14.552 4.44092 14.8741 3.75204 14.875ZM3.75204 9.82813C3.41689 9.82813 3.08926 9.94497 2.8106 10.1639C2.53193 10.3828 2.31474 10.6939 2.18648 11.0579C2.05822 11.422 2.02467 11.8225 2.09005 12.209C2.15544 12.5954 2.31683 12.9504 2.55381 13.229C2.7908 13.5076 3.09274 13.6974 3.42145 13.7742C3.75016 13.8511 4.09087 13.8116 4.40051 13.6609C4.71015 13.5101 4.9748 13.2547 5.161 12.9271C5.3472 12.5995 5.44658 12.2143 5.44658 11.8203C5.44606 11.2921 5.26736 10.7858 4.94968 10.4123C4.63201 10.0388 4.2013 9.82874 3.75204 9.82813Z" fill="#1d2e5b"/>
<path opacity="0.15" d="M9.28758 4.25003C9.40662 4.25052 9.52455 4.22326 9.63457 4.16983C9.74459 4.11639 9.84451 4.03785 9.92855 3.93874C10.0126 3.83963 10.0791 3.72192 10.1242 3.59241C10.1693 3.46289 10.1921 3.32416 10.1913 3.18421C10.1927 3.04497 10.1703 2.90681 10.1257 2.77783C10.0811 2.64884 10.015 2.53161 9.9314 2.43299C9.84778 2.33437 9.74827 2.25634 9.63869 2.20346C9.52911 2.15058 9.41167 2.12392 9.29323 2.12503C9.17455 2.1246 9.05695 2.15165 8.94716 2.20464C8.83737 2.25763 8.73753 2.33553 8.65335 2.43388C8.56916 2.53224 8.50228 2.64912 8.45652 2.77786C8.41076 2.90661 8.38702 3.04468 8.38665 3.18421C8.38628 3.32374 8.40928 3.46199 8.45436 3.59107C8.49944 3.72014 8.5657 3.83752 8.64935 3.93649C8.73301 4.03546 8.83243 4.11409 8.94194 4.16788C9.05145 4.22168 9.1689 4.2496 9.28758 4.25003Z" fill="#1d2e5b"/>
<path opacity="0.15" d="M10.6305 6.37507H9.3946C9.37433 6.37508 9.35443 6.36867 9.33698 6.35652C9.31954 6.34437 9.3052 6.32692 9.29547 6.30601L8.39906 4.37459C8.3359 4.23105 8.24488 4.10702 8.13336 4.01253C8.02185 3.91804 7.89298 3.85574 7.75719 3.83068C7.62139 3.80563 7.48248 3.81852 7.35171 3.8683C7.22094 3.91809 7.10197 4.00338 7.00445 4.11726L5.03143 6.45476C4.86567 6.65366 4.77159 6.92008 4.76878 7.19851C4.76878 7.77625 5.12463 7.98211 5.29126 8.09832C6.09617 8.64351 6.663 9.04228 6.97394 9.26375C6.99048 9.27558 7.00414 9.2922 7.01364 9.31203C7.02313 9.33186 7.02814 9.35422 7.02817 9.37697V11.672C7.02817 11.9578 7.21513 12.2032 7.4583 12.2175C7.51935 12.221 7.58037 12.2098 7.63765 12.1848C7.69493 12.1597 7.7473 12.1212 7.79157 12.0717C7.83585 12.0222 7.87112 11.9626 7.89524 11.8965C7.91936 11.8305 7.93185 11.7594 7.93193 11.6876V8.83211C7.93197 8.74777 7.91493 8.66464 7.88222 8.58958C7.84951 8.51452 7.80208 8.4497 7.74383 8.40047L6.69886 7.51693C6.68575 7.5059 6.67479 7.49169 6.66673 7.47526C6.65868 7.45884 6.65371 7.44057 6.65216 7.4217C6.6506 7.40282 6.65251 7.38378 6.65774 7.36584C6.66297 7.34791 6.67141 7.33149 6.68248 7.31771L7.86866 5.83054C7.88083 5.81524 7.89589 5.80354 7.91264 5.79639C7.92938 5.78924 7.94732 5.78685 7.965 5.78941C7.98268 5.79196 7.9996 5.7994 8.01436 5.81111C8.02913 5.82282 8.04134 5.83846 8.04998 5.85677L8.66623 7.16431C8.7054 7.2472 8.76272 7.31625 8.83225 7.3643C8.90177 7.41235 8.98097 7.43765 9.06162 7.43757H10.6432C10.7044 7.43766 10.765 7.42312 10.8213 7.39484C10.8776 7.36655 10.9284 7.32512 10.9707 7.27305C11.0129 7.22098 11.0457 7.15935 11.0671 7.09192C11.0885 7.02448 11.098 6.95264 11.0951 6.88076C11.0832 6.59488 10.8737 6.37507 10.6305 6.37507Z" fill="#1d2e5b"/>
</svg>
