<svg width="14" height="16" viewBox="0 0 14 16" fill="none" xmlns="http://www.w3.org/2000/svg">
<g clip-path="url(#clip0_86_5104)">
<path d="M3.50147 10.8571C3.50147 10.5417 3.39572 10.2723 3.18422 10.0491C2.97272 9.82589 2.71751 9.71429 2.41859 9.71429C2.11967 9.71429 1.86446 9.82589 1.65296 10.0491C1.44146 10.2723 1.33571 10.5417 1.33571 10.8571C1.33571 11.1726 1.44146 11.442 1.65296 11.6652C1.86446 11.8884 2.11967 12 2.41859 12C2.71751 12 2.97272 11.8884 3.18422 11.6652C3.39572 11.442 3.50147 11.1726 3.50147 10.8571ZM12.1645 10.8571C12.1645 10.5417 12.0588 10.2723 11.8473 10.0491C11.6358 9.82589 11.3806 9.71429 11.0816 9.71429C10.7827 9.71429 10.5275 9.82589 10.316 10.0491C10.1045 10.2723 9.99876 10.5417 9.99876 10.8571C9.99876 11.1726 10.1045 11.442 10.316 11.6652C10.5275 11.8884 10.7827 12 11.0816 12C11.3806 12 11.6358 11.8884 11.8473 11.6652C12.0588 11.442 12.1645 11.1726 12.1645 10.8571ZM11.7754 7.32143L11.1662 3.89286C11.138 3.75595 11.0746 3.64435 10.9759 3.55804C10.8772 3.47173 10.763 3.42857 10.6333 3.42857H2.86697C2.73725 3.42857 2.62304 3.47173 2.52434 3.55804C2.42564 3.64435 2.36219 3.75595 2.33399 3.89286L1.72487 7.32143C1.69667 7.5 1.73615 7.65774 1.84331 7.79464C1.95047 7.93155 2.08865 8 2.25785 8H11.2424C11.4116 8 11.5498 7.93155 11.6569 7.79464C11.7641 7.65774 11.8036 7.5 11.7754 7.32143ZM9.8634 1.85714C9.8634 1.7381 9.82392 1.6369 9.74496 1.55357C9.666 1.47024 9.57012 1.42857 9.45732 1.42857H4.04291C3.93011 1.42857 3.83423 1.47024 3.75527 1.55357C3.67631 1.6369 3.63683 1.7381 3.63683 1.85714C3.63683 1.97619 3.67631 2.07738 3.75527 2.16071C3.83423 2.24405 3.93011 2.28571 4.04291 2.28571H9.45732C9.57012 2.28571 9.666 2.24405 9.74496 2.16071C9.82392 2.07738 9.8634 1.97619 9.8634 1.85714ZM13.2474 8.33036V13.7143H12.1645V14.8571C12.1645 15.1726 12.0588 15.442 11.8473 15.6652C11.6358 15.8884 11.3806 16 11.0816 16C10.7827 16 10.5275 15.8884 10.316 15.6652C10.1045 15.442 9.99876 15.1726 9.99876 14.8571V13.7143H3.50147V14.8571C3.50147 15.1726 3.39572 15.442 3.18422 15.6652C2.97272 15.8884 2.71751 16 2.41859 16C2.11967 16 1.86446 15.8884 1.65296 15.6652C1.44146 15.442 1.33571 15.1726 1.33571 14.8571V13.7143H0.252823V8.33036C0.252823 7.66369 0.323323 7 0.464323 6.33929L1.33571 2.28571C1.38647 1.82143 1.66142 1.41369 2.16056 1.0625C2.6597 0.71131 3.3083 0.446429 4.10636 0.267857C4.90442 0.0892857 5.78568 0 6.75012 0C7.71456 0 8.59581 0.0892857 9.39387 0.267857C10.1919 0.446429 10.8405 0.71131 11.3397 1.0625C11.8388 1.41369 12.1138 1.82143 12.1645 2.28571L13.0528 6.33929C13.1826 6.94643 13.2474 7.61012 13.2474 8.33036Z" fill="#1D2E5B"/>
</g>
<defs>
<clipPath id="clip0_86_5104">
<rect width="13" height="16" fill="white" transform="translate(0.249969)"/>
</clipPath>
</defs>
</svg>
