<svg width="14" height="17" viewBox="0 0 14 17" fill="none" xmlns="http://www.w3.org/2000/svg">
<g clip-path="url(#clip0_20917_1864)">
<path opacity="0.15" d="M4.24869 10.8571C4.24869 10.5417 4.14294 10.2723 3.93143 10.0491C3.71993 9.82589 3.46472 9.71429 3.1658 9.71429C2.86688 9.71429 2.61167 9.82589 2.40017 10.0491C2.18867 10.2723 2.08292 10.5417 2.08292 10.8571C2.08292 11.1726 2.18867 11.442 2.40017 11.6652C2.61167 11.8884 2.86688 12 3.1658 12C3.46472 12 3.71993 11.8884 3.93143 11.6652C4.14294 11.442 4.24869 11.1726 4.24869 10.8571ZM12.9117 10.8571C12.9117 10.5417 12.806 10.2723 12.5945 10.0491C12.383 9.82589 12.1278 9.71429 11.8289 9.71429C11.5299 9.71429 11.2747 9.82589 11.0632 10.0491C10.8517 10.2723 10.746 10.5417 10.746 10.8571C10.746 11.1726 10.8517 11.442 11.0632 11.6652C11.2747 11.8884 11.5299 12 11.8289 12C12.1278 12 12.383 11.8884 12.5945 11.6652C12.806 11.442 12.9117 11.1726 12.9117 10.8571ZM12.5226 7.32143L11.9135 3.89286C11.8853 3.75595 11.8218 3.64435 11.7231 3.55804C11.6244 3.47173 11.5102 3.42857 11.3805 3.42857H3.61418C3.48446 3.42857 3.37025 3.47173 3.27155 3.55804C3.17285 3.64435 3.1094 3.75595 3.0812 3.89286L2.47208 7.32143C2.44388 7.5 2.48336 7.65774 2.59052 7.79464C2.69768 7.93155 2.83586 8 3.00506 8H11.9896C12.1588 8 12.297 7.93155 12.4041 7.79464C12.5113 7.65774 12.5508 7.5 12.5226 7.32143ZM10.6106 1.85714C10.6106 1.7381 10.5711 1.6369 10.4922 1.55357C10.4132 1.47024 10.3173 1.42857 10.2045 1.42857H4.79013C4.67733 1.42857 4.58145 1.47024 4.50249 1.55357C4.42353 1.6369 4.38405 1.7381 4.38405 1.85714C4.38405 1.97619 4.42353 2.07738 4.50249 2.16071C4.58145 2.24405 4.67733 2.28571 4.79013 2.28571H10.2045C10.3173 2.28571 10.4132 2.24405 10.4922 2.16071C10.5711 2.07738 10.6106 1.97619 10.6106 1.85714ZM13.9946 8.33036V13.7143H12.9117V14.8571C12.9117 15.1726 12.806 15.442 12.5945 15.6652C12.383 15.8884 12.1278 16 11.8289 16C11.5299 16 11.2747 15.8884 11.0632 15.6652C10.8517 15.442 10.746 15.1726 10.746 14.8571V13.7143H4.24869V14.8571C4.24869 15.1726 4.14294 15.442 3.93143 15.6652C3.71993 15.8884 3.46472 16 3.1658 16C2.86688 16 2.61167 15.8884 2.40017 15.6652C2.18867 15.442 2.08292 15.1726 2.08292 14.8571V13.7143H1.00004V8.33036C1.00004 7.66369 1.07054 7 1.21154 6.33929L2.08292 2.28571C2.13368 1.82143 2.40863 1.41369 2.90777 1.0625C3.40691 0.71131 4.05551 0.446429 4.85358 0.267857C5.65164 0.0892857 6.53289 0 7.49733 0C8.46177 0 9.34303 0.0892857 10.1411 0.267857C10.9391 0.446429 11.5878 0.71131 12.0869 1.0625C12.586 1.41369 12.861 1.82143 12.9117 2.28571L13.8 6.33929C13.9298 6.94643 13.9946 7.61012 13.9946 8.33036Z" fill="#1d2e5b"/>
</g>
<defs>
<clipPath id="clip0_20917_1864">
<rect width="13" height="16" fill="white" transform="translate(0.662224 0.352295)"/>
</clipPath>
</defs>
</svg>
