<svg width="31" height="31" viewBox="0 0 31 31" fill="none" xmlns="http://www.w3.org/2000/svg">
<ellipse cx="15.3192" cy="15.3561" rx="15.3192" ry="15.3561" fill="#F9EAEA"/>
<g clip-path="url(#clip0_63_105)">
<path d="M12.2553 9.98145C13.9481 9.98145 15.3192 11.3289 15.3192 12.9912C15.3192 11.3289 16.6902 9.98145 18.383 9.98145C20.0758 9.98145 21.4468 11.3289 21.4468 12.9912C21.4468 15.4966 18.9697 16.3803 15.6194 20.3683C15.5825 20.4121 15.5366 20.4473 15.4847 20.4714C15.4328 20.4956 15.3763 20.5081 15.3192 20.5081C15.262 20.5081 15.2055 20.4956 15.1536 20.4714C15.1018 20.4473 15.0558 20.4121 15.0189 20.3683C11.6686 16.3803 9.1915 15.4966 9.1915 12.9912C9.1915 11.3289 10.5626 9.98145 12.2553 9.98145Z" fill="#F02323"/>
</g>
<defs>
<clipPath id="clip0_63_105">
<rect width="12.2553" height="12.2849" fill="white" transform="translate(9.1915 9.21362)"/>
</clipPath>
</defs>
</svg>
