<svg width="46" height="45" fill="none" xmlns="http://www.w3.org/2000/svg"><path d="M22.584 1.5a21 21 0 0 1 21 21" stroke="#FF8D30" stroke-width="3" stroke-linecap="round"/><path d="M21.18 29.488c0-.84-.72-1.488-1.656-1.488h-5.352c1.296-1.776 3.408-3.264 5.016-4.944 1.104-1.152 1.896-2.496 1.896-4.536 0-2.712-2.04-4.872-5.544-4.872-1.944 0-5.376.744-5.376 2.496 0 .888.816 1.464 1.632 1.464.696 0 1.176-.432 1.704-.648.576-.24 1.2-.384 2.016-.384 1.488 0 2.256.96 2.256 2.184 0 1.776-1.92 3.144-3.24 4.344-1.704 1.536-3.456 3.072-4.416 5.184-.168.36-.192.792-.192 1.128 0 .888.696 1.584 1.704 1.584h7.896c.936 0 1.656-.672 1.656-1.512Zm12.817-4.128c0-3.384-2.304-5.4-5.592-5.4-.528 0-1.08.048-1.56.192l.144-3.12h4.488c.864 0 1.824-.384 1.824-1.464 0-1.104-.96-1.512-1.824-1.512h-5.784c-.888 0-1.8.6-1.824 1.608l-.24 6.624c-.024.96.72 1.632 1.68 1.632.768 0 1.728-.744 1.728-.744.408-.216.792-.312 1.32-.312 1.296 0 2.304.816 2.304 2.592 0 1.416-.648 2.832-2.784 2.832-1.608 0-2.28-.888-3.216-.888-.912 0-1.608.696-1.608 1.488 0 1.992 4.248 2.304 5.376 2.304 3.936 0 5.568-3.048 5.568-5.832Z" fill="#1d2e5b"/></svg>