<svg width="62" height="62" fill="none" xmlns="http://www.w3.org/2000/svg"><path d="M59.801 35.447A30 30 0 0 0 33.446 2.199" stroke="#FF8D30" stroke-width="3" stroke-linecap="round"/><path d="M29.616 31.432c.32.288.48.64.48 1.056 0 .416-.16.776-.48 1.08-.32.288-.712.432-1.176.432h-7.896c-.496 0-.904-.152-1.224-.456-.32-.304-.48-.68-.48-1.128 0-.48.064-.856.192-1.128.304-.656.728-1.32 1.272-1.992.544-.688 1-1.208 1.368-1.56.384-.368.976-.912 1.776-1.632a28.272 28.272 0 0 0 1.752-1.56c.16-.176.392-.44.696-.792.304-.352.512-.688.624-1.008.112-.32.168-.648.168-.984 0-.64-.2-1.16-.6-1.56-.384-.416-.936-.624-1.656-.624-.736 0-1.408.128-2.016.384a5.53 5.53 0 0 0-.504.264 6.732 6.732 0 0 1-.6.288 1.885 1.885 0 0 1-.6.096 1.78 1.78 0 0 1-1.152-.408 1.321 1.321 0 0 1-.48-1.056c0-.784.592-1.392 1.776-1.824 1.2-.448 2.4-.672 3.6-.672 1.696 0 3.04.464 4.032 1.392 1.008.912 1.512 2.072 1.512 3.48 0 1.712-.632 3.224-1.896 4.536-.32.336-1.112 1.072-2.376 2.208-1.264 1.136-2.144 2.048-2.64 2.736h5.352c.464 0 .856.144 1.176.432Zm13.297-3.072c0 1.568-.472 2.936-1.416 4.104-.944 1.152-2.328 1.728-4.152 1.728-.384 0-.832-.032-1.344-.096a14.672 14.672 0 0 1-1.752-.288c-.64-.16-1.184-.4-1.632-.72-.432-.336-.648-.736-.648-1.2 0-.4.152-.744.456-1.032.32-.304.704-.456 1.152-.456.256 0 .704.152 1.344.456.656.288 1.28.432 1.872.432.992 0 1.704-.264 2.136-.792.432-.544.648-1.224.648-2.04 0-.848-.216-1.488-.648-1.92-.416-.448-.968-.672-1.656-.672-.48 0-.92.104-1.32.312-.64.496-1.216.744-1.728.744a1.76 1.76 0 0 1-1.224-.456c-.32-.304-.472-.696-.456-1.176l.24-6.624c.016-.48.2-.864.552-1.152a1.94 1.94 0 0 1 1.272-.456h5.784c.496 0 .92.128 1.272.384.368.24.552.616.552 1.128 0 .496-.184.864-.552 1.104-.352.24-.776.36-1.272.36h-4.488l-.144 3.12c.432-.128.952-.192 1.56-.192 1.664 0 3.008.488 4.032 1.464 1.04.96 1.56 2.272 1.56 3.936Z" fill="#1D2E5B"/><path opacity=".1" stroke="#000" d="M15 38.5h31"/><path opacity=".4" d="M19.036 50.684v-8.288c0-.15.052-.275.154-.378a.537.537 0 0 1 .392-.168c.159 0 .29.056.392.168a.514.514 0 0 1 .154.378v8.288c0 .308.066.527.196.658a.426.426 0 0 1 .098.266c0 .14-.051.261-.154.364a.475.475 0 0 1-.35.14c-.588 0-.882-.476-.882-1.428Zm5.398.462c.401 0 .886-.13 1.456-.392a.433.433 0 0 1 .196-.042c.14 0 .257.051.35.154.093.093.14.205.14.336 0 .308-.252.537-.756.686a5.3 5.3 0 0 1-1.512.224c-.775 0-1.386-.215-1.834-.644-.439-.439-.658-.999-.658-1.68V47.17c0-.7.224-1.27.672-1.708.448-.439 1.078-.658 1.89-.658.756 0 1.33.205 1.722.616.401.401.602.957.602 1.666 0 1.381-.789 2.072-2.366 2.072-.457 0-.933-.042-1.428-.126v.826c0 .401.13.719.392.952.261.224.64.336 1.134.336Zm1.19-4.06c0-.859-.425-1.288-1.274-1.288-.448 0-.803.117-1.064.35-.252.224-.378.532-.378.924v1.064c.485.065.975.098 1.47.098.485 0 .812-.103.98-.308.177-.215.266-.495.266-.84Zm7.302-1.554-1.904 5.922c-.15.439-.388.658-.714.658a.677.677 0 0 1-.448-.14c-.103-.103-.192-.27-.266-.504l-1.946-5.978a.402.402 0 0 1 .098-.434.556.556 0 0 1 .434-.21c.242 0 .406.121.49.364l1.638 5.278 1.61-5.278c.084-.243.247-.364.49-.364.168 0 .308.07.42.21.112.14.144.299.098.476Zm3.553 5.614c.401 0 .886-.13 1.456-.392a.433.433 0 0 1 .196-.042c.14 0 .256.051.35.154.093.093.14.205.14.336 0 .308-.252.537-.756.686a5.3 5.3 0 0 1-1.512.224c-.775 0-1.386-.215-1.834-.644-.439-.439-.658-.999-.658-1.68V47.17c0-.7.224-1.27.672-1.708.448-.439 1.078-.658 1.89-.658.756 0 1.33.205 1.722.616.401.401.602.957.602 1.666 0 1.381-.789 2.072-2.366 2.072-.458 0-.934-.042-1.428-.126v.826c0 .401.13.719.392.952.261.224.639.336 1.134.336Zm1.19-4.06c0-.859-.425-1.288-1.274-1.288-.448 0-.803.117-1.064.35-.252.224-.378.532-.378.924v1.064c.485.065.975.098 1.47.098.485 0 .812-.103.98-.308.177-.215.266-.495.266-.84Zm2.49 3.598v-8.288c0-.15.052-.275.154-.378a.537.537 0 0 1 .392-.168c.159 0 .29.056.392.168a.514.514 0 0 1 .154.378v8.288c0 .308.066.527.196.658a.427.427 0 0 1 .098.266c0 .14-.051.261-.154.364a.475.475 0 0 1-.35.14c-.588 0-.882-.476-.882-1.428Z" fill="#000"/></svg>