<svg width="46" height="47" fill="none" xmlns="http://www.w3.org/2000/svg"><path d="M21.928 1.605a21.5 21.5 0 0 1 0 43" stroke="#FF8D30" stroke-width="3" stroke-linecap="round"/><path d="M22.38 26.965c0 1.568-.471 2.936-1.415 4.104-.945 1.152-2.328 1.728-4.152 1.728-.384 0-.832-.032-1.344-.096a14.672 14.672 0 0 1-1.752-.288c-.64-.16-1.184-.4-1.633-.72-.431-.336-.647-.736-.647-1.2 0-.4.152-.744.456-1.032.32-.304.704-.456 1.151-.456.256 0 .704.152 1.345.456.655.288 1.28.432 1.872.432.992 0 1.704-.264 2.136-.792.431-.544.648-1.224.648-2.04 0-.848-.217-1.488-.649-1.92-.416-.448-.968-.672-1.655-.672-.48 0-.92.104-1.32.312-.64.496-1.216.744-1.728.744a1.76 1.76 0 0 1-1.224-.456c-.32-.304-.473-.696-.457-1.176l.24-6.624c.016-.48.2-.864.553-1.152a1.94 1.94 0 0 1 1.271-.456h5.784c.497 0 .92.128 1.273.384.367.24.552.616.552 1.128 0 .496-.184.864-.552 1.104-.352.24-.776.36-1.273.36h-4.487l-.144 3.12c.432-.128.951-.192 1.56-.192 1.663 0 3.008.488 4.031 1.464 1.04.96 1.56 2.272 1.56 3.936Zm9.697-6.168c0-1.744-.736-2.616-2.208-2.616-1.472 0-2.208.872-2.208 2.616v6.768c0 .704.192 1.264.576 1.68.384.416.928.624 1.632.624.704 0 1.248-.208 1.632-.624.384-.416.576-.976.576-1.68v-6.768Zm-6.36-3.936c.928-1.072 2.312-1.608 4.152-1.608 1.84 0 3.224.536 4.152 1.608.928 1.056 1.392 2.424 1.392 4.104v6.6c0 1.52-.496 2.776-1.488 3.768-.976.992-2.328 1.488-4.056 1.488-1.728 0-3.088-.496-4.08-1.488-.976-.992-1.464-2.248-1.464-3.768v-6.6c0-1.68.464-3.048 1.392-4.104Z" fill="#1d2e5b"/></svg>