<svg width="64" height="64" fill="none" xmlns="http://www.w3.org/2000/svg"><path d="M4.932 19.064A30 30 0 1 0 35.334 2.186" stroke="#FF8D30" stroke-width="3" stroke-linecap="round"/><path d="M32.504 29.032c0 1.504-.568 2.744-1.704 3.72-1.12.976-2.56 1.464-4.32 1.464-1.744 0-3.192-.48-4.344-1.44-1.136-.96-1.704-2.176-1.704-3.648 0-1.68.792-3.032 2.376-4.056-1.184-.896-1.776-2.064-1.776-3.504 0-1.424.52-2.56 1.56-3.408 1.04-.848 2.328-1.272 3.864-1.272s2.824.432 3.864 1.296c1.04.848 1.56 1.944 1.56 3.288 0 1.376-.592 2.52-1.776 3.432 1.6 1.056 2.4 2.432 2.4 4.128Zm-3.912-7.488c0-.512-.208-.936-.624-1.272-.4-.336-.896-.504-1.488-.504-.608 0-1.12.168-1.536.504-.4.336-.6.76-.6 1.272 0 .528.208.976.624 1.344.416.352.936.592 1.56.72.608-.144 1.104-.4 1.488-.768.384-.368.576-.8.576-1.296Zm.576 7.488c0-.64-.264-1.168-.792-1.584-.512-.432-1.168-.736-1.968-.912-.784.16-1.424.464-1.92.912-.48.432-.72.96-.72 1.584 0 .64.256 1.176.768 1.608.528.432 1.176.648 1.944.648s1.408-.216 1.92-.648c.512-.448.768-.984.768-1.608Zm12.481-6.84c0-1.744-.736-2.616-2.208-2.616-1.472 0-2.208.872-2.208 2.616v6.768c0 .704.192 1.264.576 1.68.384.416.928.624 1.632.624.704 0 1.248-.208 1.632-.624.384-.416.576-.976.576-1.68v-6.768Zm-6.36-3.936c.928-1.072 2.312-1.608 4.152-1.608 1.84 0 3.224.536 4.152 1.608.928 1.056 1.392 2.424 1.392 4.104v6.6c0 1.52-.496 2.776-1.488 3.768-.976.992-2.328 1.488-4.056 1.488-1.728 0-3.088-.496-4.08-1.488-.976-.992-1.464-2.248-1.464-3.768v-6.6c0-1.68.464-3.048 1.392-4.104Z" fill="#1D2E5B"/><path opacity=".1" stroke="#000" d="M17 38.5h31"/><path opacity=".4" d="M21.036 50.684v-8.288c0-.15.052-.275.154-.378a.537.537 0 0 1 .392-.168c.159 0 .29.056.392.168a.514.514 0 0 1 .154.378v8.288c0 .308.066.527.196.658a.426.426 0 0 1 .098.266c0 .14-.051.261-.154.364a.475.475 0 0 1-.35.14c-.588 0-.882-.476-.882-1.428Zm5.398.462c.401 0 .886-.13 1.456-.392a.433.433 0 0 1 .196-.042c.14 0 .257.051.35.154.093.093.14.205.14.336 0 .308-.252.537-.756.686a5.3 5.3 0 0 1-1.512.224c-.775 0-1.386-.215-1.834-.644-.439-.439-.658-.999-.658-1.68V47.17c0-.7.224-1.27.672-1.708.448-.439 1.078-.658 1.89-.658.756 0 1.33.205 1.722.616.401.401.602.957.602 1.666 0 1.381-.789 2.072-2.366 2.072-.457 0-.933-.042-1.428-.126v.826c0 .401.13.719.392.952.261.224.64.336 1.134.336Zm1.19-4.06c0-.859-.425-1.288-1.274-1.288-.448 0-.803.117-1.064.35-.252.224-.378.532-.378.924v1.064c.485.065.975.098 1.47.098.485 0 .812-.103.98-.308.177-.215.266-.495.266-.84Zm7.302-1.554-1.904 5.922c-.15.439-.388.658-.714.658a.677.677 0 0 1-.448-.14c-.103-.103-.192-.27-.266-.504l-1.946-5.978a.402.402 0 0 1 .098-.434.556.556 0 0 1 .434-.21c.242 0 .406.121.49.364l1.638 5.278 1.61-5.278c.084-.243.247-.364.49-.364.168 0 .308.07.42.21.112.14.144.299.098.476Zm3.553 5.614c.401 0 .886-.13 1.456-.392a.433.433 0 0 1 .196-.042c.14 0 .256.051.35.154.093.093.14.205.14.336 0 .308-.252.537-.756.686a5.3 5.3 0 0 1-1.512.224c-.775 0-1.386-.215-1.834-.644-.439-.439-.658-.999-.658-1.68V47.17c0-.7.224-1.27.672-1.708.448-.439 1.078-.658 1.89-.658.756 0 1.33.205 1.722.616.401.401.602.957.602 1.666 0 1.381-.789 2.072-2.366 2.072-.458 0-.934-.042-1.428-.126v.826c0 .401.13.719.392.952.261.224.639.336 1.134.336Zm1.19-4.06c0-.859-.425-1.288-1.274-1.288-.448 0-.803.117-1.064.35-.252.224-.378.532-.378.924v1.064c.485.065.975.098 1.47.098.485 0 .812-.103.98-.308.177-.215.266-.495.266-.84Zm2.49 3.598v-8.288c0-.15.052-.275.154-.378a.537.537 0 0 1 .392-.168c.159 0 .29.056.392.168a.514.514 0 0 1 .154.378v8.288c0 .308.066.527.196.658a.427.427 0 0 1 .098.266c0 .14-.051.261-.154.364a.475.475 0 0 1-.35.14c-.588 0-.882-.476-.882-1.428Z" fill="#000"/></svg>