<svg width="46" height="45" fill="none" xmlns="http://www.w3.org/2000/svg"><path d="M23.545 1.522a21 21 0 1 1-3.917.187" stroke="#FF8D30" stroke-width="3" stroke-linecap="round"/><path d="M14.988 28.312c1.04.016 1.752-.304 2.136-.96.4-.672.648-1.672.744-3-.8.48-1.664.72-2.592.72-1.552 0-2.848-.472-3.888-1.416-1.04-.96-1.56-2.312-1.56-4.056 0-1.648.496-3.016 1.488-4.104s2.408-1.632 4.248-1.632c1.072 0 1.992.2 2.76.6.768.4 1.36.984 1.776 1.752.432.768.736 1.632.912 2.592.192.96.288 2.064.288 3.312 0 2.96-.504 5.216-1.512 6.768-.992 1.552-2.496 2.328-4.512 2.328-.336 0-.704-.024-1.104-.072-.384-.032-.84-.104-1.368-.216a3.706 3.706 0 0 1-1.32-.6c-.352-.272-.552-.6-.6-.984-.048-.384.064-.728.336-1.032.288-.304.672-.456 1.152-.456.24 0 .632.072 1.176.216.56.144 1.04.224 1.44.24Zm2.952-7.056v-.288c0-2.704-.832-4.056-2.496-4.056-.8 0-1.384.256-1.752.768-.352.496-.528 1.128-.528 1.896 0 1.664.784 2.496 2.352 2.496 1.024 0 1.832-.272 2.424-.816Zm10.01 7.056c1.04.016 1.751-.304 2.135-.96.4-.672.648-1.672.744-3-.8.48-1.664.72-2.592.72-1.552 0-2.848-.472-3.888-1.416-1.04-.96-1.56-2.312-1.56-4.056 0-1.648.496-3.016 1.488-4.104s2.408-1.632 4.248-1.632c1.072 0 1.992.2 2.76.6.768.4 1.36.984 1.776 1.752.432.768.736 1.632.912 2.592.192.96.288 2.064.288 3.312 0 2.96-.504 5.216-1.512 6.768-.992 1.552-2.496 2.328-4.512 2.328-.336 0-.704-.024-1.104-.072-.384-.032-.84-.104-1.368-.216a3.706 3.706 0 0 1-1.32-.6c-.352-.272-.552-.6-.6-.984-.048-.384.064-.728.336-1.032.288-.304.672-.456 1.152-.456.24 0 .632.072 1.176.216.56.144 1.04.224 1.44.24Zm2.951-7.056v-.288c0-2.704-.832-4.056-2.496-4.056-.8 0-1.384.256-1.752.768-.352.496-.528 1.128-.528 1.896 0 1.664.784 2.496 2.352 2.496 1.024 0 1.832-.272 2.424-.816Z" fill="#1d2e5b"/></svg>