<svg width="64" height="64" fill="none" xmlns="http://www.w3.org/2000/svg"><path d="M27.436 2.35a30 30 0 1 0 5.083-.345" stroke="#FF8D30" stroke-width="3" stroke-linecap="round"/><path d="M25.904 31.312c-1.128-.024-1.824-.456-2.616-.456-1.008 0-1.584.744-1.488 1.488.192 1.68 3.408 1.872 4.392 1.872 4.08 0 6.024-3.264 6.024-9.096 0-4.776-1.296-8.256-5.736-8.256-3.864 0-5.736 2.616-5.736 5.736 0 3.648 2.52 5.472 5.448 5.472.888 0 1.68-.168 2.592-.72-.168 2.256-.6 4.008-2.88 3.96Zm2.952-7.056c-.552.504-1.488.816-2.424.816-1.464 0-2.352-.792-2.352-2.496 0-1.392.576-2.664 2.28-2.664 2.064 0 2.496 1.944 2.496 4.056v.288Zm10.01 7.056c-1.129-.024-1.825-.456-2.617-.456-1.008 0-1.584.744-1.488 1.488.192 1.68 3.408 1.872 4.392 1.872 4.08 0 6.024-3.264 6.024-9.096 0-4.776-1.296-8.256-5.736-8.256-3.864 0-5.736 2.616-5.736 5.736 0 3.648 2.52 5.472 5.448 5.472.888 0 1.68-.168 2.592-.72-.168 2.256-.6 4.008-2.88 3.96Zm2.951-7.056c-.552.504-1.488.816-2.424.816-1.464 0-2.352-.792-2.352-2.496 0-1.392.576-2.664 2.28-2.664 2.064 0 2.496 1.944 2.496 4.056v.288Z" fill="#1D2E5B"/><path opacity=".1" stroke="#000" d="M17 38.5h31"/><path opacity=".4" d="M21.036 50.684c0 1.26.532 1.428.882 1.428.28 0 .504-.224.504-.504a.462.462 0 0 0-.098-.266c-.168-.168-.196-.35-.196-.658v-8.288a.538.538 0 0 0-.546-.546.547.547 0 0 0-.546.546v8.288Zm5.398.462c-1.008 0-1.526-.504-1.526-1.288v-.826c.49.084 1.008.126 1.428.126 1.666 0 2.366-.784 2.366-2.072 0-1.386-.77-2.282-2.324-2.282-1.666 0-2.562 1.022-2.562 2.366v2.618c0 1.316.91 2.324 2.492 2.324.756 0 2.268-.224 2.268-.91 0-.252-.21-.49-.49-.49a.45.45 0 0 0-.196.042c-.49.224-.868.392-1.456.392Zm1.19-4.06c0 .574-.182 1.148-1.246 1.148-.28 0-.952-.028-1.47-.098v-1.064c0-.784.532-1.274 1.442-1.274.812 0 1.274.378 1.274 1.288Zm7.302-1.554a.541.541 0 0 0-.518-.686.54.54 0 0 0-.49.364l-1.61 5.278-1.638-5.278a.516.516 0 0 0-.49-.364c-.322 0-.644.308-.532.644l1.946 5.978c.154.448.336.644.714.644.364 0 .56-.196.714-.658l1.904-5.922Zm3.553 5.614c-1.008 0-1.526-.504-1.526-1.288v-.826c.49.084 1.008.126 1.428.126 1.666 0 2.366-.784 2.366-2.072 0-1.386-.77-2.282-2.324-2.282-1.666 0-2.562 1.022-2.562 2.366v2.618c0 1.316.91 2.324 2.492 2.324.756 0 2.268-.224 2.268-.91 0-.252-.21-.49-.49-.49a.45.45 0 0 0-.196.042c-.49.224-.868.392-1.456.392Zm1.19-4.06c0 .574-.182 1.148-1.246 1.148-.28 0-.952-.028-1.47-.098v-1.064c0-.784.532-1.274 1.442-1.274.812 0 1.274.378 1.274 1.288Zm2.49 3.598c0 1.26.532 1.428.882 1.428.28 0 .504-.224.504-.504a.462.462 0 0 0-.098-.266c-.168-.168-.196-.35-.196-.658v-8.288a.538.538 0 0 0-.546-.546.547.547 0 0 0-.546.546v8.288Z" fill="#000"/></svg>