<svg width="15" height="17" fill="none" xmlns="http://www.w3.org/2000/svg"><path opacity=".15" d="M11.208 14.875c-.514 0-1.016-.18-1.444-.515a3.002 3.002 0 0 1-.956-1.37 3.556 3.556 0 0 1-.148-1.766c.1-.592.347-1.136.71-1.564a2.506 2.506 0 0 1 1.331-.836 2.24 2.24 0 0 1 1.501.174c.475.231.88.623 1.166 1.125.286.503.438 1.093.438 1.697 0 .81-.274 1.587-.761 2.16-.488.572-1.148.894-1.837.895Zm0-5.047a1.52 1.52 0 0 0-.941.336c-.28.219-.496.53-.625.894a2.32 2.32 0 0 0-.096 1.151c.065.386.227.741.464 1.02.237.279.539.468.867.545.33.077.67.038.98-.113.31-.15.574-.406.76-.734.186-.327.286-.713.286-1.107 0-.528-.18-1.034-.497-1.408-.318-.373-.749-.583-1.198-.584ZM3.752 14.875c-.514 0-1.016-.18-1.443-.515a3.002 3.002 0 0 1-.957-1.37 3.556 3.556 0 0 1-.148-1.766c.1-.592.347-1.136.71-1.564a2.506 2.506 0 0 1 1.331-.836 2.24 2.24 0 0 1 1.501.174c.475.231.88.623 1.166 1.125.286.503.438 1.093.438 1.697 0 .81-.274 1.587-.762 2.16-.487.572-1.147.894-1.836.895Zm0-5.047a1.52 1.52 0 0 0-.941.336c-.28.219-.496.53-.625.894a2.32 2.32 0 0 0-.096 1.151c.065.386.227.741.464 1.02.237.279.539.468.867.545.33.077.67.038.98-.113.31-.15.574-.406.76-.734.186-.327.286-.713.286-1.107 0-.528-.18-1.034-.497-1.408-.318-.373-.749-.583-1.198-.584ZM9.288 4.25a.785.785 0 0 0 .347-.08.907.907 0 0 0 .294-.231c.084-.1.15-.217.195-.347.045-.13.068-.268.067-.408a1.21 1.21 0 0 0-.065-.406 1.077 1.077 0 0 0-.195-.345.896.896 0 0 0-.292-.23.788.788 0 0 0-.692.001.908.908 0 0 0-.294.23 1.09 1.09 0 0 0-.196.344 1.226 1.226 0 0 0-.003.813c.045.13.112.247.195.345a.91.91 0 0 0 .293.232c.11.054.227.082.346.082Z" fill="#1d2e5b"/><path opacity=".15" d="M10.63 6.375H9.396a.1.1 0 0 1-.058-.018.126.126 0 0 1-.042-.051L8.4 4.375a1.001 1.001 0 0 0-.266-.362.81.81 0 0 0-.376-.182.751.751 0 0 0-.405.037.865.865 0 0 0-.348.25L5.031 6.454c-.165.199-.26.465-.262.744 0 .577.356.783.522.9.805.545 1.372.943 1.683 1.165.016.012.03.028.04.048.01.02.014.042.014.065v2.295c0 .286.187.531.43.545a.391.391 0 0 0 .18-.032.45.45 0 0 0 .154-.113.54.54 0 0 0 .103-.175.612.612 0 0 0 .037-.21V8.833a.608.608 0 0 0-.05-.242.517.517 0 0 0-.138-.19l-1.045-.883a.128.128 0 0 1-.032-.042.15.15 0 0 1-.01-.11.139.139 0 0 1 .025-.047L7.87 5.83a.113.113 0 0 1 .044-.035.097.097 0 0 1 .101.015.127.127 0 0 1 .036.046l.616 1.307c.04.083.097.152.166.2.07.048.149.074.23.074h1.581a.395.395 0 0 0 .178-.043.459.459 0 0 0 .15-.122.553.553 0 0 0 .096-.181.618.618 0 0 0 .028-.211c-.012-.286-.221-.506-.465-.506Z" fill="#1d2e5b"/></svg>