<svg width="15" height="17" fill="none" xmlns="http://www.w3.org/2000/svg"><path d="M10.958 13.966a2.597 2.597 0 0 1-2.548-3.108 2.6 2.6 0 0 1 3.542-1.894 2.6 2.6 0 0 1-.994 5.002Zm0-4.296a1.694 1.694 0 0 0-1.662 2.026 1.695 1.695 0 1 0 1.662-2.026ZM3.502 13.966a2.597 2.597 0 0 1-2.548-3.108 2.6 2.6 0 0 1 3.542-1.894 2.599 2.599 0 0 1 .843 4.24 2.6 2.6 0 0 1-1.837.762Zm0-4.296a1.694 1.694 0 0 0-1.662 2.026A1.696 1.696 0 1 0 3.502 9.67ZM9.038 4.25a.785.785 0 0 0 .347-.08.907.907 0 0 0 .294-.231c.084-.1.15-.217.195-.347.045-.13.068-.268.067-.408a1.21 1.21 0 0 0-.065-.406 1.077 1.077 0 0 0-.195-.345.896.896 0 0 0-.292-.23.788.788 0 0 0-.692.001.908.908 0 0 0-.294.23 1.09 1.09 0 0 0-.196.344 1.226 1.226 0 0 0-.003.813c.045.13.112.247.195.345a.91.91 0 0 0 .293.232c.11.054.227.082.346.082Z" fill="#1d2e5b"/><path d="M10.38 6.375H9.146a.1.1 0 0 1-.058-.018.126.126 0 0 1-.042-.051L8.15 4.375a1.001 1.001 0 0 0-.266-.362.81.81 0 0 0-.376-.182.751.751 0 0 0-.405.037.865.865 0 0 0-.348.25L4.781 6.454c-.165.199-.26.465-.262.744 0 .577.356.783.522.9.805.545 1.372.943 1.683 1.165.016.012.03.028.04.048.01.02.014.042.014.065v2.295c0 .286.187.531.43.545a.391.391 0 0 0 .18-.032.45.45 0 0 0 .154-.113.54.54 0 0 0 .103-.175.612.612 0 0 0 .037-.21V8.833a.608.608 0 0 0-.05-.242.517.517 0 0 0-.138-.19l-1.045-.883a.128.128 0 0 1-.032-.042.15.15 0 0 1-.01-.11.139.139 0 0 1 .026-.047L7.619 5.83a.113.113 0 0 1 .044-.035.097.097 0 0 1 .052-.007c.018.003.035.01.05.022a.127.127 0 0 1 .035.046l.616 1.307c.04.083.097.152.166.2.07.048.149.074.23.074h1.581a.395.395 0 0 0 .178-.043.459.459 0 0 0 .15-.122.554.554 0 0 0 .096-.181.62.62 0 0 0 .028-.211c-.012-.286-.221-.506-.465-.506Z" fill="#1d2e5b"/></svg>