<svg width="14" height="17" fill="none" xmlns="http://www.w3.org/2000/svg"><g clip-path="url(#a)"><path opacity=".15" d="M4.249 10.857c0-.315-.106-.585-.318-.808a1.017 1.017 0 0 0-.765-.335c-.3 0-.554.112-.766.335a1.133 1.133 0 0 0-.317.808c0 .316.106.585.317.808.212.223.467.335.766.335s.554-.112.765-.335c.212-.223.318-.492.318-.808Zm8.663 0c0-.315-.106-.585-.318-.808a1.017 1.017 0 0 0-.765-.335c-.3 0-.554.112-.766.335a1.133 1.133 0 0 0-.317.808c0 .316.106.585.317.808.212.223.467.335.766.335s.554-.112.765-.335c.212-.223.318-.492.318-.808Zm-.39-3.536-.608-3.428a.59.59 0 0 0-.19-.335.505.505 0 0 0-.344-.13H3.614a.505.505 0 0 0-.342.13.589.589 0 0 0-.19.335l-.61 3.428a.587.587 0 0 0 .119.474.503.503 0 0 0 .414.205h8.985c.169 0 .307-.068.414-.205a.587.587 0 0 0 .119-.474Zm-1.911-5.464c0-.119-.04-.22-.119-.303a.382.382 0 0 0-.288-.125H4.79a.382.382 0 0 0-.288.125.425.425 0 0 0-.118.303c0 .12.04.22.118.304a.381.381 0 0 0 .288.125h5.414a.382.382 0 0 0 .288-.125.425.425 0 0 0 .119-.304Zm3.384 6.473v5.384h-1.083v1.143c0 .316-.106.585-.318.808a1.017 1.017 0 0 1-.765.335c-.3 0-.554-.112-.766-.335a1.133 1.133 0 0 1-.317-.808v-1.143H4.249v1.143c0 .316-.106.585-.318.808a1.017 1.017 0 0 1-.765.335c-.3 0-.554-.112-.766-.335a1.133 1.133 0 0 1-.317-.808v-1.143H1V8.33c0-.666.07-1.33.212-1.99l.87-4.054c.052-.465.327-.872.826-1.224.499-.35 1.148-.616 1.946-.794C5.652.089 6.533 0 7.497 0c.965 0 1.846.09 2.644.268.798.178 1.447.443 1.946.794.499.352.774.76.825 1.224l.888 4.053c.13.607.195 1.271.195 1.991Z" fill="#1d2e5b"/></g><defs><clipPath id="a"><path fill="#fff" transform="translate(.662 .352)" d="M0 0h13v16H0z"/></clipPath></defs></svg>