<svg width="30" height="31" fill="none" xmlns="http://www.w3.org/2000/svg"><circle cx="15" cy="15.79" r="15" fill="#E2E5F2"/><g clip-path="url(#a)"><path fill-rule="evenodd" clip-rule="evenodd" d="m15 14.665.67-1.41c.167-.349.456-.85.865-1.256.401-.4.883-.671 1.465-.671 1.257 0 2.25 1.044 2.25 2.3 0 .954-.416 1.627-1.401 2.655-.253.263-.54.547-.86.86-.83.82-1.864 1.84-2.989 3.202-1.125-1.363-2.159-2.382-2.99-3.201a44.6 44.6 0 0 1-.859-.861c-.986-1.028-1.401-1.701-1.401-2.655 0-1.256.993-2.3 2.25-2.3.582 0 1.063.272 1.466.67.408.407.697.908.864 1.257l.67 1.41Zm.294 6.532a.387.387 0 0 1-.294.143.37.37 0 0 1-.294-.143c-1.2-1.499-2.287-2.57-3.182-3.451C9.975 16.218 9 15.258 9 13.627c0-1.706 1.342-3.088 3-3.088 1.2 0 2.04.827 2.553 1.582.195.287.343.564.447.781.13-.272.28-.533.447-.781.514-.756 1.353-1.582 2.553-1.582 1.657 0 3 1.383 3 3.088 0 1.63-.975 2.59-2.524 4.117-.895.883-1.981 1.954-3.182 3.45v.002Z" fill="#192144" opacity=".5"/></g><defs><clipPath id="a"><path fill="#fff" transform="translate(9 9.79)" d="M0 0h12v12H0z"/></clipPath></defs></svg>