<svg width="14" height="17" fill="none" xmlns="http://www.w3.org/2000/svg"><path d="M9.561 4.25c.605 0 1.096-.634 1.096-1.417 0-.782-.49-1.416-1.096-1.416-.605 0-1.095.634-1.095 1.416 0 .783.49 1.417 1.095 1.417ZM8.892 7.77c.125.242.306.428.516.534.21.105.441.124.66.054l1.816-.588-.264-1.374-1.816.587-.756-1.464c-.161-.312-.412-.53-.697-.605L6.245 4.37a.875.875 0 0 0-.696.116 1.3 1.3 0 0 0-.499.64l-.908 2.349.98.634.908-2.35 1.078.28-2.786 6.004H1.893v1.416h2.429c.382 0 .742-.263.94-.688l1.05-2.263 2.831.732.995 3.86 1.038-.449-.994-3.859a1.504 1.504 0 0 0-.315-.614 1.03 1.03 0 0 0-.51-.328l-1.664-.43.97-2.092.229.443Z" fill="#1d2e5b"/></svg>