<svg width="170" height="63" viewBox="0 0 170 63" fill="none" xmlns="http://www.w3.org/2000/svg">
<rect y="7" width="170" height="56" rx="4" fill="#101D41"/>
<path d="M85 0L91.9282 7.5H78.0718L85 0Z" fill="#101D41"/>
<path d="M28.0962 36.82L27.2563 39.6C27.2029 39.7733 27.0963 39.9133 26.9363 40.02C26.7896 40.14 26.6429 40.2 26.4963 40.2C26.2563 40.2 26.0563 40.1267 25.8963 39.98C25.7363 39.8333 25.6563 39.64 25.6563 39.4C25.6563 39.28 25.6696 39.18 25.6963 39.1L29.5963 26.76C29.8096 26.0533 30.1563 25.7 30.6363 25.7C31.1163 25.7 31.4696 26.0533 31.6963 26.76L35.5963 39.1C35.6229 39.18 35.6363 39.28 35.6363 39.4C35.6363 39.64 35.5563 39.8333 35.3963 39.98C35.2363 40.1267 35.0363 40.2 34.7963 40.2C34.6363 40.2 34.4763 40.14 34.3163 40.02C34.1696 39.9133 34.0696 39.7733 34.0163 39.6L33.1563 36.82H28.0962ZM30.6363 28.48L28.5763 35.26H32.6963L30.6363 28.48ZM44.3728 32.72C44.3728 33.7733 43.9061 34.48 42.9728 34.84C44.0395 35.2267 44.5728 36 44.5728 37.16C44.5728 38.0267 44.2861 38.72 43.7128 39.24C43.1528 39.7467 42.3328 40 41.2528 40H38.3728C38.1595 40 37.9728 39.9267 37.8128 39.78C37.6661 39.62 37.5928 39.4333 37.5928 39.22V30.68C37.5928 30.4667 37.6661 30.2867 37.8128 30.14C37.9728 29.98 38.1595 29.9 38.3728 29.9H41.0528C42.1328 29.9 42.9528 30.16 43.5128 30.68C44.0861 31.1867 44.3728 31.8667 44.3728 32.72ZM41.2128 38.66C42.4261 38.66 43.0328 38.14 43.0328 37.1C43.0328 36.06 42.3528 35.54 40.9928 35.54H39.1528V38.66H41.2128ZM39.1528 31.24V34.22H41.0528C42.2395 34.22 42.8328 33.7467 42.8328 32.8C42.8328 31.76 42.2261 31.24 41.0128 31.24H39.1528ZM50.1725 31.38V39.38C50.1725 39.6067 50.0925 39.7933 49.9325 39.94C49.7858 40.0867 49.6058 40.16 49.3925 40.16C49.1792 40.16 48.9925 40.0867 48.8325 39.94C48.6858 39.7933 48.6125 39.6067 48.6125 39.38V31.38H46.5325C46.3325 31.38 46.1592 31.3133 46.0125 31.18C45.8792 31.0333 45.8125 30.8533 45.8125 30.64C45.8125 30.4267 45.8792 30.2533 46.0125 30.12C46.1592 29.9733 46.3325 29.9 46.5325 29.9H52.2525C52.4525 29.9 52.6192 29.9733 52.7525 30.12C52.8992 30.2533 52.9725 30.4267 52.9725 30.64C52.9725 30.8533 52.8992 31.0333 52.7525 31.18C52.6192 31.3133 52.4525 31.38 52.2525 31.38H50.1725ZM60.7398 39.16C60.0865 39.8267 59.1665 40.16 57.9798 40.16C56.7932 40.16 55.8732 39.8267 55.2198 39.16C54.5665 38.4933 54.2398 37.64 54.2398 36.6V33.26C54.2398 32.22 54.5665 31.3667 55.2198 30.7C55.8732 30.0333 56.7932 29.7 57.9798 29.7C59.1665 29.7 60.0865 30.0333 60.7398 30.7C61.3932 31.3667 61.7198 32.22 61.7198 33.26V36.6C61.7198 37.64 61.3932 38.4933 60.7398 39.16ZM56.3598 38.16C56.7332 38.5333 57.2732 38.72 57.9798 38.72C58.6865 38.72 59.2265 38.5333 59.5998 38.16C59.9732 37.7867 60.1598 37.2667 60.1598 36.6V33.24C60.1598 32.5733 59.9732 32.06 59.5998 31.7C59.2265 31.3267 58.6865 31.14 57.9798 31.14C57.2732 31.14 56.7332 31.3267 56.3598 31.7C55.9865 32.06 55.7998 32.5733 55.7998 33.24V36.6C55.7998 37.2667 55.9865 37.7867 56.3598 38.16ZM67.3405 31.38V39.38C67.3405 39.6067 67.2605 39.7933 67.1005 39.94C66.9538 40.0867 66.7738 40.16 66.5605 40.16C66.3471 40.16 66.1605 40.0867 66.0005 39.94C65.8538 39.7933 65.7805 39.6067 65.7805 39.38V31.38H63.7005C63.5005 31.38 63.3271 31.3133 63.1805 31.18C63.0471 31.0333 62.9805 30.8533 62.9805 30.64C62.9805 30.4267 63.0471 30.2533 63.1805 30.12C63.3271 29.9733 63.5005 29.9 63.7005 29.9H69.4205C69.6205 29.9 69.7871 29.9733 69.9205 30.12C70.0671 30.2533 70.1405 30.4267 70.1405 30.64C70.1405 30.8533 70.0671 31.0333 69.9205 31.18C69.7871 31.3133 69.6205 31.38 69.4205 31.38H67.3405ZM75.9645 40.14C75.2445 40.14 74.5045 40.0133 73.7445 39.76V43.54C73.7445 43.7533 73.6712 43.9333 73.5245 44.08C73.3912 44.2267 73.2045 44.3 72.9645 44.3C72.7245 44.3 72.5312 44.2267 72.3845 44.08C72.2512 43.9333 72.1845 43.7533 72.1845 43.54V32.62C72.1845 32.0067 72.0779 31.54 71.8645 31.22C71.7712 31.0733 71.7245 30.94 71.7245 30.82C71.7245 30.62 71.7979 30.4533 71.9445 30.32C72.0912 30.1867 72.2512 30.12 72.4245 30.12C72.7179 30.12 72.9779 30.28 73.2045 30.6C74.2979 30.0133 75.2712 29.72 76.1245 29.72C77.1512 29.72 77.9379 30.0667 78.4845 30.76C79.0312 31.44 79.3045 32.3533 79.3045 33.5V36.1C79.3045 37.38 79.0445 38.3733 78.5245 39.08C78.0179 39.7867 77.1645 40.14 75.9645 40.14ZM73.7445 32.62V38.36C74.3445 38.64 75.0179 38.78 75.7645 38.78C76.4845 38.78 76.9912 38.5733 77.2845 38.16C77.5912 37.7333 77.7445 37.0467 77.7445 36.1V33.5C77.7445 31.9133 77.0979 31.12 75.8045 31.12C75.0979 31.12 74.3779 31.3467 73.6445 31.8C73.7112 32.1333 73.7445 32.4067 73.7445 32.62ZM86.6353 34.38V33.24C86.6353 31.8133 85.922 31.1 84.4953 31.1C84.002 31.1 83.4953 31.24 82.9753 31.52C82.6553 31.6267 82.482 31.68 82.4553 31.68C82.1086 31.68 81.922 31.46 81.8953 31.02C81.8553 30.5933 82.1153 30.2733 82.6753 30.06C83.2486 29.8333 83.922 29.72 84.6953 29.72C85.922 29.72 86.8086 30.06 87.3553 30.74C87.9153 31.4067 88.1953 32.4133 88.1953 33.76V38.16C88.1953 38.56 88.3153 38.76 88.5553 38.76C88.5686 38.76 88.5886 38.76 88.6153 38.76C88.6553 38.7467 88.6886 38.74 88.7153 38.74C88.902 38.74 89.042 38.8067 89.1353 38.94C89.242 39.0733 89.2953 39.2333 89.2953 39.42C89.2953 39.8733 88.9953 40.1 88.3953 40.1C87.7153 40.1 87.2153 39.7667 86.8953 39.1C86.122 39.8067 85.2086 40.16 84.1553 40.16C83.1553 40.16 82.3953 39.8933 81.8753 39.36C81.3553 38.8133 81.0953 38.0733 81.0953 37.14V37.06C81.0953 35.0867 82.2686 34.1 84.6153 34.1C85.322 34.1 85.9953 34.1933 86.6353 34.38ZM84.5953 35.42C83.8353 35.42 83.3153 35.5667 83.0353 35.86C82.7686 36.1533 82.6353 36.56 82.6353 37.08V37.16C82.6353 38.2267 83.222 38.76 84.3953 38.76C85.2086 38.76 85.9553 38.4667 86.6353 37.88V35.72C85.9686 35.52 85.2886 35.42 84.5953 35.42ZM92.8638 39.38C92.8638 39.6067 92.7838 39.7933 92.6238 39.94C92.4771 40.0867 92.2971 40.16 92.0838 40.16C91.8704 40.16 91.6838 40.0867 91.5238 39.94C91.3771 39.7933 91.3038 39.6067 91.3038 39.38V30.56C91.3038 30.3467 91.3771 30.1667 91.5238 30.02C91.6838 29.86 91.8704 29.78 92.0838 29.78C92.2971 29.78 92.4771 29.86 92.6238 30.02C92.7838 30.1667 92.8638 30.3467 92.8638 30.56V34.12H97.1038V30.56C97.1038 30.3467 97.1771 30.1667 97.3238 30.02C97.4838 29.86 97.6704 29.78 97.8838 29.78C98.0971 29.78 98.2771 29.86 98.4238 30.02C98.5838 30.1667 98.6638 30.3467 98.6638 30.56V39.38C98.6638 39.6067 98.5838 39.7933 98.4238 39.94C98.2771 40.0867 98.0971 40.16 97.8838 40.16C97.6704 40.16 97.4838 40.0867 97.3238 39.94C97.1771 39.7933 97.1038 39.6067 97.1038 39.38V35.44H92.8638V39.38ZM101.017 36.48V33.46C101.017 32.3667 101.317 31.48 101.917 30.8C102.517 30.12 103.411 29.78 104.597 29.78C105.224 29.78 105.844 29.88 106.457 30.08C107.071 30.28 107.377 30.5867 107.377 31C107.377 31.1867 107.311 31.3467 107.177 31.48C107.044 31.6133 106.884 31.68 106.697 31.68C106.604 31.68 106.497 31.66 106.377 31.62C105.764 31.3133 105.224 31.16 104.757 31.16C103.304 31.16 102.577 31.9267 102.577 33.46V36.48C102.577 38.0133 103.304 38.78 104.757 38.78C105.224 38.78 105.764 38.6267 106.377 38.32C106.497 38.28 106.604 38.26 106.697 38.26C106.884 38.26 107.044 38.3267 107.177 38.46C107.311 38.5933 107.377 38.7533 107.377 38.94C107.377 39.3533 107.071 39.66 106.457 39.86C105.844 40.06 105.224 40.16 104.597 40.16C103.411 40.16 102.517 39.82 101.917 39.14C101.317 38.46 101.017 37.5733 101.017 36.48ZM110.93 39.38C110.93 39.6067 110.85 39.7933 110.69 39.94C110.543 40.0867 110.363 40.16 110.15 40.16C109.937 40.16 109.75 40.0867 109.59 39.94C109.443 39.7933 109.37 39.6067 109.37 39.38V30.68C109.37 30.4667 109.443 30.2867 109.59 30.14C109.75 29.98 109.937 29.9 110.15 29.9H115.75C115.963 29.9 116.143 29.98 116.29 30.14C116.45 30.2867 116.53 30.4667 116.53 30.68V39.38C116.53 39.6067 116.45 39.7933 116.29 39.94C116.143 40.0867 115.963 40.16 115.75 40.16C115.537 40.16 115.35 40.0867 115.19 39.94C115.043 39.7933 114.97 39.6067 114.97 39.38V31.22H110.93V39.38ZM125.388 39.16C124.735 39.8267 123.815 40.16 122.628 40.16C121.442 40.16 120.522 39.8267 119.868 39.16C119.215 38.4933 118.888 37.64 118.888 36.6V33.26C118.888 32.22 119.215 31.3667 119.868 30.7C120.522 30.0333 121.442 29.7 122.628 29.7C123.815 29.7 124.735 30.0333 125.388 30.7C126.042 31.3667 126.368 32.22 126.368 33.26V36.6C126.368 37.64 126.042 38.4933 125.388 39.16ZM121.008 38.16C121.382 38.5333 121.922 38.72 122.628 38.72C123.335 38.72 123.875 38.5333 124.248 38.16C124.622 37.7867 124.808 37.2667 124.808 36.6V33.24C124.808 32.5733 124.622 32.06 124.248 31.7C123.875 31.3267 123.335 31.14 122.628 31.14C121.922 31.14 121.382 31.3267 121.008 31.7C120.635 32.06 120.448 32.5733 120.448 33.24V36.6C120.448 37.2667 120.635 37.7867 121.008 38.16ZM132.605 40.14C131.885 40.14 131.145 40.0133 130.385 39.76V43.54C130.385 43.7533 130.312 43.9333 130.165 44.08C130.032 44.2267 129.845 44.3 129.605 44.3C129.365 44.3 129.172 44.2267 129.025 44.08C128.892 43.9333 128.825 43.7533 128.825 43.54V32.62C128.825 32.0067 128.718 31.54 128.505 31.22C128.412 31.0733 128.365 30.94 128.365 30.82C128.365 30.62 128.438 30.4533 128.585 30.32C128.732 30.1867 128.892 30.12 129.065 30.12C129.358 30.12 129.618 30.28 129.845 30.6C130.938 30.0133 131.912 29.72 132.765 29.72C133.792 29.72 134.578 30.0667 135.125 30.76C135.672 31.44 135.945 32.3533 135.945 33.5V36.1C135.945 37.38 135.685 38.3733 135.165 39.08C134.658 39.7867 133.805 40.14 132.605 40.14ZM130.385 32.62V38.36C130.985 38.64 131.658 38.78 132.405 38.78C133.125 38.78 133.632 38.5733 133.925 38.16C134.232 37.7333 134.385 37.0467 134.385 36.1V33.5C134.385 31.9133 133.738 31.12 132.445 31.12C131.738 31.12 131.018 31.3467 130.285 31.8C130.352 32.1333 130.385 32.4067 130.385 32.62ZM141.54 31.38V39.38C141.54 39.6067 141.46 39.7933 141.3 39.94C141.153 40.0867 140.973 40.16 140.76 40.16C140.546 40.16 140.36 40.0867 140.2 39.94C140.053 39.7933 139.98 39.6067 139.98 39.38V31.38H137.9C137.7 31.38 137.526 31.3133 137.38 31.18C137.246 31.0333 137.18 30.8533 137.18 30.64C137.18 30.4267 137.246 30.2533 137.38 30.12C137.526 29.9733 137.7 29.9 137.9 29.9H143.62C143.82 29.9 143.986 29.9733 144.12 30.12C144.266 30.2533 144.34 30.4267 144.34 30.64C144.34 30.8533 144.266 31.0333 144.12 31.18C143.986 31.3133 143.82 31.38 143.62 31.38H141.54Z" fill="white"/>
</svg>
