<svg width="146" height="63" viewBox="0 0 146 63" fill="none" xmlns="http://www.w3.org/2000/svg">
<rect y="7" width="146" height="56" rx="4" fill="#101D41"/>
<path d="M73 0L78.9501 7.5H67.0499L73 0Z" fill="#101D41"/>
<path d="M22.852 36.82H27.912L28.772 39.6C28.872 39.96 29.252 40.2 29.552 40.2C30.032 40.2 30.392 39.88 30.392 39.4C30.392 39.32 30.372 39.16 30.352 39.1L26.452 26.76C26.252 26.14 25.992 25.7 25.392 25.7C24.812 25.7 24.532 26.16 24.352 26.76L20.452 39.1C20.432 39.16 20.412 39.32 20.412 39.4C20.412 39.88 20.792 40.2 21.252 40.2C21.532 40.2 21.892 39.96 22.012 39.6L22.852 36.82ZM25.392 28.48L27.452 35.26H23.332L25.392 28.48ZM39.1286 32.72C39.1286 31.08 38.0486 29.9 35.8085 29.9H33.1285C32.6885 29.9 32.3485 30.26 32.3485 30.68V39.22C32.3485 39.64 32.6885 40 33.1285 40H36.0086C38.2286 40 39.3286 38.84 39.3286 37.16C39.3286 36.04 38.8486 35.24 37.7285 34.84C38.7086 34.46 39.1286 33.74 39.1286 32.72ZM37.7886 37.1C37.7886 38.18 37.1686 38.66 35.9685 38.66H33.9085V35.54H35.7486C37.4686 35.54 37.7886 36.34 37.7886 37.1ZM33.9085 31.24H35.7686C36.9485 31.24 37.5885 31.72 37.5885 32.8C37.5885 33.5 37.3086 34.22 35.8085 34.22H33.9085V31.24ZM42.584 40.2C42.904 40.2 43.204 40.02 43.384 39.74L47.804 32.64V39.38C47.804 39.82 48.144 40.2 48.584 40.2C49.024 40.2 49.364 39.82 49.364 39.38V30.64C49.364 30.14 49.024 29.76 48.524 29.76C48.184 29.76 47.864 29.94 47.704 30.24L43.264 37.32V30.58C43.264 30.14 42.904 29.76 42.464 29.76C42.024 29.76 41.704 30.14 41.704 30.58V39.32C41.704 39.8 42.064 40.2 42.584 40.2ZM57.2895 34.38C56.6695 34.2 55.9895 34.1 55.2695 34.1C52.9095 34.1 51.7495 35.1 51.7495 37.06V37.14C51.7495 38.94 52.7495 40.16 54.8095 40.16C55.8895 40.16 56.7895 39.8 57.5495 39.1C57.8495 39.72 58.3895 40.1 59.0495 40.1C59.4895 40.1 59.9495 39.92 59.9495 39.42C59.9495 39.08 59.7495 38.74 59.3695 38.74C59.2895 38.74 59.2695 38.76 59.2095 38.76C58.9695 38.76 58.8495 38.56 58.8495 38.16V33.76C58.8495 31.12 57.8495 29.72 55.3495 29.72C53.9695 29.72 52.4695 30.1 52.5495 31.02C52.5695 31.32 52.7295 31.68 53.1095 31.68C53.3295 31.68 53.5695 31.54 53.6295 31.52C54.0695 31.28 54.4495 31.1 55.1495 31.1C56.5895 31.1 57.2895 31.78 57.2895 33.24V34.38ZM55.2495 35.42C55.8495 35.42 56.6295 35.52 57.2895 35.72V37.88C56.5895 38.48 55.9095 38.76 55.0495 38.76C53.7095 38.76 53.2895 38.1 53.2895 37.16V37.08C53.2895 36.18 53.6095 35.42 55.2495 35.42ZM63.5179 39.38V31.22H67.5579V39.38C67.5579 39.82 67.8979 40.16 68.3379 40.16C68.7779 40.16 69.1179 39.82 69.1179 39.38V30.68C69.1179 30.26 68.7779 29.9 68.3379 29.9H62.7379C62.2979 29.9 61.9579 30.26 61.9579 30.68V39.38C61.9579 39.82 62.2979 40.16 62.7379 40.16C63.1779 40.16 63.5179 39.82 63.5179 39.38ZM75.216 38.78C73.7761 38.78 73.036 38.06 73.036 36.94V35.76C73.736 35.88 74.476 35.94 75.076 35.94C77.4561 35.94 78.4561 34.82 78.4561 32.98C78.4561 31 77.3561 29.72 75.1361 29.72C72.756 29.72 71.476 31.18 71.476 33.1V36.84C71.476 38.72 72.776 40.16 75.036 40.16C76.1161 40.16 78.2761 39.84 78.2761 38.86C78.2761 38.5 77.976 38.16 77.5761 38.16C77.4361 38.16 77.3361 38.2 77.2961 38.22C76.5961 38.54 76.0561 38.78 75.216 38.78ZM76.916 32.98C76.916 33.8 76.6561 34.62 75.1361 34.62C74.736 34.62 73.7761 34.58 73.036 34.48V32.96C73.036 31.84 73.7961 31.14 75.0961 31.14C76.256 31.14 76.916 31.68 76.916 32.98ZM84.5484 40.14C87.0884 40.14 87.8884 38.48 87.8884 36.1V33.5C87.8884 31.26 86.8084 29.72 84.7084 29.72C83.6684 29.72 82.6884 30.12 81.7884 30.6C81.5884 30.32 81.3284 30.12 81.0084 30.12C80.6684 30.12 80.3084 30.4 80.3084 30.82C80.3084 31 80.3684 31.1 80.4484 31.22C80.6884 31.58 80.7684 31.96 80.7684 32.62V43.54C80.7684 43.96 81.0484 44.3 81.5484 44.3C82.0484 44.3 82.3284 43.96 82.3284 43.54V39.76C83.0484 40 83.8684 40.14 84.5484 40.14ZM82.3284 32.62C82.3284 32.38 82.2884 32.1 82.2284 31.8C82.9084 31.38 83.7084 31.12 84.3884 31.12C85.7084 31.12 86.3284 31.94 86.3284 33.5V36.1C86.3284 37.96 85.8084 38.78 84.3484 38.78C83.8484 38.78 82.9684 38.66 82.3284 38.36V32.62ZM93.4192 38.78C91.9792 38.78 91.2392 38.06 91.2392 36.94V35.76C91.9392 35.88 92.6792 35.94 93.2792 35.94C95.6592 35.94 96.6592 34.82 96.6592 32.98C96.6592 31 95.5592 29.72 93.3392 29.72C90.9592 29.72 89.6792 31.18 89.6792 33.1V36.84C89.6792 38.72 90.9792 40.16 93.2392 40.16C94.3192 40.16 96.4792 39.84 96.4792 38.86C96.4792 38.5 96.1792 38.16 95.7792 38.16C95.6392 38.16 95.5392 38.2 95.4992 38.22C94.7992 38.54 94.2592 38.78 93.4192 38.78ZM95.1192 32.98C95.1192 33.8 94.8592 34.62 93.3392 34.62C92.9392 34.62 91.9792 34.58 91.2392 34.48V32.96C91.2392 31.84 91.9992 31.14 93.2992 31.14C94.4592 31.14 95.1192 31.68 95.1192 32.98ZM106.744 39.38V30.68C106.744 30.26 106.404 29.9 105.964 29.9H101.364C101.064 29.9 100.664 30.1 100.604 30.68L100.084 36.86C99.9845 38.08 99.6645 38.66 98.9445 38.66C98.8045 38.66 98.8045 38.64 98.6845 38.64C98.3245 38.64 97.9445 38.86 97.9445 39.4C97.9445 40.08 98.5445 40.1 99.1645 40.1C100.744 40.1 101.404 38.76 101.564 36.74L102.004 31.22H105.184V39.38C105.184 39.82 105.524 40.16 105.964 40.16C106.404 40.16 106.744 39.82 106.744 39.38ZM112.853 38.78C111.413 38.78 110.673 38.06 110.673 36.94V35.76C111.373 35.88 112.113 35.94 112.713 35.94C115.093 35.94 116.093 34.82 116.093 32.98C116.093 31 114.993 29.72 112.773 29.72C110.393 29.72 109.113 31.18 109.113 33.1V36.84C109.113 38.72 110.413 40.16 112.673 40.16C113.753 40.16 115.913 39.84 115.913 38.86C115.913 38.5 115.613 38.16 115.213 38.16C115.073 38.16 114.973 38.2 114.933 38.22C114.233 38.54 113.693 38.78 112.853 38.78ZM114.553 32.98C114.553 33.8 114.293 34.62 112.773 34.62C112.373 34.62 111.413 34.58 110.673 34.48V32.96C110.673 31.84 111.433 31.14 112.733 31.14C113.893 31.14 114.553 31.68 114.553 32.98ZM121.725 31.38H123.805C124.205 31.38 124.525 31.06 124.525 30.64C124.525 30.22 124.205 29.9 123.805 29.9H118.085C117.685 29.9 117.365 30.22 117.365 30.64C117.365 31.06 117.685 31.38 118.085 31.38H120.165V39.38C120.165 39.82 120.505 40.16 120.945 40.16C121.385 40.16 121.725 39.82 121.725 39.38V31.38Z" fill="white"/>
</svg>
