<svg width="130" height="63" viewBox="0 0 130 63" fill="none" xmlns="http://www.w3.org/2000/svg">
<rect y="7" width="130" height="56" rx="4" fill="#101D41"/>
<path d="M65 0L70.298 7.5H59.702L65 0Z" fill="#101D41"/>
<path d="M23.4472 31.9V27.46H26.0872C27.8872 27.46 28.4872 28.46 28.4872 29.52C28.4872 31.14 27.0472 31.9 25.7472 31.9H23.4472ZM25.8072 33.46C27.5672 33.46 28.8672 34.36 28.8672 36.02C28.8672 37.46 27.8872 38.44 25.8872 38.44H23.4472V33.46H25.8072ZM26.1072 40C28.8072 40 30.4672 38.26 30.4672 36C30.4672 33.76 28.8472 33.16 27.5072 32.74C28.9872 32.12 30.0872 31.26 30.0872 29.54C30.0872 27.68 28.7872 25.9 26.1872 25.9H22.8072C22.2872 25.9 21.8472 26.32 21.8472 26.86V39.04C21.8472 39.56 22.2672 40 22.8072 40H26.1072ZM35.867 38.78C34.427 38.78 33.687 38.06 33.687 36.94V35.76C34.387 35.88 35.127 35.94 35.727 35.94C38.107 35.94 39.107 34.82 39.107 32.98C39.107 31 38.007 29.72 35.787 29.72C33.407 29.72 32.127 31.18 32.127 33.1V36.84C32.127 38.72 33.427 40.16 35.687 40.16C36.767 40.16 38.927 39.84 38.927 38.86C38.927 38.5 38.627 38.16 38.227 38.16C38.087 38.16 37.987 38.2 37.947 38.22C37.247 38.54 36.707 38.78 35.867 38.78ZM37.567 32.98C37.567 33.8 37.307 34.62 35.787 34.62C35.387 34.62 34.427 34.58 33.687 34.48V32.96C33.687 31.84 34.447 31.14 35.747 31.14C36.907 31.14 37.567 31.68 37.567 32.98ZM49.1923 39.38V30.68C49.1923 30.26 48.8523 29.9 48.4123 29.9H43.8123C43.5123 29.9 43.1123 30.1 43.0523 30.68L42.5323 36.86C42.4323 38.08 42.1123 38.66 41.3923 38.66C41.2523 38.66 41.2523 38.64 41.1323 38.64C40.7723 38.64 40.3923 38.86 40.3923 39.4C40.3923 40.08 40.9923 40.1 41.6123 40.1C43.1923 40.1 43.8523 38.76 44.0123 36.74L44.4523 31.22H47.6323V39.38C47.6323 39.82 47.9723 40.16 48.4123 40.16C48.8523 40.16 49.1923 39.82 49.1923 39.38ZM55.3006 40.16C57.7406 40.16 59.0406 38.6 59.0406 36.6V33.26C59.0406 31.26 57.7406 29.7 55.3006 29.7C52.8606 29.7 51.5606 31.26 51.5606 33.26V36.6C51.5606 38.6 52.8606 40.16 55.3006 40.16ZM55.3006 38.72C53.8606 38.72 53.1206 37.92 53.1206 36.6V33.24C53.1206 31.94 53.8606 31.14 55.3006 31.14C56.7406 31.14 57.4806 31.94 57.4806 33.24V36.6C57.4806 37.92 56.7406 38.72 55.3006 38.72ZM60.8575 36.48C60.8575 38.54 61.9375 40.16 64.4375 40.16C65.3775 40.16 67.2175 39.88 67.2175 38.94C67.2175 38.58 66.9175 38.26 66.5375 38.26C66.4375 38.26 66.3375 38.28 66.2175 38.32C65.7375 38.56 65.2975 38.78 64.5975 38.78C63.0375 38.78 62.4175 37.94 62.4175 36.48V33.46C62.4175 32 63.0375 31.16 64.5975 31.16C65.2975 31.16 65.7375 31.38 66.2175 31.62C66.3375 31.66 66.4375 31.68 66.5375 31.68C66.9175 31.68 67.2175 31.36 67.2175 31C67.2175 30.06 65.3775 29.78 64.4375 29.78C61.9375 29.78 60.8575 31.4 60.8575 33.46V36.48ZM70.0905 40.2C70.4105 40.2 70.7105 40.02 70.8905 39.74L75.3105 32.64V39.38C75.3105 39.82 75.6505 40.2 76.0905 40.2C76.5305 40.2 76.8705 39.82 76.8705 39.38V30.64C76.8705 30.14 76.5305 29.76 76.0305 29.76C75.6905 29.76 75.3705 29.94 75.2105 30.24L70.7705 37.32V30.58C70.7705 30.14 70.4105 29.76 69.9705 29.76C69.5305 29.76 69.2105 30.14 69.2105 30.58V39.32C69.2105 39.8 69.5705 40.2 70.0905 40.2ZM81.3759 39.38V31.22H85.4159V39.38C85.4159 39.82 85.7559 40.16 86.1959 40.16C86.6359 40.16 86.9759 39.82 86.9759 39.38V30.68C86.9759 30.26 86.6359 29.9 86.1959 29.9H80.5959C80.1559 29.9 79.8159 30.26 79.8159 30.68V39.38C79.8159 39.82 80.1559 40.16 80.5959 40.16C81.0359 40.16 81.3759 39.82 81.3759 39.38ZM93.0741 38.78C91.6341 38.78 90.8941 38.06 90.8941 36.94V35.76C91.5941 35.88 92.3341 35.94 92.9341 35.94C95.3141 35.94 96.3141 34.82 96.3141 32.98C96.3141 31 95.2141 29.72 92.9941 29.72C90.6141 29.72 89.3341 31.18 89.3341 33.1V36.84C89.3341 38.72 90.6341 40.16 92.8941 40.16C93.9741 40.16 96.1341 39.84 96.1341 38.86C96.1341 38.5 95.8341 38.16 95.4341 38.16C95.2941 38.16 95.1941 38.2 95.1541 38.22C94.4541 38.54 93.9141 38.78 93.0741 38.78ZM94.7741 32.98C94.7741 33.8 94.5141 34.62 92.9941 34.62C92.5941 34.62 91.6341 34.58 90.8941 34.48V32.96C90.8941 31.84 91.6541 31.14 92.9541 31.14C94.1141 31.14 94.7741 31.68 94.7741 32.98ZM105.286 29.9H100.686C100.386 29.9 99.9864 30.1 99.9264 30.68L99.7464 34.74C99.6464 36.66 99.3264 38.06 98.7064 38.68H98.3264C97.8864 38.68 97.5464 39.02 97.5464 39.46V42.02C97.5464 42.46 97.8864 42.8 98.3264 42.8C98.7664 42.8 99.1064 42.46 99.1064 42.02V40H105.826V42.02C105.826 42.46 106.166 42.8 106.606 42.8C107.046 42.8 107.386 42.46 107.386 42.02V39.46C107.386 39.02 107.046 38.68 106.606 38.68H106.066V30.68C106.066 30.26 105.726 29.9 105.286 29.9ZM101.206 34.74L101.346 31.22H104.506V38.68H100.306C100.866 37.76 101.146 36.4 101.206 34.74Z" fill="white"/>
</svg>
