<svg width="156" height="42" viewBox="0 0 156 42" fill="none" xmlns="http://www.w3.org/2000/svg">
<path d="M78.0162 10.6205L44.7361 41.9998L32.5887 1.77148L78.0162 10.6205Z" fill="#FF8D30"/>
<ellipse cx="78.6236" cy="28.4735" rx="3.613" ry="3.57161" fill="#88BFEB"/>
<ellipse cx="92.8495" cy="18.0862" rx="12.5943" ry="12.45" fill="#EB9898"/>
<rect width="46.6582" height="23.5536" transform="matrix(0.939135 -0.343549 0.350582 0.936532 85.439 19.5747)" fill="#72A73E"/>
<ellipse cx="91.3341" cy="34.1406" rx="2.11696" ry="2.09272" fill="#FFBD30"/>
<ellipse rx="18.9194" ry="7.58723" transform="matrix(0.970246 0.242122 -0.247424 0.968907 132.047 28.0498)" fill="#8EC7F5"/>
<ellipse cx="146.385" cy="10.2557" rx="2.15293" ry="2.12827" fill="#FFBD30"/>
<ellipse cx="153.101" cy="7.72739" rx="2.15293" ry="2.12827" fill="#FFBD30"/>
<path d="M3.34155 35.3491H8.33248V37.6689C8.33248 38.2212 7.88477 38.6689 7.33248 38.6689H4.34155C3.78927 38.6689 3.34155 38.2212 3.34155 37.6689V35.3491Z" fill="#1D2959"/>
<path d="M34.2032 35.3491H39.1942V37.6689C39.1942 38.2212 38.7465 38.6689 38.1942 38.6689H35.2032C34.651 38.6689 34.2032 38.2212 34.2032 37.6689V35.3491Z" fill="#1D2959"/>
<path fill-rule="evenodd" clip-rule="evenodd" d="M23.9205 2.93804C22.947 2.55374 21.8836 2.24535 21.112 2.26056C20.3856 2.27488 19.3909 2.58611 18.4833 2.96056C17.9752 3.1702 17.4736 3.40137 16.99 3.6628L16.9868 3.66455C16.4147 3.97905 15.6944 3.77264 15.3782 3.20325C15.062 2.63378 15.2695 1.91701 15.8417 1.6023C16.0084 1.51188 16.1773 1.42555 16.3473 1.34147C16.653 1.19024 17.082 0.9881 17.5767 0.783995C18.5254 0.392564 19.8677 0.024811 21.0651 0.00120765C22.3393 -0.0239095 23.7771 0.346681 24.7933 0.747828C25.4274 0.998099 26.0525 1.27466 26.6532 1.59671L26.654 1.59711C27.229 1.90657 27.4432 2.62141 27.1322 3.19375C26.8231 3.76289 26.0944 3.97184 25.5245 3.66786C25.3788 3.59088 25.231 3.51777 25.0825 3.4464C24.7922 3.30694 24.3853 3.12153 23.9205 2.93804Z" fill="#8A4A38"/>
<path fill-rule="evenodd" clip-rule="evenodd" d="M15.9928 1.44971C15.4619 1.44971 15.0315 1.88011 15.0315 2.41104V3.02569C15.0315 3.46813 15.3902 3.8268 15.8326 3.8268H15.8543V6.8939H16.6931V3.80486H16.4747C17.0218 3.69835 17.4348 3.21653 17.4348 2.63825C17.4348 1.98184 16.9027 1.44971 16.2463 1.44971H15.9928Z" fill="#F6EF3E"/>
<path fill-rule="evenodd" clip-rule="evenodd" d="M26.5127 1.44971C27.0436 1.44971 27.474 1.88011 27.474 2.41104V3.02569C27.474 3.46813 27.1153 3.8268 26.6729 3.8268H26.6512V6.8939H25.8124V3.80486H26.0308C25.4837 3.69835 25.0707 3.21653 25.0707 2.63825C25.0707 1.98184 25.6028 1.44971 26.2592 1.44971H26.5127Z" fill="#F6EF3E"/>
<path d="M0 15.52C0 10.5495 4.02944 6.52002 9 6.52002H33.5399C38.5105 6.52002 42.5399 10.5495 42.5399 15.52V35.3488H0V15.52Z" fill="#8A4A38"/>
<ellipse cx="6.68408" cy="27.9277" rx="4.16748" ry="4.12104" fill="#EF9A9A"/>
<ellipse rx="4.01571" ry="7.727" transform="matrix(0.700848 -0.71331 0.721334 0.692588 32.7661 28.0697)" fill="#93C6EB"/>
<rect width="13.6922" height="7.62634" transform="matrix(0.688909 -0.724848 0.732721 0.680529 16.3958 17.9053)" fill="#C2DEA3"/>
<rect width="6.95591" height="5.21665" rx="1" transform="matrix(0.733892 0.679267 -0.687658 0.726035 8.78491 11.1396)" fill="#C49A6C"/>
<rect x="8.33264" y="19.3623" width="5.86679" height="16.7996" fill="#F57B20"/>
<path d="M8.33264 5.43408H14.1994V19.9818C14.1994 21.6019 12.8861 22.9152 11.266 22.9152V22.9152C9.64597 22.9152 8.33264 21.6019 8.33264 19.9818V5.43408Z" fill="#F6A725"/>
<rect x="7.51941" y="18.042" width="7.49871" height="1.64937" fill="#F6EF3E"/>
<rect x="28.3462" y="19.3623" width="5.86679" height="16.7996" fill="#F57B20"/>
<path d="M28.3462 5.43408H34.213V19.9818C34.213 21.6019 32.8997 22.9152 31.2796 22.9152V22.9152C29.6595 22.9152 28.3462 21.6019 28.3462 19.9818V5.43408Z" fill="#F6A725"/>
<rect x="27.533" y="18.042" width="7.49871" height="1.64937" fill="#F6EF3E"/>
</svg>
