<svg width="111" height="21" viewBox="0 0 111 21" fill="none" xmlns="http://www.w3.org/2000/svg">
<g filter="url(#filter0_d_13536_3145)">
<path d="M107.789 8.05711C108.596 7.5496 109 6.76718 109 5.70986C109 4.32829 108.419 3.24278 107.257 2.45331C106.127 1.64975 104.795 1.24797 103.261 1.24797C101.76 1.24797 100.388 1.68499 99.1446 2.55904C97.9177 3.419 97.3043 4.56795 97.3043 6.00591C97.3043 6.54162 97.4738 6.98569 97.8128 7.33813C98.1518 7.67648 98.6361 7.84565 99.2657 7.84565C99.8791 7.84565 100.347 7.67648 100.67 7.33813C101.009 6.98569 101.179 6.54162 101.179 6.00591C101.146 5.59708 101.284 5.1812 101.59 4.75827C101.897 4.32125 102.454 4.10273 103.261 4.10273C103.939 4.11683 104.423 4.286 104.714 4.61025C105.021 4.93449 105.158 5.25874 105.126 5.58298C105.126 5.80854 105.045 6.0341 104.884 6.25967C104.722 6.48523 104.553 6.66145 104.375 6.78833C104.214 6.91521 103.947 7.09847 103.576 7.33813C103.205 7.57779 102.946 7.74697 102.801 7.84565C101.962 8.45185 101.542 9.25541 101.542 10.2563C101.542 10.7498 101.719 11.1656 102.075 11.504C102.446 11.8282 102.938 11.9903 103.552 11.9903C104.165 11.9903 104.649 11.8282 105.005 11.504C105.376 11.1656 105.562 10.7498 105.562 10.2563C105.562 10.0449 105.602 9.84751 105.683 9.66424C105.763 9.48097 105.892 9.3118 106.07 9.15673C106.264 9.00165 106.425 8.87477 106.554 8.77609C106.7 8.67741 106.91 8.55053 107.184 8.39545C107.475 8.24038 107.676 8.1276 107.789 8.05711Z" fill="#192144"/>
<path d="M87.098 12.5094L91.3867 7.25918C91.8266 6.62541 92.4236 6.27251 93.1776 6.20049C93.9317 6.11407 94.5915 6.29412 95.157 6.74064C95.7226 7.18716 95.9896 7.78493 95.9582 8.53393V16.0528C95.9582 16.5281 95.7697 16.9314 95.3927 17.2627C95.0313 17.5796 94.5915 17.7381 94.0731 17.7381C93.5547 17.7381 93.1069 17.5796 92.7299 17.2627C92.3686 16.9314 92.1879 16.5281 92.1879 16.0528V11.3859L87.8992 16.6362C87.4593 17.2699 86.8624 17.6228 86.1083 17.6949C85.3543 17.7813 84.6945 17.6012 84.1289 17.1547C83.5634 16.7082 83.2963 16.1104 83.3277 15.3614V7.86415C83.3277 7.38882 83.5084 6.98551 83.8697 6.65422C84.2467 6.32292 84.6945 6.15728 85.2129 6.15728C85.7313 6.15728 86.1712 6.32292 86.5325 6.65422C86.9095 6.98551 87.098 7.38882 87.098 7.86415V12.5094Z" fill="#192144"/>
<path fill-rule="evenodd" clip-rule="evenodd" d="M67.8165 15.9791V7.82197C67.8165 7.35292 67.6183 6.94983 67.2219 6.6127C66.8413 6.26091 66.3894 6.08502 65.8661 6.08502C65.3587 6.08502 64.9147 6.26091 64.5342 6.6127C64.1536 6.94983 63.9633 7.35292 63.9633 7.82197V7.62409C63.773 7.18435 63.3925 6.81058 62.8216 6.50277C62.2508 6.18029 61.6006 6.01906 60.8712 6.01906C59.4441 6.01906 58.128 6.53941 56.9229 7.58012C55.7495 8.62082 55.1628 10.05 55.1628 11.8675C55.1628 13.7291 55.7416 15.1729 56.8991 16.1989C58.0566 17.225 59.3807 17.738 60.8712 17.738C61.6006 17.738 62.2428 17.6061 62.7978 17.3422C63.3528 17.0637 63.7572 16.7339 64.0109 16.3528C64.106 16.7486 64.328 17.0784 64.6769 17.3422C65.0257 17.5914 65.4221 17.716 65.8661 17.716C66.3894 17.716 66.8413 17.5474 67.2219 17.2103C67.6183 16.8732 67.8165 16.4628 67.8165 15.9791ZM61.7333 14.4801C63.0332 14.4801 64.087 13.3516 64.087 11.9595C64.087 10.5674 63.0332 9.43892 61.7333 9.43892C60.4334 9.43892 59.3796 10.5674 59.3796 11.9595C59.3796 13.3516 60.4334 14.4801 61.7333 14.4801Z" fill="#192144"/>
<path d="M50.1504 10.3111V7.9534C50.1504 7.47437 50.3467 7.06793 50.7394 6.73406C51.132 6.38568 51.59 6.21149 52.1135 6.21149C52.637 6.21149 53.0951 6.38568 53.4877 6.73406C53.8803 7.06793 54.0766 7.47437 54.0766 7.9534V16.0315C54.0766 16.5105 53.8803 16.9169 53.4877 17.2508C53.1114 17.5847 52.6534 17.7516 52.1135 17.7516C51.5737 17.7516 51.1074 17.5847 50.7148 17.2508C50.3386 16.9169 50.1504 16.5105 50.1504 16.0315V13.639H45.9053V16.0315C45.9053 16.5105 45.709 16.9169 45.3164 17.2508C44.9401 17.5847 44.4821 17.7516 43.9422 17.7516C43.4024 17.7516 42.9361 17.5847 42.5435 17.2508C42.1673 16.9169 41.9791 16.5105 41.9791 16.0315V7.9534C41.9791 7.47437 42.1754 7.06793 42.5681 6.73406C42.9607 6.38568 43.4187 6.21149 43.9422 6.21149C44.4657 6.21149 44.9237 6.38568 45.3164 6.73406C45.709 7.06793 45.9053 7.47437 45.9053 7.9534V10.3111H50.1504Z" fill="#192144"/>
<path d="M40.0093 6.21149C40.3939 6.21149 40.7235 6.35583 40.9982 6.64449C41.2729 6.93315 41.4102 7.59849 41.4102 8.00261C41.4102 8.40674 41.2729 8.8246 40.9982 9.11326C40.7235 9.40193 40.3939 9.50346 40.0093 9.50346H36.7193V16.073C36.7193 17.3163 35.6144 17.7517 34.5065 17.7517C33.4785 17.7517 32.497 17.2008 32.497 16.0847L32.531 6.21149C32.531 6.21149 38.2633 6.21149 40.0093 6.21149Z" fill="#192144"/>
<path d="M16.5366 1.24797V15.916C16.5366 16.3997 16.2711 16.81 15.9031 17.1471C15.5504 17.4843 14.9961 17.6528 14.4901 17.6528C13.9841 17.6528 13.2526 17.4843 12.8846 17.1471C12.5319 16.81 12.3556 16.3996 12.3556 15.9159V4.55876H6.43578V15.9159C6.43578 16.3996 6.25177 16.81 5.88376 17.1471C5.53108 17.4843 4.81302 17.6528 4.30701 17.6528C3.80099 17.6528 3.13775 17.4843 2.76974 17.1471C2.41706 16.81 2.24072 16.3996 2.24072 15.9159V1.24797C6.97886 1.24797 16.5366 1.24797 16.5366 1.24797Z" fill="#192144"/>
<path d="M29.6395 15.9528C28.4423 17.0648 26.8401 17.6209 24.833 17.6209C22.8259 17.6209 21.2326 17.0648 20.053 15.9528C18.8382 14.8241 18.2308 13.4133 18.2308 11.7203C18.2308 10.0107 18.8382 8.59982 20.053 7.48775C21.2326 6.37568 22.8259 5.81964 24.833 5.81964C26.8401 5.81964 28.4423 6.37568 29.6395 7.48775C30.8367 8.61641 31.4353 10.0272 31.4353 11.7203C31.4353 13.4133 30.8367 14.8241 29.6395 15.9528ZM26.5232 9.97745C26.1887 9.62889 25.7749 9.42142 25.282 9.35503C24.8066 9.27204 24.3489 9.31353 23.9087 9.47951C23.4862 9.64549 23.1252 9.92766 22.8259 10.326C22.5442 10.7244 22.421 11.1891 22.4562 11.7203C22.4562 12.4174 22.6763 12.9983 23.1164 13.463C23.5742 13.9112 24.1464 14.1353 24.833 14.1353C25.5373 14.1353 26.1095 13.9195 26.5496 13.4879C26.9898 13.0398 27.2098 12.4506 27.2098 11.7203C27.2098 11.0231 26.981 10.4422 26.5232 9.97745Z" fill="#192144"/>
<path d="M73.438 6.15728C75.6888 6.15728 81.6866 6.19036 81.6866 6.19036C81.6866 6.19036 81.6911 13.4421 81.6911 15.9763C81.6911 16.463 81.4887 16.8826 81.0838 17.2351C80.6974 17.5708 80.3478 17.7386 79.7589 17.7386C79.1701 17.7386 78.87 17.7828 78.4651 17.4471C78.0787 17.0946 77.7231 16.463 77.7231 15.9763V9.43027H74.9914C74.9914 14.1227 74.9915 15.1537 73.2448 16.8323C72.6007 17.4365 71.7726 17.7386 70.7605 17.7386C70.1533 17.7386 69.7965 17.5946 69.4101 17.2589C69.0237 16.9065 68.7237 16.344 68.7237 15.8236C68.7237 14.7036 68.9613 14.2578 69.5685 13.5271C71.3108 13.5271 71.2353 13.1096 71.1261 9.93381V7.91966C71.1445 7.43291 71.2353 6.15728 71.2353 6.15728C71.2353 6.15728 72.9043 6.15728 73.438 6.15728Z" fill="#192144"/>
<path d="M105.841 15.2707C105.841 16.6333 104.674 17.7379 103.234 17.7379C101.794 17.7379 100.627 16.6333 100.627 15.2707C100.627 13.9081 101.794 12.8035 103.234 12.8035C104.674 12.8035 105.841 13.9081 105.841 15.2707Z" fill="#192144"/>
</g>
<defs>
<filter id="filter0_d_13536_3145" x="0.240723" y="0.247967" width="110.759" height="20.5037" filterUnits="userSpaceOnUse" color-interpolation-filters="sRGB">
<feFlood flood-opacity="0" result="BackgroundImageFix"/>
<feColorMatrix in="SourceAlpha" type="matrix" values="0 0 0 0 0 0 0 0 0 0 0 0 0 0 0 0 0 0 127 0" result="hardAlpha"/>
<feOffset dy="1"/>
<feGaussianBlur stdDeviation="1"/>
<feColorMatrix type="matrix" values="0 0 0 0 0 0 0 0 0 0 0 0 0 0 0 0 0 0 0.3 0"/>
<feBlend mode="normal" in2="BackgroundImageFix" result="effect1_dropShadow_13536_3145"/>
<feBlend mode="normal" in="SourceGraphic" in2="effect1_dropShadow_13536_3145" result="shape"/>
</filter>
</defs>
</svg>
