<svg width="133" height="25" viewBox="0 0 133 25" fill="none" xmlns="http://www.w3.org/2000/svg">
<g filter="url(#filter0_d_13528_964)">
<path d="M129.541 9.68704C130.513 9.08286 131 8.15141 131 6.8927C131 5.24797 130.299 3.95569 128.899 3.01585C127.538 2.05923 125.933 1.58092 124.085 1.58092C122.276 1.58092 120.623 2.10119 119.126 3.14172C117.647 4.16548 116.908 5.53328 116.908 7.24514C116.908 7.88288 117.113 8.41154 117.521 8.83112C117.929 9.23391 118.513 9.4353 119.272 9.4353C120.011 9.4353 120.575 9.23391 120.964 8.83112C121.372 8.41154 121.576 7.88288 121.576 7.24514C121.537 6.75843 121.703 6.26334 122.072 5.75985C122.442 5.23958 123.113 4.97945 124.085 4.97945C124.902 4.99623 125.486 5.19763 125.836 5.58363C126.205 5.96964 126.371 6.35564 126.332 6.74165C126.332 7.01017 126.235 7.2787 126.04 7.54723C125.846 7.81575 125.641 8.02554 125.427 8.17658C125.233 8.32763 124.912 8.54581 124.465 8.83112C124.017 9.11643 123.706 9.31782 123.531 9.4353C122.52 10.157 122.014 11.1136 122.014 12.3052C122.014 12.8926 122.228 13.3877 122.656 13.7905C123.103 14.1765 123.696 14.3695 124.435 14.3695C125.174 14.3695 125.758 14.1765 126.186 13.7905C126.633 13.3877 126.857 12.8926 126.857 12.3052C126.857 12.0534 126.906 11.8185 127.003 11.6003C127.1 11.3821 127.256 11.1807 127.47 10.9961C127.703 10.8115 127.897 10.6604 128.053 10.543C128.228 10.4255 128.481 10.2744 128.812 10.0898C129.162 9.90522 129.405 9.77096 129.541 9.68704Z" fill="white"/>
<path d="M104.612 14.9874L109.779 8.73713C110.309 7.98263 111.028 7.56252 111.937 7.47678C112.845 7.37389 113.64 7.58824 114.321 8.11981C115.003 8.65139 115.324 9.36301 115.287 10.2547V19.2057C115.287 19.7716 115.059 20.2517 114.605 20.6461C114.17 21.0234 113.64 21.212 113.015 21.212C112.391 21.212 111.851 21.0234 111.397 20.6461C110.962 20.2517 110.744 19.7716 110.744 19.2057V13.6499L105.577 19.9002C105.047 20.6547 104.328 21.0748 103.419 21.1606C102.511 21.2634 101.716 21.0491 101.034 20.5175C100.353 19.9859 100.031 19.2743 100.069 18.3826V9.45732C100.069 8.89145 100.287 8.41132 100.722 8.01693C101.176 7.62253 101.716 7.42534 102.34 7.42534C102.965 7.42534 103.495 7.62253 103.93 8.01693C104.385 8.41132 104.612 8.89145 104.612 9.45732V14.9874Z" fill="white"/>
<path fill-rule="evenodd" clip-rule="evenodd" d="M81.381 19.1179V9.40711C81.381 8.84872 81.1422 8.36885 80.6645 7.9675C80.206 7.54871 79.6615 7.33931 79.0311 7.33931C78.4198 7.33931 77.8848 7.54871 77.4263 7.9675C76.9678 8.36885 76.7385 8.84872 76.7385 9.40711V9.17154C76.5093 8.64805 76.0508 8.20308 75.363 7.83663C74.6753 7.45273 73.892 7.26079 73.0132 7.26079C71.2938 7.26079 69.7081 7.88025 68.2561 9.11919C66.8424 10.3581 66.1355 12.0595 66.1355 14.2233C66.1355 16.4394 66.8328 18.1582 68.2275 19.3797C69.6221 20.6012 71.2173 21.2119 73.0132 21.2119C73.892 21.2119 74.6657 21.0549 75.3344 20.7408C76.003 20.4092 76.4902 20.0166 76.7959 19.5629C76.9105 20.034 77.178 20.4267 77.5983 20.7408C78.0186 21.0374 78.4962 21.1857 79.0311 21.1857C79.6615 21.1857 80.206 20.9851 80.6645 20.5837C81.1422 20.1824 81.381 19.6938 81.381 19.1179ZM74.0518 17.3335C75.6179 17.3335 76.8875 15.99 76.8875 14.3328C76.8875 12.6755 75.6179 11.3321 74.0518 11.3321C72.4857 11.3321 71.2161 12.6755 71.2161 14.3328C71.2161 15.99 72.4857 17.3335 74.0518 17.3335Z" fill="white"/>
<path d="M60.0965 12.3703V9.56357C60.0965 8.99331 60.3331 8.50944 60.8061 8.11199C61.2791 7.69725 61.831 7.48988 62.4617 7.48988C63.0924 7.48988 63.6443 7.69725 64.1173 8.11199C64.5903 8.50944 64.8269 8.99331 64.8269 9.56357V19.1803C64.8269 19.7506 64.5903 20.2345 64.1173 20.6319C63.664 21.0294 63.1121 21.2281 62.4617 21.2281C61.8113 21.2281 61.2496 21.0294 60.7765 20.6319C60.3232 20.2345 60.0965 19.7506 60.0965 19.1803V16.3321H54.9819V19.1803C54.9819 19.7506 54.7454 20.2345 54.2724 20.6319C53.819 21.0294 53.2672 21.2281 52.6168 21.2281C51.9663 21.2281 51.4046 21.0294 50.9316 20.6319C50.4783 20.2345 50.2516 19.7506 50.2516 19.1803V9.56357C50.2516 8.99331 50.4881 8.50944 50.9612 8.11199C51.4342 7.69725 51.986 7.48988 52.6168 7.48988C53.2475 7.48988 53.7993 7.69725 54.2724 8.11199C54.7454 8.50944 54.9819 8.99331 54.9819 9.56357V12.3703H60.0965Z" fill="white"/>
<path d="M47.8784 7.48988C48.3417 7.48988 48.7388 7.6617 49.0698 8.00535C49.4007 8.34899 49.5662 9.14106 49.5662 9.62216C49.5662 10.1033 49.4007 10.6007 49.0698 10.9444C48.7388 11.288 48.3417 11.4089 47.8784 11.4089H43.9145V19.2298C43.9145 20.7099 42.5833 21.2282 41.2484 21.2282C40.0099 21.2282 38.8274 20.5724 38.8274 19.2437L38.8683 7.48988C38.8683 7.48988 45.7747 7.48988 47.8784 7.48988Z" fill="white"/>
<path d="M19.598 1.58092V19.0428C19.598 19.6187 19.2781 20.1072 18.8347 20.5085C18.4098 20.9099 17.742 21.1105 17.1323 21.1105C16.5227 21.1105 15.6414 20.9099 15.198 20.5085C14.7731 20.1072 14.5606 19.6186 14.5606 19.0427V5.52233H7.4283V19.0427C7.4283 19.6186 7.20661 20.1072 6.76322 20.5085C6.33831 20.9099 5.47318 21.1105 4.86352 21.1105C4.25387 21.1105 3.45478 20.9099 3.01139 20.5085C2.58648 20.1072 2.37402 19.6186 2.37402 19.0427V1.58092C8.08262 1.58092 19.598 1.58092 19.598 1.58092Z" fill="white"/>
<path d="M35.3845 19.0866C33.9421 20.4105 32.0118 21.0725 29.5936 21.0725C27.1755 21.0725 25.2558 20.4105 23.8346 19.0866C22.3709 17.743 21.6391 16.0634 21.6391 14.0479C21.6391 12.0127 22.3709 10.3331 23.8346 9.00922C25.2558 7.68533 27.1755 7.02339 29.5936 7.02339C32.0118 7.02339 33.9421 7.68533 35.3845 9.00922C36.827 10.3529 37.5482 12.0324 37.5482 14.0479C37.5482 16.0634 36.827 17.743 35.3845 19.0866ZM31.63 11.9732C31.227 11.5582 30.7285 11.3112 30.1346 11.2322C29.5618 11.1334 29.0103 11.1828 28.48 11.3804C27.9709 11.578 27.5361 11.9139 27.1755 12.3881C26.8361 12.8623 26.6876 13.4156 26.73 14.0479C26.73 14.8778 26.9952 15.5694 27.5255 16.1227C28.077 16.6562 28.7664 16.9229 29.5936 16.9229C30.4421 16.9229 31.1315 16.6661 31.6618 16.1523C32.1921 15.6188 32.4573 14.9173 32.4573 14.0479C32.4573 13.218 32.1815 12.5264 31.63 11.9732Z" fill="white"/>
<path d="M88.1538 7.42534C90.8657 7.42534 98.0919 7.46471 98.0919 7.46471C98.0919 7.46471 98.0973 16.0977 98.0973 19.1146C98.0973 19.6941 97.8534 20.1936 97.3657 20.6132C96.9001 21.0129 96.4789 21.2127 95.7694 21.2127C95.0599 21.2127 94.6984 21.2652 94.2106 20.8656C93.745 20.446 93.3167 19.6941 93.3167 19.1146V11.3218H90.0254C90.0254 16.908 90.0255 18.1353 87.921 20.1337C87.145 20.853 86.1474 21.2127 84.928 21.2127C84.1964 21.2127 83.7665 21.0412 83.3009 20.6416C82.8354 20.222 82.474 19.5523 82.474 18.9329C82.474 17.5995 82.7602 17.0689 83.4918 16.199C85.591 16.199 85.5 15.7019 85.3684 11.9212V9.52341C85.3906 8.94394 85.5 7.42534 85.5 7.42534C85.5 7.42534 87.5109 7.42534 88.1538 7.42534Z" fill="white"/>
<path d="M127.194 18.2747C127.194 19.8968 125.788 21.2118 124.053 21.2118C122.318 21.2118 120.912 19.8968 120.912 18.2747C120.912 16.6525 122.318 15.3375 124.053 15.3375C125.788 15.3375 127.194 16.6525 127.194 18.2747Z" fill="white"/>
</g>
<defs>
<filter id="filter0_d_13528_964" x="0.374023" y="0.580917" width="132.625" height="23.6473" filterUnits="userSpaceOnUse" color-interpolation-filters="sRGB">
<feFlood flood-opacity="0" result="BackgroundImageFix"/>
<feColorMatrix in="SourceAlpha" type="matrix" values="0 0 0 0 0 0 0 0 0 0 0 0 0 0 0 0 0 0 127 0" result="hardAlpha"/>
<feOffset dy="1"/>
<feGaussianBlur stdDeviation="1"/>
<feColorMatrix type="matrix" values="0 0 0 0 0 0 0 0 0 0 0 0 0 0 0 0 0 0 0.3 0"/>
<feBlend mode="normal" in2="BackgroundImageFix" result="effect1_dropShadow_13528_964"/>
<feBlend mode="normal" in="SourceGraphic" in2="effect1_dropShadow_13528_964" result="shape"/>
</filter>
</defs>
</svg>
