<svg width="53" height="54" viewBox="0 0 53 54" fill="none" xmlns="http://www.w3.org/2000/svg">
<g filter="url(#filter0_d_20858_2129)">
<circle cx="26.5" cy="22.624" r="22.5" fill="#FFD74B"/>
</g>
<path d="M36.1242 13.6869C35.9155 13.5139 35.6639 13.4007 35.3961 13.3591C35.1283 13.3175 34.8542 13.3492 34.6029 13.4508L17.2639 20.4504C16.9837 20.5656 16.7451 20.7632 16.5799 21.0171C16.4147 21.271 16.3306 21.5691 16.3388 21.872C16.347 22.1748 16.4471 22.4679 16.6258 22.7125C16.8045 22.9571 17.0534 23.1416 17.3394 23.2414L21.0806 24.5401L23.1081 31.2427C23.1119 31.2562 23.1245 31.2649 23.1303 31.2775C23.1512 31.331 23.1817 31.3802 23.2203 31.4227C23.279 31.4882 23.3547 31.5361 23.439 31.5611C23.4487 31.5649 23.4555 31.5737 23.4652 31.5756H23.471L23.4739 31.5766C23.5487 31.5927 23.6265 31.5887 23.6994 31.5649C23.7071 31.563 23.7148 31.563 23.7236 31.5601C23.7935 31.5356 23.8567 31.4952 23.9084 31.442C23.9142 31.4353 23.9239 31.4343 23.9297 31.4285L26.8455 28.2098L31.1006 31.5049C31.359 31.7072 31.6774 31.8166 32.0055 31.8166C32.7158 31.8166 33.3284 31.3191 33.4745 30.6253L36.6313 15.124C36.6848 14.8608 36.666 14.5881 36.5766 14.3348C36.4873 14.0815 36.331 13.8573 36.1242 13.6859V13.6869ZM24.1658 25.8127L23.4816 29.1388L22.0542 24.4182L29.1332 20.7311L24.2974 25.5679C24.2305 25.6348 24.1847 25.7199 24.1658 25.8127ZM32.5261 30.4308C32.508 30.5185 32.4675 30.6001 32.4087 30.6677C32.3499 30.7354 32.2747 30.7867 32.1903 30.8169C32.108 30.8486 32.0188 30.8583 31.9316 30.845C31.8444 30.8318 31.7621 30.7961 31.6929 30.7414L27.0836 27.1714C26.9872 27.097 26.8663 27.0617 26.7451 27.0724C26.6238 27.0832 26.5111 27.1393 26.4294 27.2295L24.4 29.4659L25.0832 26.1495L32.0403 19.1914C32.1218 19.1097 32.1714 19.0015 32.1801 18.8864C32.1888 18.7713 32.1561 18.6569 32.0879 18.5638C32.0197 18.4707 31.9205 18.4051 31.8081 18.3787C31.6957 18.3524 31.5777 18.3671 31.4752 18.4201L21.4465 23.644L17.6558 22.3259C17.5553 22.2927 17.4676 22.229 17.405 22.1437C17.3424 22.0584 17.308 21.9556 17.3065 21.8498C17.3016 21.743 17.3302 21.6374 17.3881 21.5476C17.446 21.4577 17.5304 21.3882 17.6297 21.3485L34.9658 14.3488C35.0546 14.3111 35.1523 14.2989 35.2477 14.3136C35.3431 14.3283 35.4325 14.3693 35.5058 14.432C35.5787 14.4911 35.6338 14.5692 35.6649 14.6577C35.696 14.7462 35.7019 14.8417 35.6819 14.9333L32.5261 30.4317V30.4308Z" fill="black"/>
<defs>
<filter id="filter0_d_20858_2129" x="0" y="0.124023" width="53" height="53" filterUnits="userSpaceOnUse" color-interpolation-filters="sRGB">
<feFlood flood-opacity="0" result="BackgroundImageFix"/>
<feColorMatrix in="SourceAlpha" type="matrix" values="0 0 0 0 0 0 0 0 0 0 0 0 0 0 0 0 0 0 127 0" result="hardAlpha"/>
<feOffset dy="4"/>
<feGaussianBlur stdDeviation="2"/>
<feComposite in2="hardAlpha" operator="out"/>
<feColorMatrix type="matrix" values="0 0 0 0 0 0 0 0 0 0 0 0 0 0 0 0 0 0 0.25 0"/>
<feBlend mode="normal" in2="BackgroundImageFix" result="effect1_dropShadow_20858_2129"/>
<feBlend mode="normal" in="SourceGraphic" in2="effect1_dropShadow_20858_2129" result="shape"/>
</filter>
</defs>
</svg>
