<svg width="21" height="19" viewBox="0 0 21 19" fill="none" xmlns="http://www.w3.org/2000/svg">
<path d="M20.1242 0.686884C19.9155 0.513923 19.6639 0.400652 19.3961 0.359081C19.1283 0.31751 18.8542 0.349187 18.6029 0.450754L1.26387 7.45043C0.983684 7.56557 0.74514 7.76321 0.579909 8.0171C0.414678 8.271 0.330575 8.56914 0.338765 8.87196C0.346955 9.17477 0.44705 9.46793 0.625763 9.71253C0.804476 9.95712 1.05335 10.1416 1.33936 10.2414L5.08065 11.5401L7.10807 18.2427C7.11194 18.2562 7.12452 18.2649 7.13033 18.2775C7.15121 18.331 7.18172 18.3802 7.22033 18.4227C7.27899 18.4882 7.35471 18.5361 7.43904 18.5611C7.44871 18.5649 7.45549 18.5737 7.46516 18.5756H7.47097L7.47387 18.5766C7.54874 18.5927 7.62654 18.5887 7.69936 18.5649C7.7071 18.563 7.71484 18.563 7.72355 18.5601C7.79347 18.5356 7.85674 18.4952 7.90839 18.442C7.9142 18.4353 7.92387 18.4343 7.92968 18.4285L10.8455 15.2098L15.1006 18.5049C15.359 18.7072 15.6774 18.8166 16.0055 18.8166C16.7158 18.8166 17.3284 18.3191 17.4745 17.6253L20.6313 2.12398C20.6848 1.86083 20.666 1.58807 20.5766 1.33481C20.4873 1.08155 20.331 0.857277 20.1242 0.685916V0.686884ZM8.16581 12.8127L7.48162 16.1388L6.0542 11.4182L13.1332 7.73108L8.29742 12.5679C8.23046 12.6348 8.18468 12.7199 8.16581 12.8127V12.8127ZM16.5261 17.4308C16.508 17.5185 16.4675 17.6001 16.4087 17.6677C16.3499 17.7354 16.2747 17.7867 16.1903 17.8169C16.108 17.8486 16.0188 17.8583 15.9316 17.845C15.8444 17.8318 15.7621 17.7961 15.6929 17.7414L11.0836 14.1714C10.9872 14.097 10.8663 14.0617 10.7451 14.0724C10.6238 14.0832 10.5111 14.1393 10.4294 14.2295L8.4 16.4659L9.08323 13.1495L16.0403 6.1914C16.1218 6.10966 16.1714 6.00149 16.1801 5.88641C16.1888 5.77132 16.1561 5.65691 16.0879 5.56382C16.0197 5.47073 15.9205 5.40508 15.8081 5.37873C15.6957 5.35237 15.5777 5.36705 15.4752 5.42011L5.44645 10.644L1.65581 9.32592C1.5553 9.29273 1.46764 9.22903 1.40503 9.14369C1.34241 9.05835 1.30796 8.95562 1.30645 8.84979C1.30163 8.74302 1.33016 8.63739 1.38808 8.54757C1.446 8.45774 1.53044 8.38817 1.62968 8.3485L18.9658 1.34882C19.0546 1.31107 19.1523 1.29887 19.2477 1.31357C19.3431 1.32827 19.4325 1.3693 19.5058 1.43205C19.5787 1.49107 19.6338 1.5692 19.6649 1.65772C19.696 1.74624 19.7019 1.84166 19.6819 1.93334L16.5261 17.4317V17.4308Z" fill="black"/>
</svg>
