<svg width="45" height="46" viewBox="0 0 45 46" fill="none" xmlns="http://www.w3.org/2000/svg">
<circle cx="22.5" cy="22.624" r="22.5" fill="#FFD74B"/>
<path d="M31.8332 30.7888C31.0954 30.7722 30.3762 30.5543 29.7532 30.1588C29.1028 29.7192 28.5055 29.2058 27.9732 28.6288C27.5332 28.1888 26.8032 27.4488 26.5232 27.4488C26.2432 27.4488 26.0432 28.3688 26.0532 29.0188C26.0574 29.4674 25.8892 29.9006 25.5832 30.2288C25.2352 30.513 24.8105 30.6871 24.3632 30.7288H22.4432C19.6836 30.6681 17.0412 29.6012 15.0132 27.7288C11.3332 24.3588 8.17316 17.9188 8.04316 17.6388C7.91916 17.4048 7.86723 17.1394 7.89393 16.876C7.92063 16.6126 8.02475 16.363 8.19316 16.1588C8.5743 15.8409 9.05695 15.6706 9.55316 15.6788H13.6332H13.7532C14.0907 15.728 14.4143 15.8472 14.7032 16.0288C14.975 16.211 15.1926 16.4632 15.3332 16.7588C15.7643 17.6818 16.2589 18.574 16.8132 19.4288C18.1232 21.4288 18.7032 21.8888 18.9132 21.9888C19.1468 21.051 19.2111 20.0791 19.1032 19.1188C19.1382 18.6814 19.0661 18.242 18.8932 17.8388C18.6736 17.6631 18.404 17.5616 18.1232 17.5488L17.3932 16.8588C17.2532 16.1988 17.9832 15.6288 18.4932 15.4088C19.5109 15.0899 20.5787 14.961 21.6432 15.0288H22.3532C23.0752 15.01 23.797 15.0771 24.5032 15.2288C26.2032 15.5888 26.1432 16.9588 26.0732 18.5388C26.0732 18.9988 26.0232 19.5388 26.0232 20.1588C26.0232 20.3088 26.0232 20.4688 26.0232 20.6388C25.9838 21.0741 26.0142 21.513 26.1132 21.9388C26.9457 21.2423 27.6468 20.4024 28.1832 19.4588C28.7621 18.5665 29.2703 17.6303 29.7032 16.6588C29.835 16.3515 30.061 16.094 30.3485 15.9232C30.636 15.7525 30.9703 15.6774 31.3032 15.7088H35.5832C35.7095 15.6967 35.8368 15.6967 35.9632 15.7088C36.9632 15.7088 37.5532 15.9988 37.7932 16.5588C38.0332 17.1188 37.9632 18.2188 35.4332 21.1688L34.4332 22.2988C33.9487 22.7692 33.5314 23.3042 33.1932 23.8888C33.5719 24.3193 34.0018 24.7022 34.4732 25.0288C35.6224 25.8948 36.6339 26.9298 37.4732 28.0988C37.67 28.3261 37.7988 28.6042 37.8447 28.9014C37.8907 29.1985 37.8521 29.5026 37.7332 29.7788C37.5236 30.0846 37.2432 30.3353 36.9159 30.5094C36.5885 30.6836 36.2239 30.776 35.8532 30.7788L32.0632 30.8288L31.8332 30.7888ZM26.5232 25.9488C27.4232 25.9488 28.2032 26.7388 29.0332 27.5688C29.4815 28.0583 29.9848 28.4946 30.5332 28.8688C30.9478 29.1445 31.4352 29.2907 31.9332 29.2888H32.0332L35.8332 29.2388C36.0206 29.228 36.2041 29.1804 36.3732 29.0988L36.2732 28.9388C35.5162 27.9072 34.6134 26.991 33.5932 26.2188C32.4032 25.2188 31.7932 24.7488 31.7232 23.9788C31.6532 23.2088 32.2132 22.5388 33.3332 21.2688L34.3332 20.1588C35.1774 19.2976 35.8705 18.3003 36.3832 17.2088C36.16 17.1955 35.9363 17.1955 35.7132 17.2088H31.3432C31.2641 17.1911 31.1822 17.1911 31.1032 17.2088C30.6403 18.2702 30.0883 19.2905 29.4532 20.2588C27.5632 23.0788 26.6732 23.4588 26.0432 23.4588C25.8478 23.4588 25.6555 23.4107 25.4832 23.3188C24.4832 22.7488 24.4832 21.4788 24.5432 20.5588C24.5432 20.4088 24.5432 20.2588 24.5432 20.1288C24.5432 19.4788 24.5432 18.9188 24.5932 18.4388C24.6732 16.7588 24.5932 16.7488 24.2132 16.6588C23.6009 16.5378 22.9771 16.4841 22.3532 16.4988H21.6632C21.0282 16.4856 20.3932 16.5191 19.7632 16.5988C19.8586 16.6691 19.9429 16.7533 20.0132 16.8488C20.4256 17.4991 20.6313 18.2592 20.6032 19.0288C20.7332 20.6788 20.6632 22.8288 19.6032 23.3488C19.4155 23.4366 19.2104 23.481 19.0032 23.4788C18.0732 23.4788 17.1532 22.5988 15.5832 20.2188C14.9807 19.3075 14.4427 18.3551 13.9732 17.3688L13.8932 17.2688C13.7922 17.2173 13.6845 17.1803 13.5732 17.1588H9.57316H9.50316C10.0932 18.3788 12.8932 23.7788 16.0232 26.6088C17.7807 28.2235 20.0579 29.1563 22.4432 29.2388H24.2932C24.3875 29.2186 24.4785 29.1849 24.5632 29.1388C24.5632 29.1388 24.5632 29.1388 24.5632 29.0488C24.5632 28.7788 24.5632 26.4488 26.1432 26.0488C26.2655 26.0006 26.393 25.967 26.5232 25.9488Z" fill="#192144"/>
</svg>
