<svg width="31" height="16" viewBox="0 0 31 16" fill="none" xmlns="http://www.w3.org/2000/svg">
<path d="M24.8332 15.7888C24.0954 15.7722 23.3762 15.5543 22.7532 15.1588C22.1028 14.7192 21.5055 14.2058 20.9732 13.6288C20.5332 13.1888 19.8032 12.4488 19.5232 12.4488C19.2432 12.4488 19.0432 13.3688 19.0532 14.0188C19.0574 14.4674 18.8892 14.9006 18.5832 15.2288C18.2352 15.513 17.8105 15.6871 17.3632 15.7288H15.4432C12.6836 15.6681 10.0412 14.6012 8.01316 12.7288C4.33316 9.35876 1.17316 2.91876 1.04316 2.63876C0.919163 2.40485 0.867235 2.13944 0.893931 1.87604C0.920627 1.61263 1.02475 1.36304 1.19316 1.15876C1.5743 0.840905 2.05695 0.670559 2.55316 0.678762H6.63316H6.75316C7.09074 0.728014 7.41432 0.847226 7.70316 1.02876C7.97498 1.21103 8.19262 1.46321 8.33316 1.75876C8.76434 2.68183 9.25885 3.57396 9.81316 4.42876C11.1232 6.42876 11.7032 6.88876 11.9132 6.98876C12.1468 6.05102 12.2111 5.07911 12.1032 4.11876C12.1382 3.68137 12.0661 3.24203 11.8932 2.83876C11.6736 2.66314 11.404 2.56161 11.1232 2.54876L10.3932 1.85876C10.2532 1.19876 10.9832 0.628762 11.4932 0.408762C12.5109 0.0898602 13.5787 -0.0389531 14.6432 0.0287625H15.3532C16.0752 0.00995973 16.797 0.0770979 17.5032 0.228762C19.2032 0.588763 19.1432 1.95876 19.0732 3.53876C19.0732 3.99876 19.0232 4.53876 19.0232 5.15876C19.0232 5.30876 19.0232 5.46876 19.0232 5.63876C18.9838 6.07412 19.0142 6.51297 19.1132 6.93876C19.9457 6.24231 20.6468 5.40239 21.1832 4.45876C21.7621 3.5665 22.2703 2.63031 22.7032 1.65876C22.835 1.35148 23.061 1.09395 23.3485 0.923242C23.636 0.75253 23.9703 0.677434 24.3032 0.708763H28.5832C28.7095 0.696702 28.8368 0.696702 28.9632 0.708763C29.9632 0.708763 30.5532 0.998762 30.7932 1.55876C31.0332 2.11876 30.9632 3.21876 28.4332 6.16876L27.4332 7.29876C26.9487 7.7692 26.5314 8.30424 26.1932 8.88876C26.5719 9.31934 27.0018 9.70216 27.4732 10.0288C28.6224 10.8948 29.6339 11.9298 30.4732 13.0988C30.67 13.3261 30.7988 13.6042 30.8447 13.9014C30.8907 14.1985 30.8521 14.5026 30.7332 14.7788C30.5236 15.0846 30.2432 15.3353 29.9159 15.5094C29.5885 15.6836 29.2239 15.776 28.8532 15.7788L25.0632 15.8288L24.8332 15.7888ZM19.5232 10.9488C20.4232 10.9488 21.2032 11.7388 22.0332 12.5688C22.4815 13.0583 22.9848 13.4946 23.5332 13.8688C23.9478 14.1445 24.4352 14.2907 24.9332 14.2888H25.0332L28.8332 14.2388C29.0206 14.228 29.2041 14.1804 29.3732 14.0988L29.2732 13.9388C28.5162 12.9072 27.6134 11.991 26.5932 11.2188C25.4032 10.2188 24.7932 9.74876 24.7232 8.97876C24.6532 8.20876 25.2132 7.53876 26.3332 6.26876L27.3332 5.15876C28.1774 4.29762 28.8705 3.30031 29.3832 2.20876C29.16 2.19553 28.9363 2.19553 28.7132 2.20876H24.3432C24.2641 2.1911 24.1822 2.1911 24.1032 2.20876C23.6403 3.27021 23.0883 4.29052 22.4532 5.25876C20.5632 8.07876 19.6732 8.45876 19.0432 8.45876C18.8478 8.45876 18.6555 8.41068 18.4832 8.31876C17.4832 7.74876 17.4832 6.47876 17.5432 5.55876C17.5432 5.40876 17.5432 5.25876 17.5432 5.12876C17.5432 4.47876 17.5432 3.91876 17.5932 3.43876C17.6732 1.75876 17.5932 1.74876 17.2132 1.65876C16.6009 1.53778 15.9771 1.48413 15.3532 1.49876H14.6632C14.0282 1.48564 13.3932 1.51907 12.7632 1.59876C12.8586 1.66907 12.9429 1.75335 13.0132 1.84876C13.4256 2.4991 13.6313 3.25917 13.6032 4.02876C13.7332 5.67876 13.6632 7.82876 12.6032 8.34876C12.4155 8.4366 12.2104 8.48103 12.0032 8.47876C11.0732 8.47876 10.1532 7.59876 8.58316 5.21876C7.98068 4.30748 7.4427 3.35515 6.97316 2.36876L6.89316 2.26876C6.79218 2.21729 6.68446 2.18026 6.57316 2.15876H2.57316H2.50316C3.09316 3.37876 5.89316 8.77876 9.02316 11.6088C10.7807 13.2235 13.0579 14.1563 15.4432 14.2388H17.2932C17.3875 14.2186 17.4785 14.1849 17.5632 14.1388C17.5632 14.1388 17.5632 14.1388 17.5632 14.0488C17.5632 13.7788 17.5632 11.4488 19.1432 11.0488C19.2655 11.0006 19.393 10.967 19.5232 10.9488Z" fill="#192144"/>
</svg>
