<svg width="110" height="63" viewBox="0 0 110 63" fill="none" xmlns="http://www.w3.org/2000/svg">
<rect y="7" width="110" height="56" rx="4" fill="#101D41"/>
<path d="M55 0L59.483 7.5H50.5171L55 0Z" fill="#101D41"/>
<path d="M32.4234 39.38V26.68C32.4234 26.26 32.0434 25.88 31.6234 25.88H24.5634C24.1234 25.88 23.7634 26.26 23.7634 26.68V39.38C23.7634 39.82 24.1234 40.2 24.5634 40.2C25.0034 40.2 25.3634 39.82 25.3634 39.38V27.44H30.8234V39.38C30.8234 39.82 31.2034 40.2 31.6234 40.2C32.0634 40.2 32.4234 39.82 32.4234 39.38ZM38.5254 38.78C37.0854 38.78 36.3454 38.06 36.3454 36.94V35.76C37.0454 35.88 37.7854 35.94 38.3854 35.94C40.7654 35.94 41.7654 34.82 41.7654 32.98C41.7654 31 40.6654 29.72 38.4454 29.72C36.0654 29.72 34.7854 31.18 34.7854 33.1V36.84C34.7854 38.72 36.0854 40.16 38.3454 40.16C39.4254 40.16 41.5854 39.84 41.5854 38.86C41.5854 38.5 41.2854 38.16 40.8854 38.16C40.7454 38.16 40.6454 38.2 40.6054 38.22C39.9054 38.54 39.3654 38.78 38.5254 38.78ZM40.2254 32.98C40.2254 33.8 39.9654 34.62 38.4454 34.62C38.0454 34.62 37.0854 34.58 36.3454 34.48V32.96C36.3454 31.84 37.1054 31.14 38.4054 31.14C39.5654 31.14 40.2254 31.68 40.2254 32.98ZM55.1578 30.56C55.1578 30.12 54.8178 29.78 54.3778 29.78C53.9378 29.78 53.5978 30.12 53.5978 30.56V38.68H50.3578V30.56C50.3578 30.14 50.0178 29.78 49.5778 29.78C49.1378 29.78 48.7978 30.14 48.7978 30.56V38.68H45.5578V30.56C45.5578 30.12 45.2178 29.78 44.7778 29.78C44.3378 29.78 43.9978 30.12 43.9978 30.56V39.22C43.9978 39.64 44.3378 40 44.7778 40H54.3778C54.8178 40 55.1578 39.64 55.1578 39.22V30.56ZM59.6593 39.38V35.44H60.6193L63.4793 39.78C63.6393 40.04 63.8593 40.16 64.1193 40.16C64.5193 40.16 64.8393 39.9 64.8593 39.5C64.8593 39.36 64.8193 39.16 64.7393 39.04L61.9993 34.98L64.7393 30.92C64.8193 30.8 64.8593 30.6 64.8593 30.46C64.8393 30.06 64.5193 29.8 64.1193 29.8C63.8593 29.8 63.6393 29.92 63.4793 30.18L60.8793 34.12H59.6593V30.56C59.6593 30.14 59.3193 29.78 58.8793 29.78C58.4393 29.78 58.0993 30.14 58.0993 30.56V39.38C58.0993 39.82 58.4393 40.16 58.8793 40.16C59.3193 40.16 59.6593 39.82 59.6593 39.38ZM69.795 40.16C72.235 40.16 73.535 38.6 73.535 36.6V33.26C73.535 31.26 72.235 29.7 69.795 29.7C67.355 29.7 66.055 31.26 66.055 33.26V36.6C66.055 38.6 67.355 40.16 69.795 40.16ZM69.795 38.72C68.355 38.72 67.615 37.92 67.615 36.6V33.24C67.615 31.94 68.355 31.14 69.795 31.14C71.235 31.14 71.975 31.94 71.975 33.24V36.6C71.975 37.92 71.235 38.72 69.795 38.72ZM80.6565 38.34C80.9765 38.34 81.2565 38.16 81.4165 37.86L84.0165 33.16V39.38C84.0165 39.8 84.3565 40.16 84.7965 40.16C85.1965 40.16 85.5565 39.8 85.5565 39.38V30.62C85.5565 30.14 85.1965 29.78 84.7165 29.78C84.3365 29.78 84.0965 29.98 83.9165 30.3L80.6365 36.28L77.3565 30.3C77.1765 29.98 76.9365 29.78 76.5565 29.78C76.0765 29.78 75.7165 30.14 75.7165 30.62V39.38C75.7165 39.8 76.0565 40.16 76.4765 40.16C76.8965 40.16 77.2565 39.8 77.2565 39.38V33.16L79.8565 37.86C80.0165 38.16 80.2965 38.34 80.6165 38.34H80.6565Z" fill="white"/>
</svg>
