<svg width="21" height="16" viewBox="0 0 21 16" fill="none" xmlns="http://www.w3.org/2000/svg">
<path d="M13.6028 7.32485L9.24798 4.42162C9.19341 4.38527 9.13 4.36439 9.0645 4.3612C8.99901 4.358 8.93387 4.37261 8.87601 4.40348C8.81802 4.43364 8.76952 4.47928 8.73589 4.53533C8.70226 4.59138 8.68481 4.65566 8.68549 4.72102V10.5275C8.68481 10.5928 8.70226 10.6571 8.73589 10.7132C8.76952 10.7692 8.81802 10.8148 8.87601 10.845C8.92943 10.8726 8.98829 10.8881 9.04839 10.8904C9.12009 10.8917 9.19023 10.8694 9.24798 10.8269L13.6028 7.92364C13.6534 7.89177 13.6951 7.84759 13.724 7.79523C13.7529 7.74287 13.7681 7.68405 13.7681 7.62424C13.7681 7.56444 13.7529 7.50561 13.724 7.45325C13.6951 7.4009 13.6534 7.35672 13.6028 7.32485ZM9.41129 9.84702V5.40146L12.75 7.62424L9.41129 9.84702ZM19.7994 2.43473C19.7244 2.15811 19.5863 1.90267 19.3958 1.68856C19.2053 1.47444 18.9676 1.30749 18.7016 1.20086C15.6351 0.0214217 10.7087 0.0395669 10.5 0.0395669C10.2913 0.0395669 5.36492 0.0214217 2.29839 1.20086C2.03237 1.30749 1.79474 1.47444 1.60424 1.68856C1.41374 1.90267 1.27556 2.15811 1.20061 2.43473C0.973792 3.31477 0.701614 4.92969 0.701614 7.62424C0.701614 10.3188 0.973792 11.9337 1.20061 12.8138C1.27556 13.0904 1.41374 13.3458 1.60424 13.5599C1.79474 13.774 2.03237 13.941 2.29839 14.0476C5.36492 15.2271 10.2913 15.2089 10.5 15.2089H10.5635C11.1895 15.2089 15.7893 15.1726 18.7016 14.0476C18.9676 13.941 19.2053 13.774 19.3958 13.5599C19.5863 13.3458 19.7244 13.0904 19.7994 12.8138C20.0262 11.9337 20.2984 10.3188 20.2984 7.62424C20.2984 4.92969 20.0262 3.31477 19.7994 2.43473ZM19.0917 12.6323C19.0481 12.7975 18.9663 12.95 18.8528 13.0777C18.7393 13.2054 18.5974 13.3045 18.4385 13.3672C15.499 14.5013 10.5544 14.4831 10.5 14.4831C10.4456 14.4831 5.50101 14.5013 2.56149 13.3672C2.4026 13.3045 2.26067 13.2054 2.1472 13.0777C2.03372 12.95 1.95187 12.7975 1.90827 12.6323C1.69053 11.7886 1.42742 10.2371 1.42742 7.62424C1.42742 5.01134 1.69053 3.45993 1.90827 2.61618C1.95187 2.45103 2.03372 2.29846 2.1472 2.1708C2.26067 2.04314 2.4026 1.94396 2.56149 1.8813C5.50101 0.747228 10.4456 0.765373 10.5 0.765373C10.5544 0.765373 15.499 0.747228 18.4385 1.8813C18.5974 1.94396 18.7393 2.04314 18.8528 2.1708C18.9663 2.29846 19.0481 2.45103 19.0917 2.61618C19.3095 3.45993 19.5726 5.01134 19.5726 7.62424C19.5726 10.2371 19.3095 11.7886 19.0917 12.6323Z" fill="black"/>
</svg>
