<svg width="45" height="46" viewBox="0 0 45 46" fill="none" xmlns="http://www.w3.org/2000/svg">
<circle cx="22.5" cy="22.624" r="22.5" fill="#FFD74B"/>
<path d="M25.6028 22.3248L21.248 19.4216C21.1934 19.3853 21.13 19.3644 21.0645 19.3612C20.999 19.358 20.9339 19.3726 20.876 19.4035C20.818 19.4336 20.7695 19.4793 20.7359 19.5353C20.7023 19.5914 20.6848 19.6557 20.6855 19.721V25.5275C20.6848 25.5928 20.7023 25.6571 20.7359 25.7132C20.7695 25.7692 20.818 25.8148 20.876 25.845C20.9294 25.8726 20.9883 25.8881 21.0484 25.8904C21.1201 25.8917 21.1902 25.8694 21.248 25.8269L25.6028 22.9236C25.6534 22.8918 25.6951 22.8476 25.724 22.7952C25.7529 22.7429 25.7681 22.684 25.7681 22.6242C25.7681 22.5644 25.7529 22.5056 25.724 22.4533C25.6951 22.4009 25.6534 22.3567 25.6028 22.3248ZM21.4113 24.847V20.4015L24.75 22.6242L21.4113 24.847ZM31.7994 17.4347C31.7244 17.1581 31.5863 16.9027 31.3958 16.6886C31.2053 16.4744 30.9676 16.3075 30.7016 16.2009C27.6351 15.0214 22.7087 15.0396 22.5 15.0396C22.2913 15.0396 17.3649 15.0214 14.2984 16.2009C14.0324 16.3075 13.7947 16.4744 13.6042 16.6886C13.4137 16.9027 13.2756 17.1581 13.2006 17.4347C12.9738 18.3148 12.7016 19.9297 12.7016 22.6242C12.7016 25.3188 12.9738 26.9337 13.2006 27.8138C13.2756 28.0904 13.4137 28.3458 13.6042 28.5599C13.7947 28.774 14.0324 28.941 14.2984 29.0476C17.3649 30.2271 22.2913 30.2089 22.5 30.2089H22.5635C23.1895 30.2089 27.7893 30.1726 30.7016 29.0476C30.9676 28.941 31.2053 28.774 31.3958 28.5599C31.5863 28.3458 31.7244 28.0904 31.7994 27.8138C32.0262 26.9337 32.2984 25.3188 32.2984 22.6242C32.2984 19.9297 32.0262 18.3148 31.7994 17.4347ZM31.0917 27.6323C31.0481 27.7975 30.9663 27.95 30.8528 28.0777C30.7393 28.2054 30.5974 28.3045 30.4385 28.3672C27.499 29.5013 22.5544 29.4831 22.5 29.4831C22.4456 29.4831 17.501 29.5013 14.5615 28.3672C14.4026 28.3045 14.2607 28.2054 14.1472 28.0777C14.0337 27.95 13.9519 27.7975 13.9083 27.6323C13.6905 26.7886 13.4274 25.2371 13.4274 22.6242C13.4274 20.0113 13.6905 18.4599 13.9083 17.6162C13.9519 17.451 14.0337 17.2985 14.1472 17.1708C14.2607 17.0431 14.4026 16.944 14.5615 16.8813C17.501 15.7472 22.4456 15.7654 22.5 15.7654C22.5544 15.7654 27.499 15.7472 30.4385 16.8813C30.5974 16.944 30.7393 17.0431 30.8528 17.1708C30.9663 17.2985 31.0481 17.451 31.0917 17.6162C31.3095 18.4599 31.5726 20.0113 31.5726 22.6242C31.5726 25.2371 31.3095 26.7886 31.0917 27.6323Z" fill="black"/>
</svg>
